G04 (created by PCBNEW (2013-09-28 BZR 4356)-product) date 2014/04/24 1:43:17*
%MOIN*%
G04 Gerber Fmt 3.4, Leading zero omitted, Abs format*
%FSLAX34Y34*%
G01*
G70*
G90*
G04 APERTURE LIST*
%ADD10C,0.005906*%
%ADD11C,0.011811*%
%ADD12C,0.012000*%
%ADD13C,0.012500*%
%ADD14C,0.010700*%
G04 APERTURE END LIST*
G54D10*
G54D11*
X7336Y1232D02*
X7139Y1514D01*
X6998Y1232D02*
X6998Y1823D01*
X7223Y1823D01*
X7280Y1795D01*
X7308Y1767D01*
X7336Y1710D01*
X7336Y1626D01*
X7308Y1570D01*
X7280Y1542D01*
X7223Y1514D01*
X6998Y1514D01*
X7814Y1260D02*
X7758Y1232D01*
X7645Y1232D01*
X7589Y1260D01*
X7561Y1317D01*
X7561Y1542D01*
X7589Y1598D01*
X7645Y1626D01*
X7758Y1626D01*
X7814Y1598D01*
X7842Y1542D01*
X7842Y1485D01*
X7561Y1429D01*
X8039Y1626D02*
X8179Y1232D01*
X8320Y1626D01*
X8545Y1289D02*
X8573Y1260D01*
X8545Y1232D01*
X8517Y1260D01*
X8545Y1289D01*
X8545Y1232D01*
X8798Y1401D02*
X9079Y1401D01*
X8742Y1232D02*
X8939Y1823D01*
X9136Y1232D01*
X9754Y1767D02*
X9782Y1795D01*
X9839Y1823D01*
X9979Y1823D01*
X10035Y1795D01*
X10064Y1767D01*
X10092Y1710D01*
X10092Y1654D01*
X10064Y1570D01*
X9726Y1232D01*
X10092Y1232D01*
X10457Y1823D02*
X10514Y1823D01*
X10570Y1795D01*
X10598Y1767D01*
X10626Y1710D01*
X10654Y1598D01*
X10654Y1457D01*
X10626Y1345D01*
X10598Y1289D01*
X10570Y1260D01*
X10514Y1232D01*
X10457Y1232D01*
X10401Y1260D01*
X10373Y1289D01*
X10345Y1345D01*
X10317Y1457D01*
X10317Y1598D01*
X10345Y1710D01*
X10373Y1767D01*
X10401Y1795D01*
X10457Y1823D01*
X11217Y1232D02*
X10879Y1232D01*
X11048Y1232D02*
X11048Y1823D01*
X10992Y1739D01*
X10935Y1682D01*
X10879Y1654D01*
X11723Y1626D02*
X11723Y1232D01*
X11582Y1851D02*
X11442Y1429D01*
X11807Y1429D01*
X12145Y1823D02*
X12201Y1823D01*
X12257Y1795D01*
X12285Y1767D01*
X12313Y1710D01*
X12341Y1598D01*
X12341Y1457D01*
X12313Y1345D01*
X12285Y1289D01*
X12257Y1260D01*
X12201Y1232D01*
X12145Y1232D01*
X12088Y1260D01*
X12060Y1289D01*
X12032Y1345D01*
X12004Y1457D01*
X12004Y1598D01*
X12032Y1710D01*
X12060Y1767D01*
X12088Y1795D01*
X12145Y1823D01*
X12848Y1626D02*
X12848Y1232D01*
X12707Y1851D02*
X12566Y1429D01*
X12932Y1429D01*
X13129Y1767D02*
X13157Y1795D01*
X13213Y1823D01*
X13354Y1823D01*
X13410Y1795D01*
X13438Y1767D01*
X13466Y1710D01*
X13466Y1654D01*
X13438Y1570D01*
X13101Y1232D01*
X13466Y1232D01*
X13973Y1626D02*
X13973Y1232D01*
X13832Y1851D02*
X13691Y1429D01*
X14057Y1429D01*
X6922Y2542D02*
X7006Y2514D01*
X7034Y2485D01*
X7062Y2429D01*
X7062Y2345D01*
X7034Y2289D01*
X7006Y2260D01*
X6950Y2232D01*
X6725Y2232D01*
X6725Y2823D01*
X6922Y2823D01*
X6978Y2795D01*
X7006Y2767D01*
X7034Y2710D01*
X7034Y2654D01*
X7006Y2598D01*
X6978Y2570D01*
X6922Y2542D01*
X6725Y2542D01*
X7597Y2232D02*
X7316Y2232D01*
X7316Y2823D01*
X8047Y2823D02*
X7934Y2823D01*
X7878Y2795D01*
X7850Y2767D01*
X7794Y2682D01*
X7766Y2570D01*
X7766Y2345D01*
X7794Y2289D01*
X7822Y2260D01*
X7878Y2232D01*
X7991Y2232D01*
X8047Y2260D01*
X8075Y2289D01*
X8103Y2345D01*
X8103Y2485D01*
X8075Y2542D01*
X8047Y2570D01*
X7991Y2598D01*
X7878Y2598D01*
X7822Y2570D01*
X7794Y2542D01*
X7766Y2485D01*
X8469Y2823D02*
X8525Y2823D01*
X8581Y2795D01*
X8609Y2767D01*
X8637Y2710D01*
X8665Y2598D01*
X8665Y2457D01*
X8637Y2345D01*
X8609Y2289D01*
X8581Y2260D01*
X8525Y2232D01*
X8469Y2232D01*
X8412Y2260D01*
X8384Y2289D01*
X8356Y2345D01*
X8328Y2457D01*
X8328Y2598D01*
X8356Y2710D01*
X8384Y2767D01*
X8412Y2795D01*
X8469Y2823D01*
X9031Y2823D02*
X9087Y2823D01*
X9143Y2795D01*
X9172Y2767D01*
X9200Y2710D01*
X9228Y2598D01*
X9228Y2457D01*
X9200Y2345D01*
X9172Y2289D01*
X9143Y2260D01*
X9087Y2232D01*
X9031Y2232D01*
X8975Y2260D01*
X8947Y2289D01*
X8919Y2345D01*
X8890Y2457D01*
X8890Y2598D01*
X8919Y2710D01*
X8947Y2767D01*
X8975Y2795D01*
X9031Y2823D01*
X9931Y2232D02*
X9931Y2823D01*
X10128Y2401D01*
X10325Y2823D01*
X10325Y2232D01*
X10690Y2232D02*
X10634Y2260D01*
X10606Y2289D01*
X10578Y2345D01*
X10578Y2514D01*
X10606Y2570D01*
X10634Y2598D01*
X10690Y2626D01*
X10775Y2626D01*
X10831Y2598D01*
X10859Y2570D01*
X10887Y2514D01*
X10887Y2345D01*
X10859Y2289D01*
X10831Y2260D01*
X10775Y2232D01*
X10690Y2232D01*
X11393Y2626D02*
X11393Y2232D01*
X11140Y2626D02*
X11140Y2317D01*
X11168Y2260D01*
X11224Y2232D01*
X11309Y2232D01*
X11365Y2260D01*
X11393Y2289D01*
X11674Y2626D02*
X11674Y2232D01*
X11674Y2570D02*
X11703Y2598D01*
X11759Y2626D01*
X11843Y2626D01*
X11899Y2598D01*
X11928Y2542D01*
X11928Y2232D01*
X12124Y2626D02*
X12349Y2626D01*
X12209Y2823D02*
X12209Y2317D01*
X12237Y2260D01*
X12293Y2232D01*
X12349Y2232D01*
X13193Y2542D02*
X13277Y2514D01*
X13305Y2485D01*
X13334Y2429D01*
X13334Y2345D01*
X13305Y2289D01*
X13277Y2260D01*
X13221Y2232D01*
X12996Y2232D01*
X12996Y2823D01*
X13193Y2823D01*
X13249Y2795D01*
X13277Y2767D01*
X13305Y2710D01*
X13305Y2654D01*
X13277Y2598D01*
X13249Y2570D01*
X13193Y2542D01*
X12996Y2542D01*
X13671Y2232D02*
X13615Y2260D01*
X13587Y2289D01*
X13559Y2345D01*
X13559Y2514D01*
X13587Y2570D01*
X13615Y2598D01*
X13671Y2626D01*
X13755Y2626D01*
X13812Y2598D01*
X13840Y2570D01*
X13868Y2514D01*
X13868Y2345D01*
X13840Y2289D01*
X13812Y2260D01*
X13755Y2232D01*
X13671Y2232D01*
X14374Y2232D02*
X14374Y2542D01*
X14346Y2598D01*
X14290Y2626D01*
X14177Y2626D01*
X14121Y2598D01*
X14374Y2260D02*
X14318Y2232D01*
X14177Y2232D01*
X14121Y2260D01*
X14093Y2317D01*
X14093Y2373D01*
X14121Y2429D01*
X14177Y2457D01*
X14318Y2457D01*
X14374Y2485D01*
X14655Y2232D02*
X14655Y2626D01*
X14655Y2514D02*
X14683Y2570D01*
X14712Y2598D01*
X14768Y2626D01*
X14824Y2626D01*
X15274Y2232D02*
X15274Y2823D01*
X15274Y2260D02*
X15218Y2232D01*
X15105Y2232D01*
X15049Y2260D01*
X15021Y2289D01*
X14993Y2345D01*
X14993Y2514D01*
X15021Y2570D01*
X15049Y2598D01*
X15105Y2626D01*
X15218Y2626D01*
X15274Y2598D01*
G54D10*
X6629Y3807D02*
X6944Y3964D01*
X6944Y3964D02*
X6944Y3649D01*
X6944Y3649D02*
X6629Y3807D01*
X6590Y2488D02*
X-1677Y2488D01*
X-1677Y2488D02*
X-1677Y8590D01*
X-1677Y8590D02*
X6590Y8590D01*
X6590Y8590D02*
X6590Y2488D01*
G54D12*
X17000Y10000D02*
X0Y10000D01*
X0Y10000D02*
X0Y11000D01*
X0Y11000D02*
X17000Y11000D01*
X17000Y11000D02*
X17000Y10000D01*
X16000Y10000D02*
X16000Y11000D01*
X15551Y3940D02*
X15551Y3940D01*
X16551Y3940D02*
X15551Y3940D01*
X15551Y3940D02*
X15551Y3940D01*
X15551Y3940D02*
X15551Y7940D01*
X15551Y7940D02*
X16551Y7940D01*
X16551Y7940D02*
X16551Y3940D01*
X16551Y4940D02*
X15551Y4940D01*
X17000Y0D02*
X0Y0D01*
X0Y0D02*
X0Y1000D01*
X0Y1000D02*
X17000Y1000D01*
X17000Y1000D02*
X17000Y0D01*
X16000Y0D02*
X16000Y1000D01*
G54D13*
X13188Y7015D02*
X14188Y7015D01*
X13188Y8015D02*
X14188Y8015D01*
G54D12*
X13188Y7015D02*
X13188Y8015D01*
X14188Y8015D02*
X14188Y7015D01*
G54D13*
X14173Y7015D02*
X15173Y7015D01*
X14173Y8015D02*
X15173Y8015D01*
G54D12*
X14173Y7015D02*
X14173Y8015D01*
X15173Y8015D02*
X15173Y7015D01*
G54D10*
X6814Y3282D02*
X6814Y2963D01*
X6832Y2926D01*
X6851Y2907D01*
X6889Y2888D01*
X6964Y2888D01*
X7001Y2907D01*
X7020Y2926D01*
X7039Y2963D01*
X7039Y3282D01*
X7432Y2888D02*
X7207Y2888D01*
X7320Y2888D02*
X7320Y3282D01*
X7282Y3226D01*
X7245Y3188D01*
X7207Y3170D01*
G54D14*
X3451Y9136D02*
X3451Y9817D01*
X3614Y9817D01*
X3655Y9785D01*
X3676Y9752D01*
X3696Y9688D01*
X3696Y9590D01*
X3676Y9525D01*
X3655Y9493D01*
X3614Y9461D01*
X3451Y9461D01*
X4104Y9136D02*
X3859Y9136D01*
X3981Y9136D02*
X3981Y9817D01*
X3940Y9720D01*
X3900Y9655D01*
X3859Y9623D01*
X15257Y3459D02*
X14574Y3459D01*
X14574Y3622D01*
X14607Y3663D01*
X14639Y3683D01*
X14704Y3704D01*
X14802Y3704D01*
X14867Y3683D01*
X14900Y3663D01*
X14932Y3622D01*
X14932Y3459D01*
X14639Y3867D02*
X14607Y3887D01*
X14574Y3928D01*
X14574Y4030D01*
X14607Y4071D01*
X14639Y4091D01*
X14704Y4111D01*
X14769Y4111D01*
X14867Y4091D01*
X15257Y3846D01*
X15257Y4111D01*
G54D12*
G54D14*
X15853Y1341D02*
X15853Y2022D01*
X16016Y2022D01*
X16057Y1990D01*
X16077Y1957D01*
X16097Y1892D01*
X16097Y1795D01*
X16077Y1730D01*
X16057Y1698D01*
X16016Y1665D01*
X15853Y1665D01*
X16240Y2022D02*
X16505Y2022D01*
X16362Y1763D01*
X16424Y1763D01*
X16464Y1730D01*
X16485Y1698D01*
X16505Y1633D01*
X16505Y1471D01*
X16485Y1406D01*
X16464Y1373D01*
X16424Y1341D01*
X16301Y1341D01*
X16261Y1373D01*
X16240Y1406D01*
X13166Y6865D02*
X13410Y6865D01*
X13288Y6184D02*
X13288Y6865D01*
X13777Y6184D02*
X13532Y6184D01*
X13655Y6184D02*
X13655Y6865D01*
X13614Y6767D01*
X13573Y6702D01*
X13532Y6670D01*
X14386Y6943D02*
X14631Y6943D01*
X14508Y6262D02*
X14508Y6943D01*
X14753Y6878D02*
X14773Y6911D01*
X14814Y6943D01*
X14916Y6943D01*
X14957Y6911D01*
X14977Y6878D01*
X14997Y6814D01*
X14997Y6749D01*
X14977Y6651D01*
X14732Y6262D01*
X14997Y6262D01*
M02*
