G04 (created by PCBNEW (2013-09-28 BZR 4356)-product) date 2014/04/24 1:43:17*
%MOIN*%
G04 Gerber Fmt 3.4, Leading zero omitted, Abs format*
%FSLAX34Y34*%
G01*
G70*
G90*
G04 APERTURE LIST*
%ADD10C,0.005906*%
%ADD11R,0.038000X0.050000*%
%ADD12R,0.055000X0.055000*%
%ADD13C,0.055000*%
%ADD14R,0.025000X0.045000*%
%ADD15R,0.078700X0.118100*%
%ADD16R,0.267700X0.072800*%
%ADD17C,0.035000*%
%ADD18C,0.019685*%
%ADD19C,0.010000*%
%ADD20C,0.011811*%
%ADD21C,0.007874*%
G04 APERTURE END LIST*
G54D10*
G54D11*
X14029Y6531D03*
X14529Y6531D03*
G54D12*
X16500Y10500D03*
G54D13*
X15500Y10500D03*
X14500Y10500D03*
X13500Y10500D03*
X12500Y10500D03*
X11500Y10500D03*
X10500Y10500D03*
X9500Y10500D03*
X8500Y10500D03*
X7500Y10500D03*
X6500Y10500D03*
X5500Y10500D03*
X4500Y10500D03*
X3500Y10500D03*
X2500Y10500D03*
X1500Y10500D03*
X500Y10500D03*
G54D12*
X16051Y4440D03*
G54D13*
X16051Y5440D03*
X16051Y6440D03*
X16051Y7440D03*
G54D12*
X16500Y500D03*
G54D13*
X15500Y500D03*
X14500Y500D03*
X13500Y500D03*
X12500Y500D03*
X11500Y500D03*
X10500Y500D03*
X9500Y500D03*
X8500Y500D03*
X7500Y500D03*
X6500Y500D03*
X5500Y500D03*
X4500Y500D03*
X3500Y500D03*
X2500Y500D03*
X1500Y500D03*
X500Y500D03*
G54D14*
X3950Y4000D03*
X4550Y4000D03*
X15170Y5350D03*
X14570Y5350D03*
G54D15*
X13098Y8893D03*
X15460Y8893D03*
G54D12*
X13688Y7515D03*
X14673Y7515D03*
G54D16*
X8019Y5832D03*
X8019Y7860D03*
G54D17*
X3499Y3865D03*
X10820Y8035D03*
X11272Y7313D03*
X11861Y7435D03*
X10869Y8818D03*
X9176Y6767D03*
X11207Y6485D03*
X9680Y8030D03*
X3755Y7370D03*
X6638Y4451D03*
X8444Y7043D03*
X294Y3730D03*
X921Y3710D03*
X2811Y3704D03*
X5037Y3827D03*
X539Y7240D03*
G54D18*
X14529Y6980D02*
X14529Y6531D01*
X14591Y7042D02*
X14529Y6980D01*
X14673Y7042D02*
X14591Y7042D01*
X14673Y7515D02*
X14673Y7042D01*
X14673Y7909D02*
X14673Y7515D01*
X15066Y8303D02*
X14673Y7909D01*
X15066Y8500D02*
X15066Y8303D01*
X15460Y8893D02*
X15066Y8500D01*
X15460Y10460D02*
X15460Y8893D01*
X15500Y10500D02*
X15460Y10460D01*
X15460Y8893D02*
X15460Y8893D01*
X15460Y8893D02*
X15460Y8893D01*
G54D19*
X3950Y4000D02*
X3676Y4000D01*
X3541Y3865D02*
X3499Y3865D01*
X3676Y4000D02*
X3541Y3865D01*
G54D20*
X10820Y7765D02*
X10820Y8035D01*
X11272Y7313D02*
X10820Y7765D01*
X11861Y7826D02*
X10869Y8818D01*
X11861Y7435D02*
X11861Y7826D01*
X15960Y5350D02*
X16051Y5440D01*
X15170Y5350D02*
X15960Y5350D01*
G54D18*
X9556Y6387D02*
X9176Y6767D01*
X9556Y5832D02*
X9556Y6387D01*
X8019Y5832D02*
X9556Y5832D01*
G54D20*
X9680Y8012D02*
X11207Y6485D01*
X9680Y8030D02*
X9680Y8012D01*
G54D18*
X13688Y8106D02*
X13688Y7515D01*
X13492Y8303D02*
X13688Y8106D01*
X13492Y8500D02*
X13492Y8303D01*
X13098Y8893D02*
X13492Y8500D01*
G54D10*
G36*
X16862Y882D02*
X16853Y891D01*
X16802Y912D01*
X16747Y912D01*
X16571Y912D01*
X16571Y7378D01*
X16556Y7582D01*
X16508Y7698D01*
X16419Y7723D01*
X16334Y7638D01*
X16334Y7809D01*
X16308Y7898D01*
X16113Y7961D01*
X15909Y7945D01*
X15794Y7898D01*
X15768Y7809D01*
X16051Y7526D01*
X16334Y7809D01*
X16334Y7638D01*
X16136Y7440D01*
X16419Y7158D01*
X16508Y7183D01*
X16571Y7378D01*
X16571Y912D01*
X16464Y912D01*
X16464Y5522D01*
X16464Y6522D01*
X16401Y6674D01*
X16334Y6741D01*
X16334Y7072D01*
X16051Y7355D01*
X15965Y7269D01*
X15965Y7440D01*
X15682Y7723D01*
X15594Y7698D01*
X15530Y7503D01*
X15546Y7299D01*
X15594Y7183D01*
X15682Y7158D01*
X15965Y7440D01*
X15965Y7269D01*
X15768Y7072D01*
X15794Y6983D01*
X15988Y6920D01*
X16192Y6935D01*
X16308Y6983D01*
X16334Y7072D01*
X16334Y6741D01*
X16285Y6790D01*
X16133Y6853D01*
X15969Y6853D01*
X15817Y6791D01*
X15701Y6675D01*
X15638Y6523D01*
X15638Y6359D01*
X15701Y6207D01*
X15817Y6091D01*
X15968Y6028D01*
X16132Y6028D01*
X16284Y6090D01*
X16400Y6206D01*
X16463Y6358D01*
X16464Y6522D01*
X16464Y5522D01*
X16401Y5674D01*
X16285Y5790D01*
X16133Y5853D01*
X15969Y5853D01*
X15817Y5791D01*
X15701Y5675D01*
X15648Y5547D01*
X15432Y5547D01*
X15432Y5602D01*
X15411Y5653D01*
X15373Y5692D01*
X15322Y5713D01*
X15267Y5713D01*
X15017Y5713D01*
X14967Y5692D01*
X14928Y5653D01*
X14925Y5645D01*
X14898Y5710D01*
X14830Y5778D01*
X14742Y5814D01*
X14690Y5814D01*
X14630Y5754D01*
X14630Y5411D01*
X14638Y5411D01*
X14638Y5289D01*
X14630Y5289D01*
X14630Y4945D01*
X14690Y4886D01*
X14742Y4886D01*
X14830Y4922D01*
X14898Y4989D01*
X14925Y5055D01*
X14928Y5047D01*
X14967Y5008D01*
X15017Y4987D01*
X15072Y4987D01*
X15322Y4987D01*
X15373Y5008D01*
X15411Y5047D01*
X15432Y5097D01*
X15432Y5152D01*
X15432Y5153D01*
X15754Y5153D01*
X15817Y5091D01*
X15968Y5028D01*
X16132Y5028D01*
X16284Y5090D01*
X16400Y5206D01*
X16463Y5358D01*
X16464Y5522D01*
X16464Y912D01*
X16463Y912D01*
X16463Y4138D01*
X16463Y4193D01*
X16463Y4743D01*
X16442Y4793D01*
X16404Y4832D01*
X16353Y4853D01*
X16298Y4853D01*
X15748Y4853D01*
X15698Y4832D01*
X15659Y4793D01*
X15638Y4743D01*
X15638Y4688D01*
X15638Y4138D01*
X15659Y4087D01*
X15698Y4049D01*
X15748Y4028D01*
X15803Y4028D01*
X16353Y4028D01*
X16404Y4049D01*
X16442Y4087D01*
X16463Y4138D01*
X16463Y912D01*
X16197Y912D01*
X16146Y891D01*
X16108Y853D01*
X16087Y802D01*
X16087Y747D01*
X16087Y197D01*
X16108Y146D01*
X16117Y137D01*
X15704Y137D01*
X15733Y149D01*
X15849Y265D01*
X15912Y417D01*
X15912Y581D01*
X15850Y733D01*
X15734Y849D01*
X15582Y912D01*
X15418Y912D01*
X15266Y850D01*
X15150Y734D01*
X15087Y582D01*
X15087Y418D01*
X15149Y266D01*
X15265Y150D01*
X15295Y137D01*
X14704Y137D01*
X14733Y149D01*
X14849Y265D01*
X14912Y417D01*
X14912Y581D01*
X14850Y733D01*
X14734Y849D01*
X14582Y912D01*
X14509Y912D01*
X14509Y4945D01*
X14509Y5289D01*
X14509Y5411D01*
X14509Y5754D01*
X14449Y5814D01*
X14397Y5814D01*
X14309Y5778D01*
X14242Y5710D01*
X14205Y5623D01*
X14205Y5527D01*
X14205Y5470D01*
X14265Y5411D01*
X14509Y5411D01*
X14509Y5289D01*
X14265Y5289D01*
X14205Y5229D01*
X14205Y5173D01*
X14205Y5077D01*
X14242Y4989D01*
X14309Y4922D01*
X14397Y4886D01*
X14449Y4886D01*
X14509Y4945D01*
X14509Y912D01*
X14418Y912D01*
X14266Y850D01*
X14150Y734D01*
X14087Y582D01*
X14087Y418D01*
X14149Y266D01*
X14265Y150D01*
X14295Y137D01*
X13968Y137D01*
X13968Y6101D01*
X13968Y6470D01*
X13660Y6470D01*
X13600Y6411D01*
X13600Y6233D01*
X13636Y6145D01*
X13703Y6078D01*
X13791Y6042D01*
X13887Y6042D01*
X13909Y6042D01*
X13968Y6101D01*
X13968Y137D01*
X13704Y137D01*
X13733Y149D01*
X13849Y265D01*
X13912Y417D01*
X13912Y581D01*
X13850Y733D01*
X13734Y849D01*
X13582Y912D01*
X13418Y912D01*
X13266Y850D01*
X13150Y734D01*
X13087Y582D01*
X13087Y418D01*
X13149Y266D01*
X13265Y150D01*
X13295Y137D01*
X13037Y137D01*
X13037Y8123D01*
X13037Y8833D01*
X13037Y8954D01*
X13037Y9663D01*
X12978Y9723D01*
X12657Y9723D01*
X12569Y9687D01*
X12502Y9619D01*
X12465Y9531D01*
X12465Y9436D01*
X12465Y9014D01*
X12525Y8954D01*
X13037Y8954D01*
X13037Y8833D01*
X12525Y8833D01*
X12465Y8773D01*
X12465Y8350D01*
X12465Y8255D01*
X12502Y8167D01*
X12569Y8100D01*
X12657Y8063D01*
X12978Y8063D01*
X13037Y8123D01*
X13037Y137D01*
X12704Y137D01*
X12733Y149D01*
X12849Y265D01*
X12912Y417D01*
X12912Y581D01*
X12850Y733D01*
X12734Y849D01*
X12582Y912D01*
X12418Y912D01*
X12266Y850D01*
X12174Y758D01*
X12174Y7497D01*
X12127Y7612D01*
X12058Y7681D01*
X12058Y7826D01*
X12058Y7826D01*
X12058Y7826D01*
X12051Y7861D01*
X12043Y7901D01*
X12043Y7901D01*
X12043Y7901D01*
X12021Y7935D01*
X12001Y7965D01*
X12001Y7965D01*
X12000Y7965D01*
X11182Y8784D01*
X11182Y8880D01*
X11134Y8995D01*
X11046Y9083D01*
X10931Y9131D01*
X10807Y9131D01*
X10692Y9083D01*
X10604Y8995D01*
X10556Y8880D01*
X10556Y8756D01*
X10603Y8641D01*
X10691Y8553D01*
X10806Y8505D01*
X10903Y8505D01*
X11664Y7744D01*
X11664Y7681D01*
X11596Y7613D01*
X11549Y7498D01*
X11549Y7463D01*
X11537Y7490D01*
X11449Y7578D01*
X11334Y7626D01*
X11237Y7626D01*
X11045Y7818D01*
X11085Y7858D01*
X11133Y7973D01*
X11133Y8097D01*
X11085Y8212D01*
X10997Y8300D01*
X10882Y8348D01*
X10758Y8348D01*
X10643Y8300D01*
X10555Y8213D01*
X10507Y8098D01*
X10507Y7973D01*
X10555Y7858D01*
X10623Y7790D01*
X10623Y7765D01*
X10623Y7765D01*
X10623Y7765D01*
X10630Y7728D01*
X10638Y7690D01*
X10638Y7689D01*
X10638Y7689D01*
X10660Y7657D01*
X10681Y7626D01*
X10681Y7626D01*
X10681Y7626D01*
X10959Y7347D01*
X10959Y7251D01*
X11007Y7136D01*
X11095Y7048D01*
X11209Y7000D01*
X11334Y7000D01*
X11449Y7048D01*
X11537Y7136D01*
X11585Y7251D01*
X11585Y7285D01*
X11596Y7258D01*
X11684Y7170D01*
X11799Y7122D01*
X11923Y7122D01*
X12038Y7170D01*
X12126Y7258D01*
X12174Y7373D01*
X12174Y7497D01*
X12174Y758D01*
X12150Y734D01*
X12087Y582D01*
X12087Y418D01*
X12149Y266D01*
X12265Y150D01*
X12295Y137D01*
X11704Y137D01*
X11733Y149D01*
X11849Y265D01*
X11912Y417D01*
X11912Y581D01*
X11850Y733D01*
X11734Y849D01*
X11582Y912D01*
X11520Y912D01*
X11520Y6547D01*
X11473Y6662D01*
X11385Y6750D01*
X11270Y6797D01*
X11173Y6797D01*
X9993Y7978D01*
X9993Y8092D01*
X9945Y8207D01*
X9857Y8295D01*
X9742Y8342D01*
X9618Y8342D01*
X9575Y8325D01*
X9561Y8360D01*
X9493Y8427D01*
X9405Y8463D01*
X9310Y8463D01*
X8140Y8463D01*
X8080Y8403D01*
X8080Y7921D01*
X8088Y7921D01*
X8088Y7799D01*
X8080Y7799D01*
X8080Y7316D01*
X8140Y7257D01*
X9310Y7257D01*
X9405Y7257D01*
X9493Y7293D01*
X9561Y7360D01*
X9597Y7448D01*
X9597Y7725D01*
X9617Y7717D01*
X9697Y7717D01*
X10895Y6519D01*
X10895Y6423D01*
X10942Y6308D01*
X11030Y6220D01*
X11145Y6172D01*
X11269Y6172D01*
X11384Y6219D01*
X11472Y6307D01*
X11520Y6422D01*
X11520Y6547D01*
X11520Y912D01*
X11418Y912D01*
X11266Y850D01*
X11150Y734D01*
X11087Y582D01*
X11087Y418D01*
X11149Y266D01*
X11265Y150D01*
X11295Y137D01*
X10704Y137D01*
X10733Y149D01*
X10849Y265D01*
X10912Y417D01*
X10912Y581D01*
X10850Y733D01*
X10734Y849D01*
X10582Y912D01*
X10418Y912D01*
X10266Y850D01*
X10150Y734D01*
X10087Y582D01*
X10087Y418D01*
X10149Y266D01*
X10265Y150D01*
X10295Y137D01*
X9704Y137D01*
X9733Y149D01*
X9849Y265D01*
X9912Y417D01*
X9912Y581D01*
X9850Y733D01*
X9792Y790D01*
X9792Y5832D01*
X9792Y6387D01*
X9792Y6387D01*
X9783Y6433D01*
X9774Y6477D01*
X9774Y6477D01*
X9774Y6477D01*
X9749Y6515D01*
X9723Y6554D01*
X9489Y6789D01*
X9489Y6829D01*
X9441Y6944D01*
X9353Y7032D01*
X9238Y7080D01*
X9114Y7080D01*
X8999Y7033D01*
X8911Y6945D01*
X8863Y6830D01*
X8863Y6705D01*
X8911Y6590D01*
X8998Y6502D01*
X9113Y6455D01*
X9155Y6455D01*
X9275Y6334D01*
X7959Y6334D01*
X7959Y7316D01*
X7959Y7799D01*
X7959Y7921D01*
X7959Y8403D01*
X7899Y8463D01*
X6728Y8463D01*
X6633Y8463D01*
X6545Y8427D01*
X6478Y8360D01*
X6441Y8272D01*
X6441Y7980D01*
X6501Y7921D01*
X7959Y7921D01*
X7959Y7799D01*
X6501Y7799D01*
X6441Y7739D01*
X6441Y7448D01*
X6478Y7360D01*
X6545Y7293D01*
X6633Y7257D01*
X6728Y7257D01*
X7899Y7257D01*
X7959Y7316D01*
X7959Y6334D01*
X6653Y6334D01*
X6603Y6313D01*
X6564Y6274D01*
X6543Y6223D01*
X6543Y6169D01*
X6543Y5441D01*
X6564Y5390D01*
X6603Y5351D01*
X6653Y5330D01*
X6708Y5330D01*
X9385Y5330D01*
X9436Y5351D01*
X9475Y5390D01*
X9495Y5441D01*
X9495Y5495D01*
X9495Y5596D01*
X9556Y5596D01*
X9647Y5614D01*
X9723Y5665D01*
X9774Y5742D01*
X9792Y5832D01*
X9792Y790D01*
X9734Y849D01*
X9582Y912D01*
X9418Y912D01*
X9266Y850D01*
X9150Y734D01*
X9087Y582D01*
X9087Y418D01*
X9149Y266D01*
X9265Y150D01*
X9295Y137D01*
X8704Y137D01*
X8733Y149D01*
X8849Y265D01*
X8912Y417D01*
X8912Y581D01*
X8850Y733D01*
X8734Y849D01*
X8582Y912D01*
X8418Y912D01*
X8266Y850D01*
X8150Y734D01*
X8087Y582D01*
X8087Y418D01*
X8149Y266D01*
X8265Y150D01*
X8295Y137D01*
X7704Y137D01*
X7733Y149D01*
X7849Y265D01*
X7912Y417D01*
X7912Y581D01*
X7850Y733D01*
X7734Y849D01*
X7582Y912D01*
X7418Y912D01*
X7266Y850D01*
X7150Y734D01*
X7087Y582D01*
X7087Y418D01*
X7149Y266D01*
X7265Y150D01*
X7295Y137D01*
X6704Y137D01*
X6733Y149D01*
X6849Y265D01*
X6912Y417D01*
X6912Y581D01*
X6850Y733D01*
X6734Y849D01*
X6582Y912D01*
X6418Y912D01*
X6266Y850D01*
X6150Y734D01*
X6087Y582D01*
X6087Y418D01*
X6149Y266D01*
X6265Y150D01*
X6295Y137D01*
X5704Y137D01*
X5733Y149D01*
X5849Y265D01*
X5912Y417D01*
X5912Y581D01*
X5850Y733D01*
X5734Y849D01*
X5582Y912D01*
X5418Y912D01*
X5266Y850D01*
X5150Y734D01*
X5087Y582D01*
X5087Y418D01*
X5149Y266D01*
X5265Y150D01*
X5295Y137D01*
X4914Y137D01*
X4914Y3727D01*
X4914Y3822D01*
X4914Y3879D01*
X4914Y4120D01*
X4914Y4177D01*
X4914Y4272D01*
X4877Y4360D01*
X4810Y4427D01*
X4722Y4464D01*
X4670Y4464D01*
X4610Y4404D01*
X4610Y4060D01*
X4854Y4060D01*
X4914Y4120D01*
X4914Y3879D01*
X4854Y3939D01*
X4610Y3939D01*
X4610Y3595D01*
X4670Y3535D01*
X4722Y3535D01*
X4810Y3572D01*
X4877Y3639D01*
X4914Y3727D01*
X4914Y137D01*
X4704Y137D01*
X4733Y149D01*
X4849Y265D01*
X4912Y417D01*
X4912Y581D01*
X4850Y733D01*
X4734Y849D01*
X4582Y912D01*
X4489Y912D01*
X4489Y3595D01*
X4489Y3939D01*
X4481Y3939D01*
X4481Y4060D01*
X4489Y4060D01*
X4489Y4404D01*
X4429Y4464D01*
X4377Y4464D01*
X4289Y4427D01*
X4222Y4360D01*
X4195Y4295D01*
X4191Y4303D01*
X4153Y4341D01*
X4102Y4362D01*
X4047Y4362D01*
X3797Y4362D01*
X3746Y4341D01*
X3708Y4303D01*
X3687Y4252D01*
X3687Y4197D01*
X3687Y4187D01*
X3676Y4187D01*
X3604Y4173D01*
X3592Y4165D01*
X3562Y4177D01*
X3437Y4177D01*
X3322Y4130D01*
X3234Y4042D01*
X3186Y3927D01*
X3186Y3803D01*
X3234Y3688D01*
X3322Y3600D01*
X3437Y3552D01*
X3561Y3552D01*
X3676Y3599D01*
X3741Y3664D01*
X3746Y3658D01*
X3797Y3637D01*
X3852Y3637D01*
X4102Y3637D01*
X4153Y3658D01*
X4191Y3696D01*
X4195Y3704D01*
X4222Y3639D01*
X4289Y3572D01*
X4377Y3535D01*
X4429Y3535D01*
X4489Y3595D01*
X4489Y912D01*
X4418Y912D01*
X4266Y850D01*
X4150Y734D01*
X4087Y582D01*
X4087Y418D01*
X4149Y266D01*
X4265Y150D01*
X4295Y137D01*
X3704Y137D01*
X3733Y149D01*
X3849Y265D01*
X3912Y417D01*
X3912Y581D01*
X3850Y733D01*
X3734Y849D01*
X3582Y912D01*
X3418Y912D01*
X3266Y850D01*
X3150Y734D01*
X3087Y582D01*
X3087Y418D01*
X3149Y266D01*
X3265Y150D01*
X3295Y137D01*
X2704Y137D01*
X2733Y149D01*
X2849Y265D01*
X2912Y417D01*
X2912Y581D01*
X2850Y733D01*
X2734Y849D01*
X2582Y912D01*
X2418Y912D01*
X2266Y850D01*
X2150Y734D01*
X2087Y582D01*
X2087Y418D01*
X2149Y266D01*
X2265Y150D01*
X2295Y137D01*
X1704Y137D01*
X1733Y149D01*
X1849Y265D01*
X1912Y417D01*
X1912Y581D01*
X1850Y733D01*
X1734Y849D01*
X1582Y912D01*
X1418Y912D01*
X1266Y850D01*
X1150Y734D01*
X1087Y582D01*
X1087Y418D01*
X1149Y266D01*
X1265Y150D01*
X1295Y137D01*
X704Y137D01*
X733Y149D01*
X849Y265D01*
X912Y417D01*
X912Y581D01*
X850Y733D01*
X734Y849D01*
X582Y912D01*
X418Y912D01*
X266Y850D01*
X150Y734D01*
X137Y704D01*
X137Y10295D01*
X149Y10266D01*
X265Y10150D01*
X417Y10087D01*
X581Y10087D01*
X733Y10149D01*
X849Y10265D01*
X912Y10417D01*
X912Y10581D01*
X850Y10733D01*
X734Y10849D01*
X704Y10862D01*
X1295Y10862D01*
X1266Y10850D01*
X1150Y10734D01*
X1087Y10582D01*
X1087Y10418D01*
X1149Y10266D01*
X1265Y10150D01*
X1417Y10087D01*
X1581Y10087D01*
X1733Y10149D01*
X1849Y10265D01*
X1912Y10417D01*
X1912Y10581D01*
X1850Y10733D01*
X1734Y10849D01*
X1704Y10862D01*
X2295Y10862D01*
X2266Y10850D01*
X2150Y10734D01*
X2087Y10582D01*
X2087Y10418D01*
X2149Y10266D01*
X2265Y10150D01*
X2417Y10087D01*
X2581Y10087D01*
X2733Y10149D01*
X2849Y10265D01*
X2912Y10417D01*
X2912Y10581D01*
X2850Y10733D01*
X2734Y10849D01*
X2704Y10862D01*
X3295Y10862D01*
X3266Y10850D01*
X3150Y10734D01*
X3087Y10582D01*
X3087Y10418D01*
X3149Y10266D01*
X3265Y10150D01*
X3417Y10087D01*
X3581Y10087D01*
X3733Y10149D01*
X3849Y10265D01*
X3912Y10417D01*
X3912Y10581D01*
X3850Y10733D01*
X3734Y10849D01*
X3704Y10862D01*
X4295Y10862D01*
X4266Y10850D01*
X4150Y10734D01*
X4087Y10582D01*
X4087Y10418D01*
X4149Y10266D01*
X4265Y10150D01*
X4417Y10087D01*
X4581Y10087D01*
X4733Y10149D01*
X4849Y10265D01*
X4912Y10417D01*
X4912Y10581D01*
X4850Y10733D01*
X4734Y10849D01*
X4704Y10862D01*
X5295Y10862D01*
X5266Y10850D01*
X5150Y10734D01*
X5087Y10582D01*
X5087Y10418D01*
X5149Y10266D01*
X5265Y10150D01*
X5417Y10087D01*
X5581Y10087D01*
X5733Y10149D01*
X5849Y10265D01*
X5912Y10417D01*
X5912Y10581D01*
X5850Y10733D01*
X5734Y10849D01*
X5704Y10862D01*
X6295Y10862D01*
X6266Y10850D01*
X6150Y10734D01*
X6087Y10582D01*
X6087Y10418D01*
X6149Y10266D01*
X6265Y10150D01*
X6417Y10087D01*
X6581Y10087D01*
X6733Y10149D01*
X6849Y10265D01*
X6912Y10417D01*
X6912Y10581D01*
X6850Y10733D01*
X6734Y10849D01*
X6704Y10862D01*
X7295Y10862D01*
X7266Y10850D01*
X7150Y10734D01*
X7087Y10582D01*
X7087Y10418D01*
X7149Y10266D01*
X7265Y10150D01*
X7417Y10087D01*
X7581Y10087D01*
X7733Y10149D01*
X7849Y10265D01*
X7912Y10417D01*
X7912Y10581D01*
X7850Y10733D01*
X7734Y10849D01*
X7704Y10862D01*
X8295Y10862D01*
X8266Y10850D01*
X8150Y10734D01*
X8087Y10582D01*
X8087Y10418D01*
X8149Y10266D01*
X8265Y10150D01*
X8417Y10087D01*
X8581Y10087D01*
X8733Y10149D01*
X8849Y10265D01*
X8912Y10417D01*
X8912Y10581D01*
X8850Y10733D01*
X8734Y10849D01*
X8704Y10862D01*
X9295Y10862D01*
X9266Y10850D01*
X9150Y10734D01*
X9087Y10582D01*
X9087Y10418D01*
X9149Y10266D01*
X9265Y10150D01*
X9417Y10087D01*
X9581Y10087D01*
X9733Y10149D01*
X9849Y10265D01*
X9912Y10417D01*
X9912Y10581D01*
X9850Y10733D01*
X9734Y10849D01*
X9704Y10862D01*
X10295Y10862D01*
X10266Y10850D01*
X10150Y10734D01*
X10087Y10582D01*
X10087Y10418D01*
X10149Y10266D01*
X10265Y10150D01*
X10417Y10087D01*
X10581Y10087D01*
X10733Y10149D01*
X10849Y10265D01*
X10912Y10417D01*
X10912Y10581D01*
X10850Y10733D01*
X10734Y10849D01*
X10704Y10862D01*
X11295Y10862D01*
X11266Y10850D01*
X11150Y10734D01*
X11087Y10582D01*
X11087Y10418D01*
X11149Y10266D01*
X11265Y10150D01*
X11417Y10087D01*
X11581Y10087D01*
X11733Y10149D01*
X11849Y10265D01*
X11912Y10417D01*
X11912Y10581D01*
X11850Y10733D01*
X11734Y10849D01*
X11704Y10862D01*
X12295Y10862D01*
X12266Y10850D01*
X12150Y10734D01*
X12087Y10582D01*
X12087Y10418D01*
X12149Y10266D01*
X12265Y10150D01*
X12417Y10087D01*
X12581Y10087D01*
X12733Y10149D01*
X12849Y10265D01*
X12912Y10417D01*
X12912Y10581D01*
X12850Y10733D01*
X12734Y10849D01*
X12704Y10862D01*
X13295Y10862D01*
X13266Y10850D01*
X13150Y10734D01*
X13087Y10582D01*
X13087Y10418D01*
X13149Y10266D01*
X13265Y10150D01*
X13417Y10087D01*
X13581Y10087D01*
X13733Y10149D01*
X13849Y10265D01*
X13912Y10417D01*
X13912Y10581D01*
X13850Y10733D01*
X13734Y10849D01*
X13704Y10862D01*
X14295Y10862D01*
X14266Y10850D01*
X14150Y10734D01*
X14087Y10582D01*
X14087Y10418D01*
X14149Y10266D01*
X14265Y10150D01*
X14417Y10087D01*
X14581Y10087D01*
X14733Y10149D01*
X14849Y10265D01*
X14912Y10417D01*
X14912Y10581D01*
X14850Y10733D01*
X14734Y10849D01*
X14704Y10862D01*
X15295Y10862D01*
X15266Y10850D01*
X15150Y10734D01*
X15087Y10582D01*
X15087Y10418D01*
X15149Y10266D01*
X15224Y10191D01*
X15224Y9621D01*
X15039Y9621D01*
X14988Y9601D01*
X14950Y9562D01*
X14929Y9511D01*
X14929Y9456D01*
X14929Y8696D01*
X14899Y8667D01*
X14899Y8667D01*
X14899Y8667D01*
X14874Y8628D01*
X14848Y8590D01*
X14848Y8590D01*
X14848Y8590D01*
X14839Y8545D01*
X14830Y8500D01*
X14830Y8500D01*
X14830Y8500D01*
X14830Y8400D01*
X14506Y8076D01*
X14454Y7999D01*
X14440Y7928D01*
X14370Y7928D01*
X14320Y7907D01*
X14281Y7868D01*
X14260Y7818D01*
X14260Y7763D01*
X14260Y7213D01*
X14281Y7162D01*
X14320Y7123D01*
X14341Y7115D01*
X14336Y7108D01*
X14311Y7070D01*
X14311Y7070D01*
X14311Y7070D01*
X14302Y7025D01*
X14298Y7007D01*
X14267Y7020D01*
X14203Y7020D01*
X14171Y7020D01*
X14150Y7020D01*
X14090Y6961D01*
X14090Y7020D01*
X14058Y7020D01*
X14099Y7037D01*
X14166Y7105D01*
X14203Y7193D01*
X14203Y7288D01*
X14203Y7395D01*
X14203Y7636D01*
X14203Y7743D01*
X14203Y7838D01*
X14166Y7926D01*
X14099Y7993D01*
X14011Y8030D01*
X13809Y8030D01*
X13749Y7970D01*
X13749Y7576D01*
X14143Y7576D01*
X14203Y7636D01*
X14203Y7395D01*
X14143Y7455D01*
X13749Y7455D01*
X13749Y7061D01*
X13790Y7020D01*
X13731Y6995D01*
X13731Y8255D01*
X13731Y8350D01*
X13731Y8773D01*
X13731Y9014D01*
X13731Y9436D01*
X13731Y9531D01*
X13694Y9619D01*
X13627Y9687D01*
X13539Y9723D01*
X13219Y9723D01*
X13159Y9663D01*
X13159Y8954D01*
X13671Y8954D01*
X13731Y9014D01*
X13731Y8773D01*
X13671Y8833D01*
X13159Y8833D01*
X13159Y8123D01*
X13219Y8063D01*
X13539Y8063D01*
X13627Y8100D01*
X13694Y8167D01*
X13731Y8255D01*
X13731Y6995D01*
X13703Y6984D01*
X13636Y6917D01*
X13628Y6897D01*
X13628Y7061D01*
X13628Y7455D01*
X13628Y7576D01*
X13628Y7970D01*
X13568Y8030D01*
X13366Y8030D01*
X13278Y7993D01*
X13211Y7926D01*
X13174Y7838D01*
X13174Y7743D01*
X13174Y7636D01*
X13234Y7576D01*
X13628Y7576D01*
X13628Y7455D01*
X13234Y7455D01*
X13174Y7395D01*
X13174Y7288D01*
X13174Y7193D01*
X13211Y7105D01*
X13278Y7037D01*
X13366Y7001D01*
X13568Y7001D01*
X13628Y7061D01*
X13628Y6897D01*
X13600Y6829D01*
X13600Y6651D01*
X13660Y6592D01*
X13968Y6592D01*
X13968Y6600D01*
X14090Y6600D01*
X14090Y6592D01*
X14098Y6592D01*
X14098Y6470D01*
X14090Y6470D01*
X14090Y6101D01*
X14150Y6042D01*
X14171Y6042D01*
X14267Y6042D01*
X14355Y6078D01*
X14420Y6143D01*
X14746Y6143D01*
X14797Y6164D01*
X14836Y6203D01*
X14857Y6254D01*
X14857Y6308D01*
X14857Y6808D01*
X14836Y6859D01*
X14828Y6867D01*
X14840Y6875D01*
X14891Y6951D01*
X14909Y7042D01*
X14909Y7102D01*
X14975Y7102D01*
X15026Y7123D01*
X15065Y7162D01*
X15086Y7213D01*
X15086Y7268D01*
X15086Y7818D01*
X15065Y7868D01*
X15026Y7907D01*
X15011Y7913D01*
X15233Y8136D01*
X15253Y8165D01*
X15881Y8165D01*
X15932Y8186D01*
X15970Y8225D01*
X15991Y8275D01*
X15991Y8330D01*
X15991Y9511D01*
X15970Y9562D01*
X15932Y9601D01*
X15881Y9621D01*
X15826Y9621D01*
X15696Y9621D01*
X15696Y10134D01*
X15733Y10149D01*
X15849Y10265D01*
X15912Y10417D01*
X15912Y10581D01*
X15850Y10733D01*
X15734Y10849D01*
X15704Y10862D01*
X16117Y10862D01*
X16108Y10853D01*
X16087Y10802D01*
X16087Y10747D01*
X16087Y10197D01*
X16108Y10146D01*
X16146Y10108D01*
X16197Y10087D01*
X16252Y10087D01*
X16802Y10087D01*
X16853Y10108D01*
X16862Y10117D01*
X16862Y882D01*
X16862Y882D01*
G37*
G54D21*
X16862Y882D02*
X16853Y891D01*
X16802Y912D01*
X16747Y912D01*
X16571Y912D01*
X16571Y7378D01*
X16556Y7582D01*
X16508Y7698D01*
X16419Y7723D01*
X16334Y7638D01*
X16334Y7809D01*
X16308Y7898D01*
X16113Y7961D01*
X15909Y7945D01*
X15794Y7898D01*
X15768Y7809D01*
X16051Y7526D01*
X16334Y7809D01*
X16334Y7638D01*
X16136Y7440D01*
X16419Y7158D01*
X16508Y7183D01*
X16571Y7378D01*
X16571Y912D01*
X16464Y912D01*
X16464Y5522D01*
X16464Y6522D01*
X16401Y6674D01*
X16334Y6741D01*
X16334Y7072D01*
X16051Y7355D01*
X15965Y7269D01*
X15965Y7440D01*
X15682Y7723D01*
X15594Y7698D01*
X15530Y7503D01*
X15546Y7299D01*
X15594Y7183D01*
X15682Y7158D01*
X15965Y7440D01*
X15965Y7269D01*
X15768Y7072D01*
X15794Y6983D01*
X15988Y6920D01*
X16192Y6935D01*
X16308Y6983D01*
X16334Y7072D01*
X16334Y6741D01*
X16285Y6790D01*
X16133Y6853D01*
X15969Y6853D01*
X15817Y6791D01*
X15701Y6675D01*
X15638Y6523D01*
X15638Y6359D01*
X15701Y6207D01*
X15817Y6091D01*
X15968Y6028D01*
X16132Y6028D01*
X16284Y6090D01*
X16400Y6206D01*
X16463Y6358D01*
X16464Y6522D01*
X16464Y5522D01*
X16401Y5674D01*
X16285Y5790D01*
X16133Y5853D01*
X15969Y5853D01*
X15817Y5791D01*
X15701Y5675D01*
X15648Y5547D01*
X15432Y5547D01*
X15432Y5602D01*
X15411Y5653D01*
X15373Y5692D01*
X15322Y5713D01*
X15267Y5713D01*
X15017Y5713D01*
X14967Y5692D01*
X14928Y5653D01*
X14925Y5645D01*
X14898Y5710D01*
X14830Y5778D01*
X14742Y5814D01*
X14690Y5814D01*
X14630Y5754D01*
X14630Y5411D01*
X14638Y5411D01*
X14638Y5289D01*
X14630Y5289D01*
X14630Y4945D01*
X14690Y4886D01*
X14742Y4886D01*
X14830Y4922D01*
X14898Y4989D01*
X14925Y5055D01*
X14928Y5047D01*
X14967Y5008D01*
X15017Y4987D01*
X15072Y4987D01*
X15322Y4987D01*
X15373Y5008D01*
X15411Y5047D01*
X15432Y5097D01*
X15432Y5152D01*
X15432Y5153D01*
X15754Y5153D01*
X15817Y5091D01*
X15968Y5028D01*
X16132Y5028D01*
X16284Y5090D01*
X16400Y5206D01*
X16463Y5358D01*
X16464Y5522D01*
X16464Y912D01*
X16463Y912D01*
X16463Y4138D01*
X16463Y4193D01*
X16463Y4743D01*
X16442Y4793D01*
X16404Y4832D01*
X16353Y4853D01*
X16298Y4853D01*
X15748Y4853D01*
X15698Y4832D01*
X15659Y4793D01*
X15638Y4743D01*
X15638Y4688D01*
X15638Y4138D01*
X15659Y4087D01*
X15698Y4049D01*
X15748Y4028D01*
X15803Y4028D01*
X16353Y4028D01*
X16404Y4049D01*
X16442Y4087D01*
X16463Y4138D01*
X16463Y912D01*
X16197Y912D01*
X16146Y891D01*
X16108Y853D01*
X16087Y802D01*
X16087Y747D01*
X16087Y197D01*
X16108Y146D01*
X16117Y137D01*
X15704Y137D01*
X15733Y149D01*
X15849Y265D01*
X15912Y417D01*
X15912Y581D01*
X15850Y733D01*
X15734Y849D01*
X15582Y912D01*
X15418Y912D01*
X15266Y850D01*
X15150Y734D01*
X15087Y582D01*
X15087Y418D01*
X15149Y266D01*
X15265Y150D01*
X15295Y137D01*
X14704Y137D01*
X14733Y149D01*
X14849Y265D01*
X14912Y417D01*
X14912Y581D01*
X14850Y733D01*
X14734Y849D01*
X14582Y912D01*
X14509Y912D01*
X14509Y4945D01*
X14509Y5289D01*
X14509Y5411D01*
X14509Y5754D01*
X14449Y5814D01*
X14397Y5814D01*
X14309Y5778D01*
X14242Y5710D01*
X14205Y5623D01*
X14205Y5527D01*
X14205Y5470D01*
X14265Y5411D01*
X14509Y5411D01*
X14509Y5289D01*
X14265Y5289D01*
X14205Y5229D01*
X14205Y5173D01*
X14205Y5077D01*
X14242Y4989D01*
X14309Y4922D01*
X14397Y4886D01*
X14449Y4886D01*
X14509Y4945D01*
X14509Y912D01*
X14418Y912D01*
X14266Y850D01*
X14150Y734D01*
X14087Y582D01*
X14087Y418D01*
X14149Y266D01*
X14265Y150D01*
X14295Y137D01*
X13968Y137D01*
X13968Y6101D01*
X13968Y6470D01*
X13660Y6470D01*
X13600Y6411D01*
X13600Y6233D01*
X13636Y6145D01*
X13703Y6078D01*
X13791Y6042D01*
X13887Y6042D01*
X13909Y6042D01*
X13968Y6101D01*
X13968Y137D01*
X13704Y137D01*
X13733Y149D01*
X13849Y265D01*
X13912Y417D01*
X13912Y581D01*
X13850Y733D01*
X13734Y849D01*
X13582Y912D01*
X13418Y912D01*
X13266Y850D01*
X13150Y734D01*
X13087Y582D01*
X13087Y418D01*
X13149Y266D01*
X13265Y150D01*
X13295Y137D01*
X13037Y137D01*
X13037Y8123D01*
X13037Y8833D01*
X13037Y8954D01*
X13037Y9663D01*
X12978Y9723D01*
X12657Y9723D01*
X12569Y9687D01*
X12502Y9619D01*
X12465Y9531D01*
X12465Y9436D01*
X12465Y9014D01*
X12525Y8954D01*
X13037Y8954D01*
X13037Y8833D01*
X12525Y8833D01*
X12465Y8773D01*
X12465Y8350D01*
X12465Y8255D01*
X12502Y8167D01*
X12569Y8100D01*
X12657Y8063D01*
X12978Y8063D01*
X13037Y8123D01*
X13037Y137D01*
X12704Y137D01*
X12733Y149D01*
X12849Y265D01*
X12912Y417D01*
X12912Y581D01*
X12850Y733D01*
X12734Y849D01*
X12582Y912D01*
X12418Y912D01*
X12266Y850D01*
X12174Y758D01*
X12174Y7497D01*
X12127Y7612D01*
X12058Y7681D01*
X12058Y7826D01*
X12058Y7826D01*
X12058Y7826D01*
X12051Y7861D01*
X12043Y7901D01*
X12043Y7901D01*
X12043Y7901D01*
X12021Y7935D01*
X12001Y7965D01*
X12001Y7965D01*
X12000Y7965D01*
X11182Y8784D01*
X11182Y8880D01*
X11134Y8995D01*
X11046Y9083D01*
X10931Y9131D01*
X10807Y9131D01*
X10692Y9083D01*
X10604Y8995D01*
X10556Y8880D01*
X10556Y8756D01*
X10603Y8641D01*
X10691Y8553D01*
X10806Y8505D01*
X10903Y8505D01*
X11664Y7744D01*
X11664Y7681D01*
X11596Y7613D01*
X11549Y7498D01*
X11549Y7463D01*
X11537Y7490D01*
X11449Y7578D01*
X11334Y7626D01*
X11237Y7626D01*
X11045Y7818D01*
X11085Y7858D01*
X11133Y7973D01*
X11133Y8097D01*
X11085Y8212D01*
X10997Y8300D01*
X10882Y8348D01*
X10758Y8348D01*
X10643Y8300D01*
X10555Y8213D01*
X10507Y8098D01*
X10507Y7973D01*
X10555Y7858D01*
X10623Y7790D01*
X10623Y7765D01*
X10623Y7765D01*
X10623Y7765D01*
X10630Y7728D01*
X10638Y7690D01*
X10638Y7689D01*
X10638Y7689D01*
X10660Y7657D01*
X10681Y7626D01*
X10681Y7626D01*
X10681Y7626D01*
X10959Y7347D01*
X10959Y7251D01*
X11007Y7136D01*
X11095Y7048D01*
X11209Y7000D01*
X11334Y7000D01*
X11449Y7048D01*
X11537Y7136D01*
X11585Y7251D01*
X11585Y7285D01*
X11596Y7258D01*
X11684Y7170D01*
X11799Y7122D01*
X11923Y7122D01*
X12038Y7170D01*
X12126Y7258D01*
X12174Y7373D01*
X12174Y7497D01*
X12174Y758D01*
X12150Y734D01*
X12087Y582D01*
X12087Y418D01*
X12149Y266D01*
X12265Y150D01*
X12295Y137D01*
X11704Y137D01*
X11733Y149D01*
X11849Y265D01*
X11912Y417D01*
X11912Y581D01*
X11850Y733D01*
X11734Y849D01*
X11582Y912D01*
X11520Y912D01*
X11520Y6547D01*
X11473Y6662D01*
X11385Y6750D01*
X11270Y6797D01*
X11173Y6797D01*
X9993Y7978D01*
X9993Y8092D01*
X9945Y8207D01*
X9857Y8295D01*
X9742Y8342D01*
X9618Y8342D01*
X9575Y8325D01*
X9561Y8360D01*
X9493Y8427D01*
X9405Y8463D01*
X9310Y8463D01*
X8140Y8463D01*
X8080Y8403D01*
X8080Y7921D01*
X8088Y7921D01*
X8088Y7799D01*
X8080Y7799D01*
X8080Y7316D01*
X8140Y7257D01*
X9310Y7257D01*
X9405Y7257D01*
X9493Y7293D01*
X9561Y7360D01*
X9597Y7448D01*
X9597Y7725D01*
X9617Y7717D01*
X9697Y7717D01*
X10895Y6519D01*
X10895Y6423D01*
X10942Y6308D01*
X11030Y6220D01*
X11145Y6172D01*
X11269Y6172D01*
X11384Y6219D01*
X11472Y6307D01*
X11520Y6422D01*
X11520Y6547D01*
X11520Y912D01*
X11418Y912D01*
X11266Y850D01*
X11150Y734D01*
X11087Y582D01*
X11087Y418D01*
X11149Y266D01*
X11265Y150D01*
X11295Y137D01*
X10704Y137D01*
X10733Y149D01*
X10849Y265D01*
X10912Y417D01*
X10912Y581D01*
X10850Y733D01*
X10734Y849D01*
X10582Y912D01*
X10418Y912D01*
X10266Y850D01*
X10150Y734D01*
X10087Y582D01*
X10087Y418D01*
X10149Y266D01*
X10265Y150D01*
X10295Y137D01*
X9704Y137D01*
X9733Y149D01*
X9849Y265D01*
X9912Y417D01*
X9912Y581D01*
X9850Y733D01*
X9792Y790D01*
X9792Y5832D01*
X9792Y6387D01*
X9792Y6387D01*
X9783Y6433D01*
X9774Y6477D01*
X9774Y6477D01*
X9774Y6477D01*
X9749Y6515D01*
X9723Y6554D01*
X9489Y6789D01*
X9489Y6829D01*
X9441Y6944D01*
X9353Y7032D01*
X9238Y7080D01*
X9114Y7080D01*
X8999Y7033D01*
X8911Y6945D01*
X8863Y6830D01*
X8863Y6705D01*
X8911Y6590D01*
X8998Y6502D01*
X9113Y6455D01*
X9155Y6455D01*
X9275Y6334D01*
X7959Y6334D01*
X7959Y7316D01*
X7959Y7799D01*
X7959Y7921D01*
X7959Y8403D01*
X7899Y8463D01*
X6728Y8463D01*
X6633Y8463D01*
X6545Y8427D01*
X6478Y8360D01*
X6441Y8272D01*
X6441Y7980D01*
X6501Y7921D01*
X7959Y7921D01*
X7959Y7799D01*
X6501Y7799D01*
X6441Y7739D01*
X6441Y7448D01*
X6478Y7360D01*
X6545Y7293D01*
X6633Y7257D01*
X6728Y7257D01*
X7899Y7257D01*
X7959Y7316D01*
X7959Y6334D01*
X6653Y6334D01*
X6603Y6313D01*
X6564Y6274D01*
X6543Y6223D01*
X6543Y6169D01*
X6543Y5441D01*
X6564Y5390D01*
X6603Y5351D01*
X6653Y5330D01*
X6708Y5330D01*
X9385Y5330D01*
X9436Y5351D01*
X9475Y5390D01*
X9495Y5441D01*
X9495Y5495D01*
X9495Y5596D01*
X9556Y5596D01*
X9647Y5614D01*
X9723Y5665D01*
X9774Y5742D01*
X9792Y5832D01*
X9792Y790D01*
X9734Y849D01*
X9582Y912D01*
X9418Y912D01*
X9266Y850D01*
X9150Y734D01*
X9087Y582D01*
X9087Y418D01*
X9149Y266D01*
X9265Y150D01*
X9295Y137D01*
X8704Y137D01*
X8733Y149D01*
X8849Y265D01*
X8912Y417D01*
X8912Y581D01*
X8850Y733D01*
X8734Y849D01*
X8582Y912D01*
X8418Y912D01*
X8266Y850D01*
X8150Y734D01*
X8087Y582D01*
X8087Y418D01*
X8149Y266D01*
X8265Y150D01*
X8295Y137D01*
X7704Y137D01*
X7733Y149D01*
X7849Y265D01*
X7912Y417D01*
X7912Y581D01*
X7850Y733D01*
X7734Y849D01*
X7582Y912D01*
X7418Y912D01*
X7266Y850D01*
X7150Y734D01*
X7087Y582D01*
X7087Y418D01*
X7149Y266D01*
X7265Y150D01*
X7295Y137D01*
X6704Y137D01*
X6733Y149D01*
X6849Y265D01*
X6912Y417D01*
X6912Y581D01*
X6850Y733D01*
X6734Y849D01*
X6582Y912D01*
X6418Y912D01*
X6266Y850D01*
X6150Y734D01*
X6087Y582D01*
X6087Y418D01*
X6149Y266D01*
X6265Y150D01*
X6295Y137D01*
X5704Y137D01*
X5733Y149D01*
X5849Y265D01*
X5912Y417D01*
X5912Y581D01*
X5850Y733D01*
X5734Y849D01*
X5582Y912D01*
X5418Y912D01*
X5266Y850D01*
X5150Y734D01*
X5087Y582D01*
X5087Y418D01*
X5149Y266D01*
X5265Y150D01*
X5295Y137D01*
X4914Y137D01*
X4914Y3727D01*
X4914Y3822D01*
X4914Y3879D01*
X4914Y4120D01*
X4914Y4177D01*
X4914Y4272D01*
X4877Y4360D01*
X4810Y4427D01*
X4722Y4464D01*
X4670Y4464D01*
X4610Y4404D01*
X4610Y4060D01*
X4854Y4060D01*
X4914Y4120D01*
X4914Y3879D01*
X4854Y3939D01*
X4610Y3939D01*
X4610Y3595D01*
X4670Y3535D01*
X4722Y3535D01*
X4810Y3572D01*
X4877Y3639D01*
X4914Y3727D01*
X4914Y137D01*
X4704Y137D01*
X4733Y149D01*
X4849Y265D01*
X4912Y417D01*
X4912Y581D01*
X4850Y733D01*
X4734Y849D01*
X4582Y912D01*
X4489Y912D01*
X4489Y3595D01*
X4489Y3939D01*
X4481Y3939D01*
X4481Y4060D01*
X4489Y4060D01*
X4489Y4404D01*
X4429Y4464D01*
X4377Y4464D01*
X4289Y4427D01*
X4222Y4360D01*
X4195Y4295D01*
X4191Y4303D01*
X4153Y4341D01*
X4102Y4362D01*
X4047Y4362D01*
X3797Y4362D01*
X3746Y4341D01*
X3708Y4303D01*
X3687Y4252D01*
X3687Y4197D01*
X3687Y4187D01*
X3676Y4187D01*
X3604Y4173D01*
X3592Y4165D01*
X3562Y4177D01*
X3437Y4177D01*
X3322Y4130D01*
X3234Y4042D01*
X3186Y3927D01*
X3186Y3803D01*
X3234Y3688D01*
X3322Y3600D01*
X3437Y3552D01*
X3561Y3552D01*
X3676Y3599D01*
X3741Y3664D01*
X3746Y3658D01*
X3797Y3637D01*
X3852Y3637D01*
X4102Y3637D01*
X4153Y3658D01*
X4191Y3696D01*
X4195Y3704D01*
X4222Y3639D01*
X4289Y3572D01*
X4377Y3535D01*
X4429Y3535D01*
X4489Y3595D01*
X4489Y912D01*
X4418Y912D01*
X4266Y850D01*
X4150Y734D01*
X4087Y582D01*
X4087Y418D01*
X4149Y266D01*
X4265Y150D01*
X4295Y137D01*
X3704Y137D01*
X3733Y149D01*
X3849Y265D01*
X3912Y417D01*
X3912Y581D01*
X3850Y733D01*
X3734Y849D01*
X3582Y912D01*
X3418Y912D01*
X3266Y850D01*
X3150Y734D01*
X3087Y582D01*
X3087Y418D01*
X3149Y266D01*
X3265Y150D01*
X3295Y137D01*
X2704Y137D01*
X2733Y149D01*
X2849Y265D01*
X2912Y417D01*
X2912Y581D01*
X2850Y733D01*
X2734Y849D01*
X2582Y912D01*
X2418Y912D01*
X2266Y850D01*
X2150Y734D01*
X2087Y582D01*
X2087Y418D01*
X2149Y266D01*
X2265Y150D01*
X2295Y137D01*
X1704Y137D01*
X1733Y149D01*
X1849Y265D01*
X1912Y417D01*
X1912Y581D01*
X1850Y733D01*
X1734Y849D01*
X1582Y912D01*
X1418Y912D01*
X1266Y850D01*
X1150Y734D01*
X1087Y582D01*
X1087Y418D01*
X1149Y266D01*
X1265Y150D01*
X1295Y137D01*
X704Y137D01*
X733Y149D01*
X849Y265D01*
X912Y417D01*
X912Y581D01*
X850Y733D01*
X734Y849D01*
X582Y912D01*
X418Y912D01*
X266Y850D01*
X150Y734D01*
X137Y704D01*
X137Y10295D01*
X149Y10266D01*
X265Y10150D01*
X417Y10087D01*
X581Y10087D01*
X733Y10149D01*
X849Y10265D01*
X912Y10417D01*
X912Y10581D01*
X850Y10733D01*
X734Y10849D01*
X704Y10862D01*
X1295Y10862D01*
X1266Y10850D01*
X1150Y10734D01*
X1087Y10582D01*
X1087Y10418D01*
X1149Y10266D01*
X1265Y10150D01*
X1417Y10087D01*
X1581Y10087D01*
X1733Y10149D01*
X1849Y10265D01*
X1912Y10417D01*
X1912Y10581D01*
X1850Y10733D01*
X1734Y10849D01*
X1704Y10862D01*
X2295Y10862D01*
X2266Y10850D01*
X2150Y10734D01*
X2087Y10582D01*
X2087Y10418D01*
X2149Y10266D01*
X2265Y10150D01*
X2417Y10087D01*
X2581Y10087D01*
X2733Y10149D01*
X2849Y10265D01*
X2912Y10417D01*
X2912Y10581D01*
X2850Y10733D01*
X2734Y10849D01*
X2704Y10862D01*
X3295Y10862D01*
X3266Y10850D01*
X3150Y10734D01*
X3087Y10582D01*
X3087Y10418D01*
X3149Y10266D01*
X3265Y10150D01*
X3417Y10087D01*
X3581Y10087D01*
X3733Y10149D01*
X3849Y10265D01*
X3912Y10417D01*
X3912Y10581D01*
X3850Y10733D01*
X3734Y10849D01*
X3704Y10862D01*
X4295Y10862D01*
X4266Y10850D01*
X4150Y10734D01*
X4087Y10582D01*
X4087Y10418D01*
X4149Y10266D01*
X4265Y10150D01*
X4417Y10087D01*
X4581Y10087D01*
X4733Y10149D01*
X4849Y10265D01*
X4912Y10417D01*
X4912Y10581D01*
X4850Y10733D01*
X4734Y10849D01*
X4704Y10862D01*
X5295Y10862D01*
X5266Y10850D01*
X5150Y10734D01*
X5087Y10582D01*
X5087Y10418D01*
X5149Y10266D01*
X5265Y10150D01*
X5417Y10087D01*
X5581Y10087D01*
X5733Y10149D01*
X5849Y10265D01*
X5912Y10417D01*
X5912Y10581D01*
X5850Y10733D01*
X5734Y10849D01*
X5704Y10862D01*
X6295Y10862D01*
X6266Y10850D01*
X6150Y10734D01*
X6087Y10582D01*
X6087Y10418D01*
X6149Y10266D01*
X6265Y10150D01*
X6417Y10087D01*
X6581Y10087D01*
X6733Y10149D01*
X6849Y10265D01*
X6912Y10417D01*
X6912Y10581D01*
X6850Y10733D01*
X6734Y10849D01*
X6704Y10862D01*
X7295Y10862D01*
X7266Y10850D01*
X7150Y10734D01*
X7087Y10582D01*
X7087Y10418D01*
X7149Y10266D01*
X7265Y10150D01*
X7417Y10087D01*
X7581Y10087D01*
X7733Y10149D01*
X7849Y10265D01*
X7912Y10417D01*
X7912Y10581D01*
X7850Y10733D01*
X7734Y10849D01*
X7704Y10862D01*
X8295Y10862D01*
X8266Y10850D01*
X8150Y10734D01*
X8087Y10582D01*
X8087Y10418D01*
X8149Y10266D01*
X8265Y10150D01*
X8417Y10087D01*
X8581Y10087D01*
X8733Y10149D01*
X8849Y10265D01*
X8912Y10417D01*
X8912Y10581D01*
X8850Y10733D01*
X8734Y10849D01*
X8704Y10862D01*
X9295Y10862D01*
X9266Y10850D01*
X9150Y10734D01*
X9087Y10582D01*
X9087Y10418D01*
X9149Y10266D01*
X9265Y10150D01*
X9417Y10087D01*
X9581Y10087D01*
X9733Y10149D01*
X9849Y10265D01*
X9912Y10417D01*
X9912Y10581D01*
X9850Y10733D01*
X9734Y10849D01*
X9704Y10862D01*
X10295Y10862D01*
X10266Y10850D01*
X10150Y10734D01*
X10087Y10582D01*
X10087Y10418D01*
X10149Y10266D01*
X10265Y10150D01*
X10417Y10087D01*
X10581Y10087D01*
X10733Y10149D01*
X10849Y10265D01*
X10912Y10417D01*
X10912Y10581D01*
X10850Y10733D01*
X10734Y10849D01*
X10704Y10862D01*
X11295Y10862D01*
X11266Y10850D01*
X11150Y10734D01*
X11087Y10582D01*
X11087Y10418D01*
X11149Y10266D01*
X11265Y10150D01*
X11417Y10087D01*
X11581Y10087D01*
X11733Y10149D01*
X11849Y10265D01*
X11912Y10417D01*
X11912Y10581D01*
X11850Y10733D01*
X11734Y10849D01*
X11704Y10862D01*
X12295Y10862D01*
X12266Y10850D01*
X12150Y10734D01*
X12087Y10582D01*
X12087Y10418D01*
X12149Y10266D01*
X12265Y10150D01*
X12417Y10087D01*
X12581Y10087D01*
X12733Y10149D01*
X12849Y10265D01*
X12912Y10417D01*
X12912Y10581D01*
X12850Y10733D01*
X12734Y10849D01*
X12704Y10862D01*
X13295Y10862D01*
X13266Y10850D01*
X13150Y10734D01*
X13087Y10582D01*
X13087Y10418D01*
X13149Y10266D01*
X13265Y10150D01*
X13417Y10087D01*
X13581Y10087D01*
X13733Y10149D01*
X13849Y10265D01*
X13912Y10417D01*
X13912Y10581D01*
X13850Y10733D01*
X13734Y10849D01*
X13704Y10862D01*
X14295Y10862D01*
X14266Y10850D01*
X14150Y10734D01*
X14087Y10582D01*
X14087Y10418D01*
X14149Y10266D01*
X14265Y10150D01*
X14417Y10087D01*
X14581Y10087D01*
X14733Y10149D01*
X14849Y10265D01*
X14912Y10417D01*
X14912Y10581D01*
X14850Y10733D01*
X14734Y10849D01*
X14704Y10862D01*
X15295Y10862D01*
X15266Y10850D01*
X15150Y10734D01*
X15087Y10582D01*
X15087Y10418D01*
X15149Y10266D01*
X15224Y10191D01*
X15224Y9621D01*
X15039Y9621D01*
X14988Y9601D01*
X14950Y9562D01*
X14929Y9511D01*
X14929Y9456D01*
X14929Y8696D01*
X14899Y8667D01*
X14899Y8667D01*
X14899Y8667D01*
X14874Y8628D01*
X14848Y8590D01*
X14848Y8590D01*
X14848Y8590D01*
X14839Y8545D01*
X14830Y8500D01*
X14830Y8500D01*
X14830Y8500D01*
X14830Y8400D01*
X14506Y8076D01*
X14454Y7999D01*
X14440Y7928D01*
X14370Y7928D01*
X14320Y7907D01*
X14281Y7868D01*
X14260Y7818D01*
X14260Y7763D01*
X14260Y7213D01*
X14281Y7162D01*
X14320Y7123D01*
X14341Y7115D01*
X14336Y7108D01*
X14311Y7070D01*
X14311Y7070D01*
X14311Y7070D01*
X14302Y7025D01*
X14298Y7007D01*
X14267Y7020D01*
X14203Y7020D01*
X14171Y7020D01*
X14150Y7020D01*
X14090Y6961D01*
X14090Y7020D01*
X14058Y7020D01*
X14099Y7037D01*
X14166Y7105D01*
X14203Y7193D01*
X14203Y7288D01*
X14203Y7395D01*
X14203Y7636D01*
X14203Y7743D01*
X14203Y7838D01*
X14166Y7926D01*
X14099Y7993D01*
X14011Y8030D01*
X13809Y8030D01*
X13749Y7970D01*
X13749Y7576D01*
X14143Y7576D01*
X14203Y7636D01*
X14203Y7395D01*
X14143Y7455D01*
X13749Y7455D01*
X13749Y7061D01*
X13790Y7020D01*
X13731Y6995D01*
X13731Y8255D01*
X13731Y8350D01*
X13731Y8773D01*
X13731Y9014D01*
X13731Y9436D01*
X13731Y9531D01*
X13694Y9619D01*
X13627Y9687D01*
X13539Y9723D01*
X13219Y9723D01*
X13159Y9663D01*
X13159Y8954D01*
X13671Y8954D01*
X13731Y9014D01*
X13731Y8773D01*
X13671Y8833D01*
X13159Y8833D01*
X13159Y8123D01*
X13219Y8063D01*
X13539Y8063D01*
X13627Y8100D01*
X13694Y8167D01*
X13731Y8255D01*
X13731Y6995D01*
X13703Y6984D01*
X13636Y6917D01*
X13628Y6897D01*
X13628Y7061D01*
X13628Y7455D01*
X13628Y7576D01*
X13628Y7970D01*
X13568Y8030D01*
X13366Y8030D01*
X13278Y7993D01*
X13211Y7926D01*
X13174Y7838D01*
X13174Y7743D01*
X13174Y7636D01*
X13234Y7576D01*
X13628Y7576D01*
X13628Y7455D01*
X13234Y7455D01*
X13174Y7395D01*
X13174Y7288D01*
X13174Y7193D01*
X13211Y7105D01*
X13278Y7037D01*
X13366Y7001D01*
X13568Y7001D01*
X13628Y7061D01*
X13628Y6897D01*
X13600Y6829D01*
X13600Y6651D01*
X13660Y6592D01*
X13968Y6592D01*
X13968Y6600D01*
X14090Y6600D01*
X14090Y6592D01*
X14098Y6592D01*
X14098Y6470D01*
X14090Y6470D01*
X14090Y6101D01*
X14150Y6042D01*
X14171Y6042D01*
X14267Y6042D01*
X14355Y6078D01*
X14420Y6143D01*
X14746Y6143D01*
X14797Y6164D01*
X14836Y6203D01*
X14857Y6254D01*
X14857Y6308D01*
X14857Y6808D01*
X14836Y6859D01*
X14828Y6867D01*
X14840Y6875D01*
X14891Y6951D01*
X14909Y7042D01*
X14909Y7102D01*
X14975Y7102D01*
X15026Y7123D01*
X15065Y7162D01*
X15086Y7213D01*
X15086Y7268D01*
X15086Y7818D01*
X15065Y7868D01*
X15026Y7907D01*
X15011Y7913D01*
X15233Y8136D01*
X15253Y8165D01*
X15881Y8165D01*
X15932Y8186D01*
X15970Y8225D01*
X15991Y8275D01*
X15991Y8330D01*
X15991Y9511D01*
X15970Y9562D01*
X15932Y9601D01*
X15881Y9621D01*
X15826Y9621D01*
X15696Y9621D01*
X15696Y10134D01*
X15733Y10149D01*
X15849Y10265D01*
X15912Y10417D01*
X15912Y10581D01*
X15850Y10733D01*
X15734Y10849D01*
X15704Y10862D01*
X16117Y10862D01*
X16108Y10853D01*
X16087Y10802D01*
X16087Y10747D01*
X16087Y10197D01*
X16108Y10146D01*
X16146Y10108D01*
X16197Y10087D01*
X16252Y10087D01*
X16802Y10087D01*
X16853Y10108D01*
X16862Y10117D01*
X16862Y882D01*
M02*
