%FSLAX46Y46*%
G04 Gerber Fmt 4.6, Leading zero omitted, Abs format (unit mm)*
G04 Created by KiCad (PCBNEW (2014-10-02 BZR 5162)-product) date 2014/10/23 21:02:27*
%MOMM*%
G01*
G04 APERTURE LIST*
%ADD10C,0.150000*%
%ADD11R,0.500000X1.700000*%
%ADD12R,1.700000X0.500000*%
G04 APERTURE END LIST*
D10*
D11*
X12740000Y20320000D03*
X11940000Y20320000D03*
X11140000Y20320000D03*
X10340000Y20320000D03*
X9540000Y20320000D03*
X8740000Y20320000D03*
X7940000Y20320000D03*
X7140000Y20320000D03*
X6340000Y20320000D03*
X5540000Y20320000D03*
X4740000Y20320000D03*
X3940000Y20320000D03*
X3140000Y20320000D03*
X2340000Y20320000D03*
X1540000Y20320000D03*
X740000Y20320000D03*
D12*
X15240000Y18470000D03*
X15240000Y9670000D03*
X15240000Y10470000D03*
X15240000Y11270000D03*
X15240000Y12070000D03*
X15240000Y12870000D03*
X15240000Y13670000D03*
X15240000Y14470000D03*
X15240000Y15270000D03*
X15240000Y16070000D03*
X15240000Y16870000D03*
X15240000Y17670000D03*
D11*
X740000Y7820000D03*
X1540000Y7820000D03*
X2340000Y7820000D03*
X3140000Y7820000D03*
X3940000Y7820000D03*
X4740000Y7820000D03*
X5540000Y7820000D03*
X6340000Y7820000D03*
X7140000Y7820000D03*
X7940000Y7820000D03*
X8740000Y7820000D03*
X9540000Y7820000D03*
X10340000Y7820000D03*
X11140000Y7820000D03*
X11940000Y7820000D03*
X12740000Y7820000D03*
M02*
