M48
;DRILL file {Pcbnew (2013-09-28 BZR 4356)-product} date 2014/04/24 1:35:49
;FORMAT={-:-/ absolute / metric / decimal}
FMAT,2
METRIC,TZ
T1C0.635
T2C0.813
%
G90
G05
M71
T1
X0.747Y9.474
X1.37Y18.39
X2.34Y9.424
X7.14Y9.41
X8.889Y9.817
X9.54Y18.72
X12.794Y9.722
X16.861Y11.306
X21.45Y17.891
X23.308Y17.19
X24.588Y20.397
X27.484Y20.41
X27.608Y22.399
X28.468Y16.472
X28.632Y18.577
X30.129Y18.886
T2
X1.27Y26.67
X1.27Y1.27
X3.81Y26.67
X3.81Y1.27
X6.35Y26.67
X6.35Y1.27
X8.89Y26.67
X8.89Y1.27
X11.43Y26.67
X11.43Y1.27
X13.97Y26.67
X13.97Y1.27
X16.51Y26.67
X16.51Y1.27
X19.05Y26.67
X19.05Y1.27
X21.59Y26.67
X21.59Y1.27
X24.13Y26.67
X24.13Y1.27
X26.67Y26.67
X26.67Y1.27
X29.21Y26.67
X29.21Y1.27
X31.75Y26.67
X31.75Y1.27
X34.29Y26.67
X34.29Y1.27
X34.77Y19.09
X36.83Y26.67
X36.83Y1.27
X37.27Y19.09
X39.37Y26.67
X39.37Y1.27
X40.77Y18.9
X40.77Y16.36
X40.77Y13.82
X40.77Y11.28
X41.91Y26.67
X41.91Y1.27
T0
M30
