%FSLAX46Y46*%
G04 Gerber Fmt 4.6, Leading zero omitted, Abs format (unit mm)*
G04 Created by KiCad (PCBNEW (2014-10-02 BZR 5162)-product) date 2014/10/23 21:02:27*
%MOMM*%
G01*
G04 APERTURE LIST*
%ADD10C,0.150000*%
%ADD11C,0.200000*%
%ADD12C,0.300000*%
%ADD13C,0.304800*%
%ADD14C,0.317500*%
%ADD15C,0.271780*%
G04 APERTURE END LIST*
D10*
D11*
X865238Y5841667D02*
X817619Y5698810D01*
X817619Y5460714D01*
X865238Y5365476D01*
X912857Y5317857D01*
X1008095Y5270238D01*
X1103333Y5270238D01*
X1198571Y5317857D01*
X1246190Y5365476D01*
X1293810Y5460714D01*
X1341429Y5651191D01*
X1389048Y5746429D01*
X1436667Y5794048D01*
X1531905Y5841667D01*
X1627143Y5841667D01*
X1722381Y5794048D01*
X1770000Y5746429D01*
X1817619Y5651191D01*
X1817619Y5413095D01*
X1770000Y5270238D01*
X1722381Y4889286D02*
X1770000Y4841667D01*
X1817619Y4746429D01*
X1817619Y4508333D01*
X1770000Y4413095D01*
X1722381Y4365476D01*
X1627143Y4317857D01*
X1531905Y4317857D01*
X1389048Y4365476D01*
X817619Y4936905D01*
X817619Y4317857D01*
X817619Y3365476D02*
X817619Y3936905D01*
X817619Y3651191D02*
X1817619Y3651191D01*
X1674762Y3746429D01*
X1579524Y3841667D01*
X1531905Y3936905D01*
X3405238Y5841667D02*
X3357619Y5698810D01*
X3357619Y5460714D01*
X3405238Y5365476D01*
X3452857Y5317857D01*
X3548095Y5270238D01*
X3643333Y5270238D01*
X3738571Y5317857D01*
X3786190Y5365476D01*
X3833810Y5460714D01*
X3881429Y5651191D01*
X3929048Y5746429D01*
X3976667Y5794048D01*
X4071905Y5841667D01*
X4167143Y5841667D01*
X4262381Y5794048D01*
X4310000Y5746429D01*
X4357619Y5651191D01*
X4357619Y5413095D01*
X4310000Y5270238D01*
X4262381Y4889286D02*
X4310000Y4841667D01*
X4357619Y4746429D01*
X4357619Y4508333D01*
X4310000Y4413095D01*
X4262381Y4365476D01*
X4167143Y4317857D01*
X4071905Y4317857D01*
X3929048Y4365476D01*
X3357619Y4936905D01*
X3357619Y4317857D01*
X4262381Y3936905D02*
X4310000Y3889286D01*
X4357619Y3794048D01*
X4357619Y3555952D01*
X4310000Y3460714D01*
X4262381Y3413095D01*
X4167143Y3365476D01*
X4071905Y3365476D01*
X3929048Y3413095D01*
X3357619Y3984524D01*
X3357619Y3365476D01*
X5945238Y5841667D02*
X5897619Y5698810D01*
X5897619Y5460714D01*
X5945238Y5365476D01*
X5992857Y5317857D01*
X6088095Y5270238D01*
X6183333Y5270238D01*
X6278571Y5317857D01*
X6326190Y5365476D01*
X6373810Y5460714D01*
X6421429Y5651191D01*
X6469048Y5746429D01*
X6516667Y5794048D01*
X6611905Y5841667D01*
X6707143Y5841667D01*
X6802381Y5794048D01*
X6850000Y5746429D01*
X6897619Y5651191D01*
X6897619Y5413095D01*
X6850000Y5270238D01*
X6802381Y4889286D02*
X6850000Y4841667D01*
X6897619Y4746429D01*
X6897619Y4508333D01*
X6850000Y4413095D01*
X6802381Y4365476D01*
X6707143Y4317857D01*
X6611905Y4317857D01*
X6469048Y4365476D01*
X5897619Y4936905D01*
X5897619Y4317857D01*
X6897619Y3984524D02*
X6897619Y3365476D01*
X6516667Y3698810D01*
X6516667Y3555952D01*
X6469048Y3460714D01*
X6421429Y3413095D01*
X6326190Y3365476D01*
X6088095Y3365476D01*
X5992857Y3413095D01*
X5945238Y3460714D01*
X5897619Y3555952D01*
X5897619Y3841667D01*
X5945238Y3936905D01*
X5992857Y3984524D01*
X8485238Y5841667D02*
X8437619Y5698810D01*
X8437619Y5460714D01*
X8485238Y5365476D01*
X8532857Y5317857D01*
X8628095Y5270238D01*
X8723333Y5270238D01*
X8818571Y5317857D01*
X8866190Y5365476D01*
X8913810Y5460714D01*
X8961429Y5651191D01*
X9009048Y5746429D01*
X9056667Y5794048D01*
X9151905Y5841667D01*
X9247143Y5841667D01*
X9342381Y5794048D01*
X9390000Y5746429D01*
X9437619Y5651191D01*
X9437619Y5413095D01*
X9390000Y5270238D01*
X9342381Y4889286D02*
X9390000Y4841667D01*
X9437619Y4746429D01*
X9437619Y4508333D01*
X9390000Y4413095D01*
X9342381Y4365476D01*
X9247143Y4317857D01*
X9151905Y4317857D01*
X9009048Y4365476D01*
X8437619Y4936905D01*
X8437619Y4317857D01*
X9104286Y3460714D02*
X8437619Y3460714D01*
X9485238Y3698810D02*
X8770952Y3936905D01*
X8770952Y3317857D01*
X11025238Y5841667D02*
X10977619Y5698810D01*
X10977619Y5460714D01*
X11025238Y5365476D01*
X11072857Y5317857D01*
X11168095Y5270238D01*
X11263333Y5270238D01*
X11358571Y5317857D01*
X11406190Y5365476D01*
X11453810Y5460714D01*
X11501429Y5651191D01*
X11549048Y5746429D01*
X11596667Y5794048D01*
X11691905Y5841667D01*
X11787143Y5841667D01*
X11882381Y5794048D01*
X11930000Y5746429D01*
X11977619Y5651191D01*
X11977619Y5413095D01*
X11930000Y5270238D01*
X11882381Y4889286D02*
X11930000Y4841667D01*
X11977619Y4746429D01*
X11977619Y4508333D01*
X11930000Y4413095D01*
X11882381Y4365476D01*
X11787143Y4317857D01*
X11691905Y4317857D01*
X11549048Y4365476D01*
X10977619Y4936905D01*
X10977619Y4317857D01*
X11977619Y3413095D02*
X11977619Y3889286D01*
X11501429Y3936905D01*
X11549048Y3889286D01*
X11596667Y3794048D01*
X11596667Y3555952D01*
X11549048Y3460714D01*
X11501429Y3413095D01*
X11406190Y3365476D01*
X11168095Y3365476D01*
X11072857Y3413095D01*
X11025238Y3460714D01*
X10977619Y3555952D01*
X10977619Y3794048D01*
X11025238Y3889286D01*
X11072857Y3936905D01*
X13565238Y5841667D02*
X13517619Y5698810D01*
X13517619Y5460714D01*
X13565238Y5365476D01*
X13612857Y5317857D01*
X13708095Y5270238D01*
X13803333Y5270238D01*
X13898571Y5317857D01*
X13946190Y5365476D01*
X13993810Y5460714D01*
X14041429Y5651191D01*
X14089048Y5746429D01*
X14136667Y5794048D01*
X14231905Y5841667D01*
X14327143Y5841667D01*
X14422381Y5794048D01*
X14470000Y5746429D01*
X14517619Y5651191D01*
X14517619Y5413095D01*
X14470000Y5270238D01*
X14422381Y4889286D02*
X14470000Y4841667D01*
X14517619Y4746429D01*
X14517619Y4508333D01*
X14470000Y4413095D01*
X14422381Y4365476D01*
X14327143Y4317857D01*
X14231905Y4317857D01*
X14089048Y4365476D01*
X13517619Y4936905D01*
X13517619Y4317857D01*
X14517619Y3460714D02*
X14517619Y3651191D01*
X14470000Y3746429D01*
X14422381Y3794048D01*
X14279524Y3889286D01*
X14089048Y3936905D01*
X13708095Y3936905D01*
X13612857Y3889286D01*
X13565238Y3841667D01*
X13517619Y3746429D01*
X13517619Y3555952D01*
X13565238Y3460714D01*
X13612857Y3413095D01*
X13708095Y3365476D01*
X13946190Y3365476D01*
X14041429Y3413095D01*
X14089048Y3460714D01*
X14136667Y3555952D01*
X14136667Y3746429D01*
X14089048Y3841667D01*
X14041429Y3889286D01*
X13946190Y3936905D01*
X16105238Y5841667D02*
X16057619Y5698810D01*
X16057619Y5460714D01*
X16105238Y5365476D01*
X16152857Y5317857D01*
X16248095Y5270238D01*
X16343333Y5270238D01*
X16438571Y5317857D01*
X16486190Y5365476D01*
X16533810Y5460714D01*
X16581429Y5651191D01*
X16629048Y5746429D01*
X16676667Y5794048D01*
X16771905Y5841667D01*
X16867143Y5841667D01*
X16962381Y5794048D01*
X17010000Y5746429D01*
X17057619Y5651191D01*
X17057619Y5413095D01*
X17010000Y5270238D01*
X16962381Y4889286D02*
X17010000Y4841667D01*
X17057619Y4746429D01*
X17057619Y4508333D01*
X17010000Y4413095D01*
X16962381Y4365476D01*
X16867143Y4317857D01*
X16771905Y4317857D01*
X16629048Y4365476D01*
X16057619Y4936905D01*
X16057619Y4317857D01*
X17057619Y3984524D02*
X17057619Y3317857D01*
X16057619Y3746429D01*
X18645238Y5841667D02*
X18597619Y5698810D01*
X18597619Y5460714D01*
X18645238Y5365476D01*
X18692857Y5317857D01*
X18788095Y5270238D01*
X18883333Y5270238D01*
X18978571Y5317857D01*
X19026190Y5365476D01*
X19073810Y5460714D01*
X19121429Y5651191D01*
X19169048Y5746429D01*
X19216667Y5794048D01*
X19311905Y5841667D01*
X19407143Y5841667D01*
X19502381Y5794048D01*
X19550000Y5746429D01*
X19597619Y5651191D01*
X19597619Y5413095D01*
X19550000Y5270238D01*
X19502381Y4889286D02*
X19550000Y4841667D01*
X19597619Y4746429D01*
X19597619Y4508333D01*
X19550000Y4413095D01*
X19502381Y4365476D01*
X19407143Y4317857D01*
X19311905Y4317857D01*
X19169048Y4365476D01*
X18597619Y4936905D01*
X18597619Y4317857D01*
X19169048Y3746429D02*
X19216667Y3841667D01*
X19264286Y3889286D01*
X19359524Y3936905D01*
X19407143Y3936905D01*
X19502381Y3889286D01*
X19550000Y3841667D01*
X19597619Y3746429D01*
X19597619Y3555952D01*
X19550000Y3460714D01*
X19502381Y3413095D01*
X19407143Y3365476D01*
X19359524Y3365476D01*
X19264286Y3413095D01*
X19216667Y3460714D01*
X19169048Y3555952D01*
X19169048Y3746429D01*
X19121429Y3841667D01*
X19073810Y3889286D01*
X18978571Y3936905D01*
X18788095Y3936905D01*
X18692857Y3889286D01*
X18645238Y3841667D01*
X18597619Y3746429D01*
X18597619Y3555952D01*
X18645238Y3460714D01*
X18692857Y3413095D01*
X18788095Y3365476D01*
X18978571Y3365476D01*
X19073810Y3413095D01*
X19121429Y3460714D01*
X19169048Y3555952D01*
X21185238Y5841667D02*
X21137619Y5698810D01*
X21137619Y5460714D01*
X21185238Y5365476D01*
X21232857Y5317857D01*
X21328095Y5270238D01*
X21423333Y5270238D01*
X21518571Y5317857D01*
X21566190Y5365476D01*
X21613810Y5460714D01*
X21661429Y5651191D01*
X21709048Y5746429D01*
X21756667Y5794048D01*
X21851905Y5841667D01*
X21947143Y5841667D01*
X22042381Y5794048D01*
X22090000Y5746429D01*
X22137619Y5651191D01*
X22137619Y5413095D01*
X22090000Y5270238D01*
X22042381Y4889286D02*
X22090000Y4841667D01*
X22137619Y4746429D01*
X22137619Y4508333D01*
X22090000Y4413095D01*
X22042381Y4365476D01*
X21947143Y4317857D01*
X21851905Y4317857D01*
X21709048Y4365476D01*
X21137619Y4936905D01*
X21137619Y4317857D01*
X21137619Y3841667D02*
X21137619Y3651191D01*
X21185238Y3555952D01*
X21232857Y3508333D01*
X21375714Y3413095D01*
X21566190Y3365476D01*
X21947143Y3365476D01*
X22042381Y3413095D01*
X22090000Y3460714D01*
X22137619Y3555952D01*
X22137619Y3746429D01*
X22090000Y3841667D01*
X22042381Y3889286D01*
X21947143Y3936905D01*
X21709048Y3936905D01*
X21613810Y3889286D01*
X21566190Y3841667D01*
X21518571Y3746429D01*
X21518571Y3555952D01*
X21566190Y3460714D01*
X21613810Y3413095D01*
X21709048Y3365476D01*
X23725238Y5841667D02*
X23677619Y5698810D01*
X23677619Y5460714D01*
X23725238Y5365476D01*
X23772857Y5317857D01*
X23868095Y5270238D01*
X23963333Y5270238D01*
X24058571Y5317857D01*
X24106190Y5365476D01*
X24153810Y5460714D01*
X24201429Y5651191D01*
X24249048Y5746429D01*
X24296667Y5794048D01*
X24391905Y5841667D01*
X24487143Y5841667D01*
X24582381Y5794048D01*
X24630000Y5746429D01*
X24677619Y5651191D01*
X24677619Y5413095D01*
X24630000Y5270238D01*
X24677619Y4936905D02*
X24677619Y4317857D01*
X24296667Y4651191D01*
X24296667Y4508333D01*
X24249048Y4413095D01*
X24201429Y4365476D01*
X24106190Y4317857D01*
X23868095Y4317857D01*
X23772857Y4365476D01*
X23725238Y4413095D01*
X23677619Y4508333D01*
X23677619Y4794048D01*
X23725238Y4889286D01*
X23772857Y4936905D01*
X24677619Y3698810D02*
X24677619Y3603571D01*
X24630000Y3508333D01*
X24582381Y3460714D01*
X24487143Y3413095D01*
X24296667Y3365476D01*
X24058571Y3365476D01*
X23868095Y3413095D01*
X23772857Y3460714D01*
X23725238Y3508333D01*
X23677619Y3603571D01*
X23677619Y3698810D01*
X23725238Y3794048D01*
X23772857Y3841667D01*
X23868095Y3889286D01*
X24058571Y3936905D01*
X24296667Y3936905D01*
X24487143Y3889286D01*
X24582381Y3841667D01*
X24630000Y3794048D01*
X24677619Y3698810D01*
X26265238Y4889286D02*
X26217619Y4746429D01*
X26217619Y4508333D01*
X26265238Y4413095D01*
X26312857Y4365476D01*
X26408095Y4317857D01*
X26503333Y4317857D01*
X26598571Y4365476D01*
X26646190Y4413095D01*
X26693810Y4508333D01*
X26741429Y4698810D01*
X26789048Y4794048D01*
X26836667Y4841667D01*
X26931905Y4889286D01*
X27027143Y4889286D01*
X27122381Y4841667D01*
X27170000Y4794048D01*
X27217619Y4698810D01*
X27217619Y4460714D01*
X27170000Y4317857D01*
X27217619Y3698810D02*
X27217619Y3603571D01*
X27170000Y3508333D01*
X27122381Y3460714D01*
X27027143Y3413095D01*
X26836667Y3365476D01*
X26598571Y3365476D01*
X26408095Y3413095D01*
X26312857Y3460714D01*
X26265238Y3508333D01*
X26217619Y3603571D01*
X26217619Y3698810D01*
X26265238Y3794048D01*
X26312857Y3841667D01*
X26408095Y3889286D01*
X26598571Y3936905D01*
X26836667Y3936905D01*
X27027143Y3889286D01*
X27122381Y3841667D01*
X27170000Y3794048D01*
X27217619Y3698810D01*
X28805238Y4889286D02*
X28757619Y4746429D01*
X28757619Y4508333D01*
X28805238Y4413095D01*
X28852857Y4365476D01*
X28948095Y4317857D01*
X29043333Y4317857D01*
X29138571Y4365476D01*
X29186190Y4413095D01*
X29233810Y4508333D01*
X29281429Y4698810D01*
X29329048Y4794048D01*
X29376667Y4841667D01*
X29471905Y4889286D01*
X29567143Y4889286D01*
X29662381Y4841667D01*
X29710000Y4794048D01*
X29757619Y4698810D01*
X29757619Y4460714D01*
X29710000Y4317857D01*
X28757619Y3365476D02*
X28757619Y3936905D01*
X28757619Y3651191D02*
X29757619Y3651191D01*
X29614762Y3746429D01*
X29519524Y3841667D01*
X29471905Y3936905D01*
X31345238Y4889286D02*
X31297619Y4746429D01*
X31297619Y4508333D01*
X31345238Y4413095D01*
X31392857Y4365476D01*
X31488095Y4317857D01*
X31583333Y4317857D01*
X31678571Y4365476D01*
X31726190Y4413095D01*
X31773810Y4508333D01*
X31821429Y4698810D01*
X31869048Y4794048D01*
X31916667Y4841667D01*
X32011905Y4889286D01*
X32107143Y4889286D01*
X32202381Y4841667D01*
X32250000Y4794048D01*
X32297619Y4698810D01*
X32297619Y4460714D01*
X32250000Y4317857D01*
X32202381Y3936905D02*
X32250000Y3889286D01*
X32297619Y3794048D01*
X32297619Y3555952D01*
X32250000Y3460714D01*
X32202381Y3413095D01*
X32107143Y3365476D01*
X32011905Y3365476D01*
X31869048Y3413095D01*
X31297619Y3984524D01*
X31297619Y3365476D01*
X33885238Y4889286D02*
X33837619Y4746429D01*
X33837619Y4508333D01*
X33885238Y4413095D01*
X33932857Y4365476D01*
X34028095Y4317857D01*
X34123333Y4317857D01*
X34218571Y4365476D01*
X34266190Y4413095D01*
X34313810Y4508333D01*
X34361429Y4698810D01*
X34409048Y4794048D01*
X34456667Y4841667D01*
X34551905Y4889286D01*
X34647143Y4889286D01*
X34742381Y4841667D01*
X34790000Y4794048D01*
X34837619Y4698810D01*
X34837619Y4460714D01*
X34790000Y4317857D01*
X34837619Y3984524D02*
X34837619Y3365476D01*
X34456667Y3698810D01*
X34456667Y3555952D01*
X34409048Y3460714D01*
X34361429Y3413095D01*
X34266190Y3365476D01*
X34028095Y3365476D01*
X33932857Y3413095D01*
X33885238Y3460714D01*
X33837619Y3555952D01*
X33837619Y3841667D01*
X33885238Y3936905D01*
X33932857Y3984524D01*
X36425238Y4889286D02*
X36377619Y4746429D01*
X36377619Y4508333D01*
X36425238Y4413095D01*
X36472857Y4365476D01*
X36568095Y4317857D01*
X36663333Y4317857D01*
X36758571Y4365476D01*
X36806190Y4413095D01*
X36853810Y4508333D01*
X36901429Y4698810D01*
X36949048Y4794048D01*
X36996667Y4841667D01*
X37091905Y4889286D01*
X37187143Y4889286D01*
X37282381Y4841667D01*
X37330000Y4794048D01*
X37377619Y4698810D01*
X37377619Y4460714D01*
X37330000Y4317857D01*
X37044286Y3460714D02*
X36377619Y3460714D01*
X37425238Y3698810D02*
X36710952Y3936905D01*
X36710952Y3317857D01*
X38965238Y4889286D02*
X38917619Y4746429D01*
X38917619Y4508333D01*
X38965238Y4413095D01*
X39012857Y4365476D01*
X39108095Y4317857D01*
X39203333Y4317857D01*
X39298571Y4365476D01*
X39346190Y4413095D01*
X39393810Y4508333D01*
X39441429Y4698810D01*
X39489048Y4794048D01*
X39536667Y4841667D01*
X39631905Y4889286D01*
X39727143Y4889286D01*
X39822381Y4841667D01*
X39870000Y4794048D01*
X39917619Y4698810D01*
X39917619Y4460714D01*
X39870000Y4317857D01*
X39917619Y3413095D02*
X39917619Y3889286D01*
X39441429Y3936905D01*
X39489048Y3889286D01*
X39536667Y3794048D01*
X39536667Y3555952D01*
X39489048Y3460714D01*
X39441429Y3413095D01*
X39346190Y3365476D01*
X39108095Y3365476D01*
X39012857Y3413095D01*
X38965238Y3460714D01*
X38917619Y3555952D01*
X38917619Y3794048D01*
X38965238Y3889286D01*
X39012857Y3936905D01*
X41505238Y4889286D02*
X41457619Y4746429D01*
X41457619Y4508333D01*
X41505238Y4413095D01*
X41552857Y4365476D01*
X41648095Y4317857D01*
X41743333Y4317857D01*
X41838571Y4365476D01*
X41886190Y4413095D01*
X41933810Y4508333D01*
X41981429Y4698810D01*
X42029048Y4794048D01*
X42076667Y4841667D01*
X42171905Y4889286D01*
X42267143Y4889286D01*
X42362381Y4841667D01*
X42410000Y4794048D01*
X42457619Y4698810D01*
X42457619Y4460714D01*
X42410000Y4317857D01*
X42457619Y3460714D02*
X42457619Y3651191D01*
X42410000Y3746429D01*
X42362381Y3794048D01*
X42219524Y3889286D01*
X42029048Y3936905D01*
X41648095Y3936905D01*
X41552857Y3889286D01*
X41505238Y3841667D01*
X41457619Y3746429D01*
X41457619Y3555952D01*
X41505238Y3460714D01*
X41552857Y3413095D01*
X41648095Y3365476D01*
X41886190Y3365476D01*
X41981429Y3413095D01*
X42029048Y3460714D01*
X42076667Y3555952D01*
X42076667Y3746429D01*
X42029048Y3841667D01*
X41981429Y3889286D01*
X41886190Y3936905D01*
X865238Y24574524D02*
X817619Y24431667D01*
X817619Y24193571D01*
X865238Y24098333D01*
X912857Y24050714D01*
X1008095Y24003095D01*
X1103333Y24003095D01*
X1198571Y24050714D01*
X1246190Y24098333D01*
X1293810Y24193571D01*
X1341429Y24384048D01*
X1389048Y24479286D01*
X1436667Y24526905D01*
X1531905Y24574524D01*
X1627143Y24574524D01*
X1722381Y24526905D01*
X1770000Y24479286D01*
X1817619Y24384048D01*
X1817619Y24145952D01*
X1770000Y24003095D01*
X1722381Y23622143D02*
X1770000Y23574524D01*
X1817619Y23479286D01*
X1817619Y23241190D01*
X1770000Y23145952D01*
X1722381Y23098333D01*
X1627143Y23050714D01*
X1531905Y23050714D01*
X1389048Y23098333D01*
X817619Y23669762D01*
X817619Y23050714D01*
X1817619Y22431667D02*
X1817619Y22336428D01*
X1770000Y22241190D01*
X1722381Y22193571D01*
X1627143Y22145952D01*
X1436667Y22098333D01*
X1198571Y22098333D01*
X1008095Y22145952D01*
X912857Y22193571D01*
X865238Y22241190D01*
X817619Y22336428D01*
X817619Y22431667D01*
X865238Y22526905D01*
X912857Y22574524D01*
X1008095Y22622143D01*
X1198571Y22669762D01*
X1436667Y22669762D01*
X1627143Y22622143D01*
X1722381Y22574524D01*
X1770000Y22526905D01*
X1817619Y22431667D01*
X3405238Y24574524D02*
X3357619Y24431667D01*
X3357619Y24193571D01*
X3405238Y24098333D01*
X3452857Y24050714D01*
X3548095Y24003095D01*
X3643333Y24003095D01*
X3738571Y24050714D01*
X3786190Y24098333D01*
X3833810Y24193571D01*
X3881429Y24384048D01*
X3929048Y24479286D01*
X3976667Y24526905D01*
X4071905Y24574524D01*
X4167143Y24574524D01*
X4262381Y24526905D01*
X4310000Y24479286D01*
X4357619Y24384048D01*
X4357619Y24145952D01*
X4310000Y24003095D01*
X3357619Y23050714D02*
X3357619Y23622143D01*
X3357619Y23336429D02*
X4357619Y23336429D01*
X4214762Y23431667D01*
X4119524Y23526905D01*
X4071905Y23622143D01*
X3357619Y22574524D02*
X3357619Y22384048D01*
X3405238Y22288809D01*
X3452857Y22241190D01*
X3595714Y22145952D01*
X3786190Y22098333D01*
X4167143Y22098333D01*
X4262381Y22145952D01*
X4310000Y22193571D01*
X4357619Y22288809D01*
X4357619Y22479286D01*
X4310000Y22574524D01*
X4262381Y22622143D01*
X4167143Y22669762D01*
X3929048Y22669762D01*
X3833810Y22622143D01*
X3786190Y22574524D01*
X3738571Y22479286D01*
X3738571Y22288809D01*
X3786190Y22193571D01*
X3833810Y22145952D01*
X3929048Y22098333D01*
X5945238Y24574524D02*
X5897619Y24431667D01*
X5897619Y24193571D01*
X5945238Y24098333D01*
X5992857Y24050714D01*
X6088095Y24003095D01*
X6183333Y24003095D01*
X6278571Y24050714D01*
X6326190Y24098333D01*
X6373810Y24193571D01*
X6421429Y24384048D01*
X6469048Y24479286D01*
X6516667Y24526905D01*
X6611905Y24574524D01*
X6707143Y24574524D01*
X6802381Y24526905D01*
X6850000Y24479286D01*
X6897619Y24384048D01*
X6897619Y24145952D01*
X6850000Y24003095D01*
X5897619Y23050714D02*
X5897619Y23622143D01*
X5897619Y23336429D02*
X6897619Y23336429D01*
X6754762Y23431667D01*
X6659524Y23526905D01*
X6611905Y23622143D01*
X6469048Y22479286D02*
X6516667Y22574524D01*
X6564286Y22622143D01*
X6659524Y22669762D01*
X6707143Y22669762D01*
X6802381Y22622143D01*
X6850000Y22574524D01*
X6897619Y22479286D01*
X6897619Y22288809D01*
X6850000Y22193571D01*
X6802381Y22145952D01*
X6707143Y22098333D01*
X6659524Y22098333D01*
X6564286Y22145952D01*
X6516667Y22193571D01*
X6469048Y22288809D01*
X6469048Y22479286D01*
X6421429Y22574524D01*
X6373810Y22622143D01*
X6278571Y22669762D01*
X6088095Y22669762D01*
X5992857Y22622143D01*
X5945238Y22574524D01*
X5897619Y22479286D01*
X5897619Y22288809D01*
X5945238Y22193571D01*
X5992857Y22145952D01*
X6088095Y22098333D01*
X6278571Y22098333D01*
X6373810Y22145952D01*
X6421429Y22193571D01*
X6469048Y22288809D01*
X8485238Y24574524D02*
X8437619Y24431667D01*
X8437619Y24193571D01*
X8485238Y24098333D01*
X8532857Y24050714D01*
X8628095Y24003095D01*
X8723333Y24003095D01*
X8818571Y24050714D01*
X8866190Y24098333D01*
X8913810Y24193571D01*
X8961429Y24384048D01*
X9009048Y24479286D01*
X9056667Y24526905D01*
X9151905Y24574524D01*
X9247143Y24574524D01*
X9342381Y24526905D01*
X9390000Y24479286D01*
X9437619Y24384048D01*
X9437619Y24145952D01*
X9390000Y24003095D01*
X8437619Y23050714D02*
X8437619Y23622143D01*
X8437619Y23336429D02*
X9437619Y23336429D01*
X9294762Y23431667D01*
X9199524Y23526905D01*
X9151905Y23622143D01*
X9437619Y22717381D02*
X9437619Y22050714D01*
X8437619Y22479286D01*
X10977619Y23955476D02*
X11453810Y24288810D01*
X10977619Y24526905D02*
X11977619Y24526905D01*
X11977619Y24145952D01*
X11930000Y24050714D01*
X11882381Y24003095D01*
X11787143Y23955476D01*
X11644286Y23955476D01*
X11549048Y24003095D01*
X11501429Y24050714D01*
X11453810Y24145952D01*
X11453810Y24526905D01*
X11025238Y23574524D02*
X10977619Y23431667D01*
X10977619Y23193571D01*
X11025238Y23098333D01*
X11072857Y23050714D01*
X11168095Y23003095D01*
X11263333Y23003095D01*
X11358571Y23050714D01*
X11406190Y23098333D01*
X11453810Y23193571D01*
X11501429Y23384048D01*
X11549048Y23479286D01*
X11596667Y23526905D01*
X11691905Y23574524D01*
X11787143Y23574524D01*
X11882381Y23526905D01*
X11930000Y23479286D01*
X11977619Y23384048D01*
X11977619Y23145952D01*
X11930000Y23003095D01*
X11977619Y22717381D02*
X11977619Y22145952D01*
X10977619Y22431667D02*
X11977619Y22431667D01*
X13565238Y24574524D02*
X13517619Y24431667D01*
X13517619Y24193571D01*
X13565238Y24098333D01*
X13612857Y24050714D01*
X13708095Y24003095D01*
X13803333Y24003095D01*
X13898571Y24050714D01*
X13946190Y24098333D01*
X13993810Y24193571D01*
X14041429Y24384048D01*
X14089048Y24479286D01*
X14136667Y24526905D01*
X14231905Y24574524D01*
X14327143Y24574524D01*
X14422381Y24526905D01*
X14470000Y24479286D01*
X14517619Y24384048D01*
X14517619Y24145952D01*
X14470000Y24003095D01*
X13517619Y23050714D02*
X13517619Y23622143D01*
X13517619Y23336429D02*
X14517619Y23336429D01*
X14374762Y23431667D01*
X14279524Y23526905D01*
X14231905Y23622143D01*
X14517619Y22193571D02*
X14517619Y22384048D01*
X14470000Y22479286D01*
X14422381Y22526905D01*
X14279524Y22622143D01*
X14089048Y22669762D01*
X13708095Y22669762D01*
X13612857Y22622143D01*
X13565238Y22574524D01*
X13517619Y22479286D01*
X13517619Y22288809D01*
X13565238Y22193571D01*
X13612857Y22145952D01*
X13708095Y22098333D01*
X13946190Y22098333D01*
X14041429Y22145952D01*
X14089048Y22193571D01*
X14136667Y22288809D01*
X14136667Y22479286D01*
X14089048Y22574524D01*
X14041429Y22622143D01*
X13946190Y22669762D01*
X16105238Y24574524D02*
X16057619Y24431667D01*
X16057619Y24193571D01*
X16105238Y24098333D01*
X16152857Y24050714D01*
X16248095Y24003095D01*
X16343333Y24003095D01*
X16438571Y24050714D01*
X16486190Y24098333D01*
X16533810Y24193571D01*
X16581429Y24384048D01*
X16629048Y24479286D01*
X16676667Y24526905D01*
X16771905Y24574524D01*
X16867143Y24574524D01*
X16962381Y24526905D01*
X17010000Y24479286D01*
X17057619Y24384048D01*
X17057619Y24145952D01*
X17010000Y24003095D01*
X16057619Y23050714D02*
X16057619Y23622143D01*
X16057619Y23336429D02*
X17057619Y23336429D01*
X16914762Y23431667D01*
X16819524Y23526905D01*
X16771905Y23622143D01*
X17057619Y22145952D02*
X17057619Y22622143D01*
X16581429Y22669762D01*
X16629048Y22622143D01*
X16676667Y22526905D01*
X16676667Y22288809D01*
X16629048Y22193571D01*
X16581429Y22145952D01*
X16486190Y22098333D01*
X16248095Y22098333D01*
X16152857Y22145952D01*
X16105238Y22193571D01*
X16057619Y22288809D01*
X16057619Y22526905D01*
X16105238Y22622143D01*
X16152857Y22669762D01*
X18645238Y24574524D02*
X18597619Y24431667D01*
X18597619Y24193571D01*
X18645238Y24098333D01*
X18692857Y24050714D01*
X18788095Y24003095D01*
X18883333Y24003095D01*
X18978571Y24050714D01*
X19026190Y24098333D01*
X19073810Y24193571D01*
X19121429Y24384048D01*
X19169048Y24479286D01*
X19216667Y24526905D01*
X19311905Y24574524D01*
X19407143Y24574524D01*
X19502381Y24526905D01*
X19550000Y24479286D01*
X19597619Y24384048D01*
X19597619Y24145952D01*
X19550000Y24003095D01*
X18597619Y23050714D02*
X18597619Y23622143D01*
X18597619Y23336429D02*
X19597619Y23336429D01*
X19454762Y23431667D01*
X19359524Y23526905D01*
X19311905Y23622143D01*
X19264286Y22193571D02*
X18597619Y22193571D01*
X19645238Y22431667D02*
X18930952Y22669762D01*
X18930952Y22050714D01*
X21185238Y24574524D02*
X21137619Y24431667D01*
X21137619Y24193571D01*
X21185238Y24098333D01*
X21232857Y24050714D01*
X21328095Y24003095D01*
X21423333Y24003095D01*
X21518571Y24050714D01*
X21566190Y24098333D01*
X21613810Y24193571D01*
X21661429Y24384048D01*
X21709048Y24479286D01*
X21756667Y24526905D01*
X21851905Y24574524D01*
X21947143Y24574524D01*
X22042381Y24526905D01*
X22090000Y24479286D01*
X22137619Y24384048D01*
X22137619Y24145952D01*
X22090000Y24003095D01*
X21137619Y23050714D02*
X21137619Y23622143D01*
X21137619Y23336429D02*
X22137619Y23336429D01*
X21994762Y23431667D01*
X21899524Y23526905D01*
X21851905Y23622143D01*
X22137619Y22717381D02*
X22137619Y22098333D01*
X21756667Y22431667D01*
X21756667Y22288809D01*
X21709048Y22193571D01*
X21661429Y22145952D01*
X21566190Y22098333D01*
X21328095Y22098333D01*
X21232857Y22145952D01*
X21185238Y22193571D01*
X21137619Y22288809D01*
X21137619Y22574524D01*
X21185238Y22669762D01*
X21232857Y22717381D01*
X23725238Y24574524D02*
X23677619Y24431667D01*
X23677619Y24193571D01*
X23725238Y24098333D01*
X23772857Y24050714D01*
X23868095Y24003095D01*
X23963333Y24003095D01*
X24058571Y24050714D01*
X24106190Y24098333D01*
X24153810Y24193571D01*
X24201429Y24384048D01*
X24249048Y24479286D01*
X24296667Y24526905D01*
X24391905Y24574524D01*
X24487143Y24574524D01*
X24582381Y24526905D01*
X24630000Y24479286D01*
X24677619Y24384048D01*
X24677619Y24145952D01*
X24630000Y24003095D01*
X23677619Y23050714D02*
X23677619Y23622143D01*
X23677619Y23336429D02*
X24677619Y23336429D01*
X24534762Y23431667D01*
X24439524Y23526905D01*
X24391905Y23622143D01*
X24582381Y22669762D02*
X24630000Y22622143D01*
X24677619Y22526905D01*
X24677619Y22288809D01*
X24630000Y22193571D01*
X24582381Y22145952D01*
X24487143Y22098333D01*
X24391905Y22098333D01*
X24249048Y22145952D01*
X23677619Y22717381D01*
X23677619Y22098333D01*
X26265238Y24574524D02*
X26217619Y24431667D01*
X26217619Y24193571D01*
X26265238Y24098333D01*
X26312857Y24050714D01*
X26408095Y24003095D01*
X26503333Y24003095D01*
X26598571Y24050714D01*
X26646190Y24098333D01*
X26693810Y24193571D01*
X26741429Y24384048D01*
X26789048Y24479286D01*
X26836667Y24526905D01*
X26931905Y24574524D01*
X27027143Y24574524D01*
X27122381Y24526905D01*
X27170000Y24479286D01*
X27217619Y24384048D01*
X27217619Y24145952D01*
X27170000Y24003095D01*
X26217619Y23050714D02*
X26217619Y23622143D01*
X26217619Y23336429D02*
X27217619Y23336429D01*
X27074762Y23431667D01*
X26979524Y23526905D01*
X26931905Y23622143D01*
X26217619Y22098333D02*
X26217619Y22669762D01*
X26217619Y22384048D02*
X27217619Y22384048D01*
X27074762Y22479286D01*
X26979524Y22574524D01*
X26931905Y22669762D01*
X28805238Y24574524D02*
X28757619Y24431667D01*
X28757619Y24193571D01*
X28805238Y24098333D01*
X28852857Y24050714D01*
X28948095Y24003095D01*
X29043333Y24003095D01*
X29138571Y24050714D01*
X29186190Y24098333D01*
X29233810Y24193571D01*
X29281429Y24384048D01*
X29329048Y24479286D01*
X29376667Y24526905D01*
X29471905Y24574524D01*
X29567143Y24574524D01*
X29662381Y24526905D01*
X29710000Y24479286D01*
X29757619Y24384048D01*
X29757619Y24145952D01*
X29710000Y24003095D01*
X28757619Y23050714D02*
X28757619Y23622143D01*
X28757619Y23336429D02*
X29757619Y23336429D01*
X29614762Y23431667D01*
X29519524Y23526905D01*
X29471905Y23622143D01*
X29757619Y22431667D02*
X29757619Y22336428D01*
X29710000Y22241190D01*
X29662381Y22193571D01*
X29567143Y22145952D01*
X29376667Y22098333D01*
X29138571Y22098333D01*
X28948095Y22145952D01*
X28852857Y22193571D01*
X28805238Y22241190D01*
X28757619Y22336428D01*
X28757619Y22431667D01*
X28805238Y22526905D01*
X28852857Y22574524D01*
X28948095Y22622143D01*
X29138571Y22669762D01*
X29376667Y22669762D01*
X29567143Y22622143D01*
X29662381Y22574524D01*
X29710000Y22526905D01*
X29757619Y22431667D01*
X31345238Y24574524D02*
X31297619Y24431667D01*
X31297619Y24193571D01*
X31345238Y24098333D01*
X31392857Y24050714D01*
X31488095Y24003095D01*
X31583333Y24003095D01*
X31678571Y24050714D01*
X31726190Y24098333D01*
X31773810Y24193571D01*
X31821429Y24384048D01*
X31869048Y24479286D01*
X31916667Y24526905D01*
X32011905Y24574524D01*
X32107143Y24574524D01*
X32202381Y24526905D01*
X32250000Y24479286D01*
X32297619Y24384048D01*
X32297619Y24145952D01*
X32250000Y24003095D01*
X31297619Y23526905D02*
X31297619Y23336429D01*
X31345238Y23241190D01*
X31392857Y23193571D01*
X31535714Y23098333D01*
X31726190Y23050714D01*
X32107143Y23050714D01*
X32202381Y23098333D01*
X32250000Y23145952D01*
X32297619Y23241190D01*
X32297619Y23431667D01*
X32250000Y23526905D01*
X32202381Y23574524D01*
X32107143Y23622143D01*
X31869048Y23622143D01*
X31773810Y23574524D01*
X31726190Y23526905D01*
X31678571Y23431667D01*
X31678571Y23241190D01*
X31726190Y23145952D01*
X31773810Y23098333D01*
X31869048Y23050714D01*
X33885238Y24574524D02*
X33837619Y24431667D01*
X33837619Y24193571D01*
X33885238Y24098333D01*
X33932857Y24050714D01*
X34028095Y24003095D01*
X34123333Y24003095D01*
X34218571Y24050714D01*
X34266190Y24098333D01*
X34313810Y24193571D01*
X34361429Y24384048D01*
X34409048Y24479286D01*
X34456667Y24526905D01*
X34551905Y24574524D01*
X34647143Y24574524D01*
X34742381Y24526905D01*
X34790000Y24479286D01*
X34837619Y24384048D01*
X34837619Y24145952D01*
X34790000Y24003095D01*
X34409048Y23431667D02*
X34456667Y23526905D01*
X34504286Y23574524D01*
X34599524Y23622143D01*
X34647143Y23622143D01*
X34742381Y23574524D01*
X34790000Y23526905D01*
X34837619Y23431667D01*
X34837619Y23241190D01*
X34790000Y23145952D01*
X34742381Y23098333D01*
X34647143Y23050714D01*
X34599524Y23050714D01*
X34504286Y23098333D01*
X34456667Y23145952D01*
X34409048Y23241190D01*
X34409048Y23431667D01*
X34361429Y23526905D01*
X34313810Y23574524D01*
X34218571Y23622143D01*
X34028095Y23622143D01*
X33932857Y23574524D01*
X33885238Y23526905D01*
X33837619Y23431667D01*
X33837619Y23241190D01*
X33885238Y23145952D01*
X33932857Y23098333D01*
X34028095Y23050714D01*
X34218571Y23050714D01*
X34313810Y23098333D01*
X34361429Y23145952D01*
X34409048Y23241190D01*
X36425238Y24574524D02*
X36377619Y24431667D01*
X36377619Y24193571D01*
X36425238Y24098333D01*
X36472857Y24050714D01*
X36568095Y24003095D01*
X36663333Y24003095D01*
X36758571Y24050714D01*
X36806190Y24098333D01*
X36853810Y24193571D01*
X36901429Y24384048D01*
X36949048Y24479286D01*
X36996667Y24526905D01*
X37091905Y24574524D01*
X37187143Y24574524D01*
X37282381Y24526905D01*
X37330000Y24479286D01*
X37377619Y24384048D01*
X37377619Y24145952D01*
X37330000Y24003095D01*
X37377619Y23669762D02*
X37377619Y23003095D01*
X36377619Y23431667D01*
X39870000Y24003095D02*
X39917619Y24098333D01*
X39917619Y24241190D01*
X39870000Y24384048D01*
X39774762Y24479286D01*
X39679524Y24526905D01*
X39489048Y24574524D01*
X39346190Y24574524D01*
X39155714Y24526905D01*
X39060476Y24479286D01*
X38965238Y24384048D01*
X38917619Y24241190D01*
X38917619Y24145952D01*
X38965238Y24003095D01*
X39012857Y23955476D01*
X39346190Y23955476D01*
X39346190Y24145952D01*
X38917619Y23526905D02*
X39917619Y23526905D01*
X38917619Y22955476D01*
X39917619Y22955476D01*
X38917619Y22479286D02*
X39917619Y22479286D01*
X39917619Y22241191D01*
X39870000Y22098333D01*
X39774762Y22003095D01*
X39679524Y21955476D01*
X39489048Y21907857D01*
X39346190Y21907857D01*
X39155714Y21955476D01*
X39060476Y22003095D01*
X38965238Y22098333D01*
X38917619Y22241191D01*
X38917619Y22479286D01*
X42457619Y24669762D02*
X41457619Y24336429D01*
X42457619Y24003095D01*
X41505238Y23241190D02*
X41457619Y23336428D01*
X41457619Y23526905D01*
X41505238Y23622143D01*
X41552857Y23669762D01*
X41648095Y23717381D01*
X41933810Y23717381D01*
X42029048Y23669762D01*
X42076667Y23622143D01*
X42124286Y23526905D01*
X42124286Y23336428D01*
X42076667Y23241190D01*
X41505238Y22384047D02*
X41457619Y22479285D01*
X41457619Y22669762D01*
X41505238Y22765000D01*
X41552857Y22812619D01*
X41648095Y22860238D01*
X41933810Y22860238D01*
X42029048Y22812619D01*
X42076667Y22765000D01*
X42124286Y22669762D01*
X42124286Y22479285D01*
X42076667Y22384047D01*
D12*
X19162145Y6306429D02*
X18662145Y7020714D01*
X18305002Y6306429D02*
X18305002Y7806429D01*
X18876430Y7806429D01*
X19019288Y7735000D01*
X19090716Y7663571D01*
X19162145Y7520714D01*
X19162145Y7306429D01*
X19090716Y7163571D01*
X19019288Y7092143D01*
X18876430Y7020714D01*
X18305002Y7020714D01*
X20376430Y6377857D02*
X20233573Y6306429D01*
X19947859Y6306429D01*
X19805002Y6377857D01*
X19733573Y6520714D01*
X19733573Y7092143D01*
X19805002Y7235000D01*
X19947859Y7306429D01*
X20233573Y7306429D01*
X20376430Y7235000D01*
X20447859Y7092143D01*
X20447859Y6949286D01*
X19733573Y6806429D01*
X20947859Y7306429D02*
X21305002Y6306429D01*
X21662144Y7306429D01*
X22233573Y6449286D02*
X22305001Y6377857D01*
X22233573Y6306429D01*
X22162144Y6377857D01*
X22233573Y6449286D01*
X22233573Y6306429D01*
X23447859Y7092143D02*
X23662145Y7020714D01*
X23733573Y6949286D01*
X23805002Y6806429D01*
X23805002Y6592143D01*
X23733573Y6449286D01*
X23662145Y6377857D01*
X23519287Y6306429D01*
X22947859Y6306429D01*
X22947859Y7806429D01*
X23447859Y7806429D01*
X23590716Y7735000D01*
X23662145Y7663571D01*
X23733573Y7520714D01*
X23733573Y7377857D01*
X23662145Y7235000D01*
X23590716Y7163571D01*
X23447859Y7092143D01*
X22947859Y7092143D01*
X25519287Y7663571D02*
X25590716Y7735000D01*
X25733573Y7806429D01*
X26090716Y7806429D01*
X26233573Y7735000D01*
X26305002Y7663571D01*
X26376430Y7520714D01*
X26376430Y7377857D01*
X26305002Y7163571D01*
X25447859Y6306429D01*
X26376430Y6306429D01*
X27305001Y7806429D02*
X27447858Y7806429D01*
X27590715Y7735000D01*
X27662144Y7663571D01*
X27733573Y7520714D01*
X27805001Y7235000D01*
X27805001Y6877857D01*
X27733573Y6592143D01*
X27662144Y6449286D01*
X27590715Y6377857D01*
X27447858Y6306429D01*
X27305001Y6306429D01*
X27162144Y6377857D01*
X27090715Y6449286D01*
X27019287Y6592143D01*
X26947858Y6877857D01*
X26947858Y7235000D01*
X27019287Y7520714D01*
X27090715Y7663571D01*
X27162144Y7735000D01*
X27305001Y7806429D01*
X29233572Y6306429D02*
X28376429Y6306429D01*
X28805001Y6306429D02*
X28805001Y7806429D01*
X28662144Y7592143D01*
X28519286Y7449286D01*
X28376429Y7377857D01*
X30519286Y7306429D02*
X30519286Y6306429D01*
X30162143Y7877857D02*
X29805000Y6806429D01*
X30733572Y6806429D01*
X32090714Y6306429D02*
X31233571Y6306429D01*
X31662143Y6306429D02*
X31662143Y7806429D01*
X31519286Y7592143D01*
X31376428Y7449286D01*
X31233571Y7377857D01*
X33019285Y7806429D02*
X33162142Y7806429D01*
X33304999Y7735000D01*
X33376428Y7663571D01*
X33447857Y7520714D01*
X33519285Y7235000D01*
X33519285Y6877857D01*
X33447857Y6592143D01*
X33376428Y6449286D01*
X33304999Y6377857D01*
X33162142Y6306429D01*
X33019285Y6306429D01*
X32876428Y6377857D01*
X32804999Y6449286D01*
X32733571Y6592143D01*
X32662142Y6877857D01*
X32662142Y7235000D01*
X32733571Y7520714D01*
X32804999Y7663571D01*
X32876428Y7735000D01*
X33019285Y7806429D01*
X34090713Y7663571D02*
X34162142Y7735000D01*
X34304999Y7806429D01*
X34662142Y7806429D01*
X34804999Y7735000D01*
X34876428Y7663571D01*
X34947856Y7520714D01*
X34947856Y7377857D01*
X34876428Y7163571D01*
X34019285Y6306429D01*
X34947856Y6306429D01*
X35519284Y7663571D02*
X35590713Y7735000D01*
X35733570Y7806429D01*
X36090713Y7806429D01*
X36233570Y7735000D01*
X36304999Y7663571D01*
X36376427Y7520714D01*
X36376427Y7377857D01*
X36304999Y7163571D01*
X35447856Y6306429D01*
X36376427Y6306429D01*
X18852858Y8997143D02*
X19067144Y8925714D01*
X19138572Y8854286D01*
X19210001Y8711429D01*
X19210001Y8497143D01*
X19138572Y8354286D01*
X19067144Y8282857D01*
X18924286Y8211429D01*
X18352858Y8211429D01*
X18352858Y9711429D01*
X18852858Y9711429D01*
X18995715Y9640000D01*
X19067144Y9568571D01*
X19138572Y9425714D01*
X19138572Y9282857D01*
X19067144Y9140000D01*
X18995715Y9068571D01*
X18852858Y8997143D01*
X18352858Y8997143D01*
X20567144Y8211429D02*
X19852858Y8211429D01*
X19852858Y9711429D01*
X21710001Y9711429D02*
X21424287Y9711429D01*
X21281430Y9640000D01*
X21210001Y9568571D01*
X21067144Y9354286D01*
X20995715Y9068571D01*
X20995715Y8497143D01*
X21067144Y8354286D01*
X21138572Y8282857D01*
X21281430Y8211429D01*
X21567144Y8211429D01*
X21710001Y8282857D01*
X21781430Y8354286D01*
X21852858Y8497143D01*
X21852858Y8854286D01*
X21781430Y8997143D01*
X21710001Y9068571D01*
X21567144Y9140000D01*
X21281430Y9140000D01*
X21138572Y9068571D01*
X21067144Y8997143D01*
X20995715Y8854286D01*
X22781429Y9711429D02*
X22924286Y9711429D01*
X23067143Y9640000D01*
X23138572Y9568571D01*
X23210001Y9425714D01*
X23281429Y9140000D01*
X23281429Y8782857D01*
X23210001Y8497143D01*
X23138572Y8354286D01*
X23067143Y8282857D01*
X22924286Y8211429D01*
X22781429Y8211429D01*
X22638572Y8282857D01*
X22567143Y8354286D01*
X22495715Y8497143D01*
X22424286Y8782857D01*
X22424286Y9140000D01*
X22495715Y9425714D01*
X22567143Y9568571D01*
X22638572Y9640000D01*
X22781429Y9711429D01*
X24210000Y9711429D02*
X24352857Y9711429D01*
X24495714Y9640000D01*
X24567143Y9568571D01*
X24638572Y9425714D01*
X24710000Y9140000D01*
X24710000Y8782857D01*
X24638572Y8497143D01*
X24567143Y8354286D01*
X24495714Y8282857D01*
X24352857Y8211429D01*
X24210000Y8211429D01*
X24067143Y8282857D01*
X23995714Y8354286D01*
X23924286Y8497143D01*
X23852857Y8782857D01*
X23852857Y9140000D01*
X23924286Y9425714D01*
X23995714Y9568571D01*
X24067143Y9640000D01*
X24210000Y9711429D01*
X26495714Y8211429D02*
X26495714Y9711429D01*
X26995714Y8640000D01*
X27495714Y9711429D01*
X27495714Y8211429D01*
X28424286Y8211429D02*
X28281428Y8282857D01*
X28210000Y8354286D01*
X28138571Y8497143D01*
X28138571Y8925714D01*
X28210000Y9068571D01*
X28281428Y9140000D01*
X28424286Y9211429D01*
X28638571Y9211429D01*
X28781428Y9140000D01*
X28852857Y9068571D01*
X28924286Y8925714D01*
X28924286Y8497143D01*
X28852857Y8354286D01*
X28781428Y8282857D01*
X28638571Y8211429D01*
X28424286Y8211429D01*
X30210000Y9211429D02*
X30210000Y8211429D01*
X29567143Y9211429D02*
X29567143Y8425714D01*
X29638571Y8282857D01*
X29781429Y8211429D01*
X29995714Y8211429D01*
X30138571Y8282857D01*
X30210000Y8354286D01*
X30924286Y9211429D02*
X30924286Y8211429D01*
X30924286Y9068571D02*
X30995714Y9140000D01*
X31138572Y9211429D01*
X31352857Y9211429D01*
X31495714Y9140000D01*
X31567143Y8997143D01*
X31567143Y8211429D01*
X32067143Y9211429D02*
X32638572Y9211429D01*
X32281429Y9711429D02*
X32281429Y8425714D01*
X32352857Y8282857D01*
X32495715Y8211429D01*
X32638572Y8211429D01*
X34781429Y8997143D02*
X34995715Y8925714D01*
X35067143Y8854286D01*
X35138572Y8711429D01*
X35138572Y8497143D01*
X35067143Y8354286D01*
X34995715Y8282857D01*
X34852857Y8211429D01*
X34281429Y8211429D01*
X34281429Y9711429D01*
X34781429Y9711429D01*
X34924286Y9640000D01*
X34995715Y9568571D01*
X35067143Y9425714D01*
X35067143Y9282857D01*
X34995715Y9140000D01*
X34924286Y9068571D01*
X34781429Y8997143D01*
X34281429Y8997143D01*
X35995715Y8211429D02*
X35852857Y8282857D01*
X35781429Y8354286D01*
X35710000Y8497143D01*
X35710000Y8925714D01*
X35781429Y9068571D01*
X35852857Y9140000D01*
X35995715Y9211429D01*
X36210000Y9211429D01*
X36352857Y9140000D01*
X36424286Y9068571D01*
X36495715Y8925714D01*
X36495715Y8497143D01*
X36424286Y8354286D01*
X36352857Y8282857D01*
X36210000Y8211429D01*
X35995715Y8211429D01*
X37781429Y8211429D02*
X37781429Y8997143D01*
X37710000Y9140000D01*
X37567143Y9211429D01*
X37281429Y9211429D01*
X37138572Y9140000D01*
X37781429Y8282857D02*
X37638572Y8211429D01*
X37281429Y8211429D01*
X37138572Y8282857D01*
X37067143Y8425714D01*
X37067143Y8568571D01*
X37138572Y8711429D01*
X37281429Y8782857D01*
X37638572Y8782857D01*
X37781429Y8854286D01*
X38495715Y8211429D02*
X38495715Y9211429D01*
X38495715Y8925714D02*
X38567143Y9068571D01*
X38638572Y9140000D01*
X38781429Y9211429D01*
X38924286Y9211429D01*
X40067143Y8211429D02*
X40067143Y9711429D01*
X40067143Y8282857D02*
X39924286Y8211429D01*
X39638572Y8211429D01*
X39495714Y8282857D01*
X39424286Y8354286D01*
X39352857Y8497143D01*
X39352857Y8925714D01*
X39424286Y9068571D01*
X39495714Y9140000D01*
X39638572Y9211429D01*
X39924286Y9211429D01*
X40067143Y9140000D01*
D13*
X43180000Y25400000D02*
X0Y25400000D01*
X0Y25400000D02*
X0Y27940000D01*
X0Y27940000D02*
X43180000Y27940000D01*
X43180000Y27940000D02*
X43180000Y25400000D01*
X40640000Y25400000D02*
X40640000Y27940000D01*
X39500000Y10010000D02*
X39500000Y10010000D01*
X42040000Y10010000D02*
X39500000Y10010000D01*
X39500000Y10010000D02*
X39500000Y10010000D01*
X39500000Y10010000D02*
X39500000Y20170000D01*
X39500000Y20170000D02*
X42040000Y20170000D01*
X42040000Y20170000D02*
X42040000Y10010000D01*
X42040000Y12550000D02*
X39500000Y12550000D01*
X43180000Y0D02*
X0Y0D01*
X0Y0D02*
X0Y2540000D01*
X0Y2540000D02*
X43180000Y2540000D01*
X43180000Y2540000D02*
X43180000Y0D01*
X40640000Y0D02*
X40640000Y2540000D01*
D14*
X33500000Y17820000D02*
X36040000Y17820000D01*
X33500000Y20360000D02*
X36040000Y20360000D01*
D13*
X33500000Y17820000D02*
X33500000Y20360000D01*
X36040000Y20360000D02*
X36040000Y17820000D01*
D14*
X36000000Y17820000D02*
X38540000Y17820000D01*
X36000000Y20360000D02*
X38540000Y20360000D01*
D13*
X36000000Y17820000D02*
X36000000Y20360000D01*
X38540000Y20360000D02*
X38540000Y17820000D01*
D10*
X240000Y20320000D02*
X-3760000Y20320000D01*
X-3760000Y20320000D02*
X-3760000Y7820000D01*
X-3760000Y7820000D02*
X140000Y7820000D01*
X15240000Y7820000D02*
X15240000Y20320000D01*
X15240000Y20320000D02*
X13440000Y20320000D01*
X15240000Y7820000D02*
X13440000Y7820000D01*
X16840000Y9670000D02*
X17640000Y10070000D01*
X17640000Y10070000D02*
X17640000Y9270000D01*
X17640000Y9270000D02*
X16840000Y9670000D01*
X16740000Y6320000D02*
X-4260000Y6320000D01*
X-4260000Y6320000D02*
X-4260000Y21820000D01*
X-4260000Y21820000D02*
X16740000Y21820000D01*
X16740000Y21820000D02*
X16740000Y6320000D01*
D15*
X38954800Y10287602D02*
X37219980Y10287602D01*
X37219980Y10701743D01*
X37302590Y10805278D01*
X37385200Y10857046D01*
X37550421Y10908814D01*
X37798253Y10908814D01*
X37963474Y10857046D01*
X38046084Y10805278D01*
X38128695Y10701743D01*
X38128695Y10287602D01*
X37385200Y11322954D02*
X37302590Y11374722D01*
X37219980Y11478257D01*
X37219980Y11737095D01*
X37302590Y11840631D01*
X37385200Y11892398D01*
X37550421Y11944166D01*
X37715642Y11944166D01*
X37963474Y11892398D01*
X38954800Y11271187D01*
X38954800Y11944166D01*
D13*
D15*
X33941718Y17137239D02*
X34562930Y17137239D01*
X34252324Y15407499D02*
X34252324Y17137239D01*
X35494747Y15407499D02*
X34873535Y15407499D01*
X35184141Y15407499D02*
X35184141Y17137239D01*
X35080606Y16890133D01*
X34977071Y16725396D01*
X34873535Y16643027D01*
X36441718Y17237239D02*
X37062930Y17237239D01*
X36752324Y15507499D02*
X36752324Y17237239D01*
X37373535Y17072501D02*
X37425303Y17154870D01*
X37528838Y17237239D01*
X37787676Y17237239D01*
X37891212Y17154870D01*
X37942979Y17072501D01*
X37994747Y16907764D01*
X37994747Y16743027D01*
X37942979Y16495921D01*
X37321768Y15507499D01*
X37994747Y15507499D01*
D10*
X17308095Y11737619D02*
X17308095Y10928095D01*
X17355714Y10832857D01*
X17403333Y10785238D01*
X17498571Y10737619D01*
X17689048Y10737619D01*
X17784286Y10785238D01*
X17831905Y10832857D01*
X17879524Y10928095D01*
X17879524Y11737619D01*
X18879524Y10737619D02*
X18308095Y10737619D01*
X18593809Y10737619D02*
X18593809Y11737619D01*
X18498571Y11594762D01*
X18403333Y11499524D01*
X18308095Y11451905D01*
M02*
