%FSLAX46Y46*%
G04 Gerber Fmt 4.6, Leading zero omitted, Abs format (unit mm)*
G04 Created by KiCad (PCBNEW (2014-10-02 BZR 5162)-product) date 2014/10/23 21:02:27*
%MOMM*%
G01*
G04 APERTURE LIST*
%ADD10C,0.150000*%
%ADD11C,0.127000*%
%ADD12C,0.149860*%
%ADD13C,0.114300*%
%ADD14C,0.119380*%
G04 APERTURE END LIST*
D10*
D11*
X35000000Y17479000D02*
X37540000Y17479000D01*
X37540000Y15701000D02*
X35000000Y15701000D01*
X37540000Y15701000D02*
X37540000Y17479000D01*
X35000000Y17479000D02*
X35000000Y15701000D01*
X10294620Y9461500D02*
X9588500Y9461500D01*
X9588500Y9461500D02*
X9588500Y10858500D01*
X9588500Y10858500D02*
X10294620Y10858500D01*
X12001500Y9461500D02*
X11295380Y9461500D01*
X12001500Y9461500D02*
X12001500Y10858500D01*
X12001500Y10858500D02*
X11295380Y10858500D01*
X38270380Y14288500D02*
X38976500Y14288500D01*
X38976500Y14288500D02*
X38976500Y12891500D01*
X38976500Y12891500D02*
X38270380Y12891500D01*
X36563500Y14288500D02*
X37269620Y14288500D01*
X36563500Y14288500D02*
X36563500Y12891500D01*
X36563500Y12891500D02*
X37269620Y12891500D01*
D12*
X32270440Y20489420D02*
X32270440Y24690580D01*
X31969780Y20489420D02*
X31969780Y24690580D01*
X40570220Y20489420D02*
X40570220Y24690580D01*
X38266440Y24695660D02*
X40552440Y24695660D01*
X40552440Y20484340D02*
X38266440Y20484340D01*
X34271020Y20484340D02*
X31985020Y20484340D01*
X31987560Y24695660D02*
X34273560Y24695660D01*
D11*
X17195000Y15231000D02*
X23545000Y15231000D01*
X17195000Y19549000D02*
X23545000Y19549000D01*
X17195000Y20184000D02*
X17195000Y14596000D01*
X17195000Y14596000D02*
X23545000Y14596000D01*
X23545000Y14596000D02*
X23545000Y20184000D01*
X23545000Y20184000D02*
X17195000Y20184000D01*
X36796143Y15320000D02*
X36868714Y15368381D01*
X36977571Y15368381D01*
X37086428Y15320000D01*
X37159000Y15223238D01*
X37195285Y15126476D01*
X37231571Y14932952D01*
X37231571Y14787810D01*
X37195285Y14594286D01*
X37159000Y14497524D01*
X37086428Y14400762D01*
X36977571Y14352381D01*
X36905000Y14352381D01*
X36796143Y14400762D01*
X36759857Y14449143D01*
X36759857Y14787810D01*
X36905000Y14787810D01*
X36469571Y14400762D02*
X36360714Y14352381D01*
X36179285Y14352381D01*
X36106714Y14400762D01*
X36070428Y14449143D01*
X36034143Y14545905D01*
X36034143Y14642667D01*
X36070428Y14739429D01*
X36106714Y14787810D01*
X36179285Y14836190D01*
X36324428Y14884571D01*
X36397000Y14932952D01*
X36433285Y14981333D01*
X36469571Y15078095D01*
X36469571Y15174857D01*
X36433285Y15271619D01*
X36397000Y15320000D01*
X36324428Y15368381D01*
X36143000Y15368381D01*
X36034143Y15320000D01*
X35308429Y14352381D02*
X35743857Y14352381D01*
X35526143Y14352381D02*
X35526143Y15368381D01*
X35598714Y15223238D01*
X35671286Y15126476D01*
X35743857Y15078095D01*
D13*
X11021362Y10236200D02*
X10783086Y10388600D01*
X11021362Y10497457D02*
X10520982Y10497457D01*
X10520982Y10323285D01*
X10544810Y10279743D01*
X10568638Y10257971D01*
X10616293Y10236200D01*
X10687776Y10236200D01*
X10735431Y10257971D01*
X10759259Y10279743D01*
X10783086Y10323285D01*
X10783086Y10497457D01*
X11021362Y9800771D02*
X11021362Y10062028D01*
X11021362Y9931400D02*
X10520982Y9931400D01*
X10592465Y9974943D01*
X10640120Y10018485D01*
X10663948Y10062028D01*
X36096362Y13166200D02*
X35858086Y13318600D01*
X36096362Y13427457D02*
X35595982Y13427457D01*
X35595982Y13253285D01*
X35619810Y13209743D01*
X35643638Y13187971D01*
X35691293Y13166200D01*
X35762776Y13166200D01*
X35810431Y13187971D01*
X35834259Y13209743D01*
X35858086Y13253285D01*
X35858086Y13427457D01*
X35643638Y12992028D02*
X35619810Y12970257D01*
X35595982Y12926714D01*
X35595982Y12817857D01*
X35619810Y12774314D01*
X35643638Y12752543D01*
X35691293Y12730771D01*
X35738948Y12730771D01*
X35810431Y12752543D01*
X36096362Y13013800D01*
X36096362Y12730771D01*
D11*
X31472167Y23117000D02*
X31048833Y23371000D01*
X31472167Y23552428D02*
X30583167Y23552428D01*
X30583167Y23262143D01*
X30625500Y23189571D01*
X30667833Y23153286D01*
X30752500Y23117000D01*
X30879500Y23117000D01*
X30964167Y23153286D01*
X31006500Y23189571D01*
X31048833Y23262143D01*
X31048833Y23552428D01*
X30583167Y22863000D02*
X30583167Y22391286D01*
X30921833Y22645286D01*
X30921833Y22536428D01*
X30964167Y22463857D01*
X31006500Y22427571D01*
X31091167Y22391286D01*
X31302833Y22391286D01*
X31387500Y22427571D01*
X31429833Y22463857D01*
X31472167Y22536428D01*
X31472167Y22754143D01*
X31429833Y22826714D01*
X31387500Y22863000D01*
D10*
X31936726Y20238760D02*
X31403393Y20238760D01*
X31670060Y19972093D02*
X31670060Y20505427D01*
D14*
X16738707Y17473396D02*
X16762535Y17497224D01*
X16786362Y17568707D01*
X16786362Y17616362D01*
X16762535Y17687845D01*
X16714880Y17735500D01*
X16667224Y17759328D01*
X16571914Y17783156D01*
X16500431Y17783156D01*
X16405120Y17759328D01*
X16357465Y17735500D01*
X16309810Y17687845D01*
X16285982Y17616362D01*
X16285982Y17568707D01*
X16309810Y17497224D01*
X16333638Y17473396D01*
X16786362Y16996844D02*
X16786362Y17282776D01*
X16786362Y17139810D02*
X16285982Y17139810D01*
X16357465Y17187465D01*
X16405120Y17235120D01*
X16428948Y17282776D01*
M02*
