%FSLAX46Y46*%
G04 Gerber Fmt 4.6, Leading zero omitted, Abs format (unit mm)*
G04 Created by KiCad (PCBNEW (2014-10-02 BZR 5162)-product) date 2014/10/23 21:02:27*
%MOMM*%
G01*
G04 APERTURE LIST*
%ADD10C,0.150000*%
%ADD11R,0.965200X1.270000*%
%ADD12R,1.397000X1.397000*%
%ADD13C,1.397000*%
%ADD14R,0.635000X1.143000*%
%ADD15R,1.998980X2.999740*%
%ADD16R,6.799580X1.849120*%
%ADD17C,0.889000*%
%ADD18C,0.500000*%
%ADD19C,0.254000*%
%ADD20C,0.300000*%
%ADD21C,0.200000*%
G04 APERTURE END LIST*
D10*
D11*
X35635000Y16590000D03*
X36905000Y16590000D03*
D12*
X41910000Y26670000D03*
D13*
X39370000Y26670000D03*
X36830000Y26670000D03*
X34290000Y26670000D03*
X31750000Y26670000D03*
X29210000Y26670000D03*
X26670000Y26670000D03*
X24130000Y26670000D03*
X21590000Y26670000D03*
X19050000Y26670000D03*
X16510000Y26670000D03*
X13970000Y26670000D03*
X11430000Y26670000D03*
X8890000Y26670000D03*
X6350000Y26670000D03*
X3810000Y26670000D03*
X1270000Y26670000D03*
D12*
X40770000Y11280000D03*
D13*
X40770000Y13820000D03*
X40770000Y16360000D03*
X40770000Y18900000D03*
D12*
X41910000Y1270000D03*
D13*
X39370000Y1270000D03*
X36830000Y1270000D03*
X34290000Y1270000D03*
X31750000Y1270000D03*
X29210000Y1270000D03*
X26670000Y1270000D03*
X24130000Y1270000D03*
X21590000Y1270000D03*
X19050000Y1270000D03*
X16510000Y1270000D03*
X13970000Y1270000D03*
X11430000Y1270000D03*
X8890000Y1270000D03*
X6350000Y1270000D03*
X3810000Y1270000D03*
X1270000Y1270000D03*
D14*
X10033000Y10160000D03*
X11557000Y10160000D03*
X38532000Y13590000D03*
X37008000Y13590000D03*
D15*
X33270260Y22590000D03*
X39269740Y22590000D03*
D12*
X34770000Y19090000D03*
X37270000Y19090000D03*
D16*
X20370000Y14814440D03*
X20370000Y19965560D03*
D17*
X8889000Y9817400D03*
X28632000Y18576800D03*
X27484000Y20410500D03*
X12585700Y13556800D03*
X33815200Y13674200D03*
X23308000Y17190400D03*
X13685300Y12658100D03*
X30581500Y12829300D03*
X1370000Y18390000D03*
X12794000Y9721800D03*
X7140000Y9409800D03*
X2340000Y9423900D03*
X747000Y9474300D03*
X21450000Y17890800D03*
X16861000Y11305800D03*
X9540000Y18719800D03*
D18*
X39270000Y22590000D02*
X39270000Y22589900D01*
X39270000Y22590000D02*
X39270000Y22589900D01*
X39370000Y26670000D02*
X39270000Y26569700D01*
X39270000Y26569700D02*
X39270000Y22590000D01*
X39270000Y22589900D02*
X38270000Y21590300D01*
X38270000Y21590300D02*
X38270000Y21090000D01*
X38270000Y21090000D02*
X37270000Y20090000D01*
X37270000Y20090000D02*
X37270000Y19090000D01*
X37270000Y19090000D02*
X37270000Y17887200D01*
X37270000Y17887200D02*
X37063000Y17887200D01*
X37063000Y17887200D02*
X36905000Y17729300D01*
X36905000Y17729300D02*
X36905000Y16590000D01*
D19*
X10033000Y10160000D02*
X9338000Y10160000D01*
X9338000Y10160000D02*
X8996000Y9817400D01*
X8996000Y9817400D02*
X8889000Y9817400D01*
D20*
X28632000Y18576800D02*
X27484000Y19724000D01*
X27484000Y19724000D02*
X27484000Y20410500D01*
X33815200Y13674200D02*
X24402500Y13674200D01*
X24402500Y13674200D02*
X24210200Y13481900D01*
X24210200Y13481900D02*
X14352100Y13481900D01*
X14352100Y13481900D02*
X14277200Y13556800D01*
X14277200Y13556800D02*
X12585700Y13556800D01*
X38532000Y13590000D02*
X40540000Y13590000D01*
X40540000Y13590000D02*
X40770000Y13820000D01*
D18*
X20370000Y14814400D02*
X24274000Y14814400D01*
X24274000Y14814400D02*
X24274000Y16224100D01*
X24274000Y16224100D02*
X23308000Y17190400D01*
D20*
X30581500Y12829300D02*
X13856500Y12829300D01*
X13856500Y12829300D02*
X13685300Y12658100D01*
D18*
X33270000Y22590000D02*
X34270000Y21590300D01*
X34270000Y21590300D02*
X34270000Y21090000D01*
X34270000Y21090000D02*
X34770000Y20590000D01*
X34770000Y20590000D02*
X34770000Y19090000D01*
D21*
G36*
X42830000Y2241975D02*
X42806759Y2265215D01*
X42678120Y2318500D01*
X42538881Y2318500D01*
X42092556Y2318500D01*
X42092556Y18740859D01*
X42052783Y19259092D01*
X41930981Y19553148D01*
X41706213Y19618424D01*
X41488424Y19400635D01*
X41488424Y19836213D01*
X41423148Y20060981D01*
X40929141Y20222556D01*
X40410908Y20182783D01*
X40116852Y20060981D01*
X40051576Y19836213D01*
X40770000Y19117789D01*
X41488424Y19836213D01*
X41488424Y19400635D01*
X40987789Y18900000D01*
X41706213Y18181576D01*
X41930981Y18246852D01*
X42092556Y18740859D01*
X42092556Y2318500D01*
X41818681Y2318500D01*
X41818681Y14027644D01*
X41818681Y16567644D01*
X41659393Y16953151D01*
X41488424Y17124419D01*
X41488424Y17963787D01*
X40770000Y18682211D01*
X40552211Y18464422D01*
X40552211Y18900000D01*
X39833787Y19618424D01*
X39609019Y19553148D01*
X39447444Y19059141D01*
X39487217Y18540908D01*
X39609019Y18246852D01*
X39833787Y18181576D01*
X40552211Y18900000D01*
X40552211Y18464422D01*
X40051576Y17963787D01*
X40116852Y17739019D01*
X40610859Y17577444D01*
X41129092Y17617217D01*
X41423148Y17739019D01*
X41488424Y17963787D01*
X41488424Y17124419D01*
X41364703Y17248356D01*
X40979474Y17408317D01*
X40562356Y17408681D01*
X40176849Y17249393D01*
X39881644Y16954703D01*
X39721683Y16569474D01*
X39721319Y16152356D01*
X39880607Y15766849D01*
X40175297Y15471644D01*
X40560526Y15311683D01*
X40977644Y15311319D01*
X41363151Y15470607D01*
X41658356Y15765297D01*
X41818317Y16150526D01*
X41818681Y16567644D01*
X41818681Y14027644D01*
X41659393Y14413151D01*
X41364703Y14708356D01*
X40979474Y14868317D01*
X40562356Y14868681D01*
X40176849Y14709393D01*
X39881644Y14414703D01*
X39746815Y14090000D01*
X39199500Y14090000D01*
X39199500Y14231119D01*
X39146216Y14359759D01*
X39047759Y14458215D01*
X38919120Y14511500D01*
X38779881Y14511500D01*
X38144881Y14511500D01*
X38016241Y14458216D01*
X37917785Y14359759D01*
X37909628Y14340069D01*
X37840938Y14505904D01*
X37669905Y14676937D01*
X37446439Y14769500D01*
X37314000Y14769500D01*
X37162000Y14617500D01*
X37162000Y13744000D01*
X37182000Y13744000D01*
X37182000Y13436000D01*
X37162000Y13436000D01*
X37162000Y12562500D01*
X37314000Y12410500D01*
X37446439Y12410500D01*
X37669905Y12503063D01*
X37840938Y12674096D01*
X37909628Y12839931D01*
X37917784Y12820241D01*
X38016241Y12721785D01*
X38144880Y12668500D01*
X38284119Y12668500D01*
X38919119Y12668500D01*
X39047759Y12721784D01*
X39146215Y12820241D01*
X39199500Y12948880D01*
X39199500Y13088119D01*
X39199500Y13090000D01*
X40017217Y13090000D01*
X40175297Y12931644D01*
X40560526Y12771683D01*
X40977644Y12771319D01*
X41363151Y12930607D01*
X41658356Y13225297D01*
X41818317Y13610526D01*
X41818681Y14027644D01*
X41818681Y2318500D01*
X41818500Y2318500D01*
X41818500Y10511880D01*
X41818500Y10651119D01*
X41818500Y12048119D01*
X41765216Y12176759D01*
X41666759Y12275215D01*
X41538120Y12328500D01*
X41398881Y12328500D01*
X40001881Y12328500D01*
X39873241Y12275216D01*
X39774785Y12176759D01*
X39721500Y12048120D01*
X39721500Y11908881D01*
X39721500Y10511881D01*
X39774784Y10383241D01*
X39873241Y10284785D01*
X40001880Y10231500D01*
X40141119Y10231500D01*
X41538119Y10231500D01*
X41666759Y10284784D01*
X41765215Y10383241D01*
X41818500Y10511880D01*
X41818500Y2318500D01*
X41141881Y2318500D01*
X41013241Y2265216D01*
X40914785Y2166759D01*
X40861500Y2038120D01*
X40861500Y1898881D01*
X40861500Y501881D01*
X40914784Y373241D01*
X40938025Y350000D01*
X39889076Y350000D01*
X39963151Y380607D01*
X40258356Y675297D01*
X40418317Y1060526D01*
X40418681Y1477644D01*
X40259393Y1863151D01*
X39964703Y2158356D01*
X39579474Y2318317D01*
X39162356Y2318681D01*
X38776849Y2159393D01*
X38481644Y1864703D01*
X38321683Y1479474D01*
X38321319Y1062356D01*
X38480607Y676849D01*
X38775297Y381644D01*
X38851504Y350000D01*
X37349076Y350000D01*
X37423151Y380607D01*
X37718356Y675297D01*
X37878317Y1060526D01*
X37878681Y1477644D01*
X37719393Y1863151D01*
X37424703Y2158356D01*
X37039474Y2318317D01*
X36854000Y2318479D01*
X36854000Y12562500D01*
X36854000Y13436000D01*
X36854000Y13744000D01*
X36854000Y14617500D01*
X36702000Y14769500D01*
X36569561Y14769500D01*
X36346095Y14676937D01*
X36175062Y14505904D01*
X36082500Y14282438D01*
X36082500Y14040561D01*
X36082500Y13896000D01*
X36234500Y13744000D01*
X36854000Y13744000D01*
X36854000Y13436000D01*
X36234500Y13436000D01*
X36082500Y13284000D01*
X36082500Y13139439D01*
X36082500Y12897562D01*
X36175062Y12674096D01*
X36346095Y12503063D01*
X36569561Y12410500D01*
X36702000Y12410500D01*
X36854000Y12562500D01*
X36854000Y2318479D01*
X36622356Y2318681D01*
X36236849Y2159393D01*
X35941644Y1864703D01*
X35781683Y1479474D01*
X35781319Y1062356D01*
X35940607Y676849D01*
X36235297Y381644D01*
X36311504Y350000D01*
X35481000Y350000D01*
X35481000Y15499000D01*
X35481000Y16436000D01*
X34696400Y16436000D01*
X34544400Y16284000D01*
X34544400Y15834061D01*
X34636963Y15610595D01*
X34807996Y15439562D01*
X35031462Y15347000D01*
X35273339Y15347000D01*
X35329000Y15347000D01*
X35481000Y15499000D01*
X35481000Y350000D01*
X34809076Y350000D01*
X34883151Y380607D01*
X35178356Y675297D01*
X35338317Y1060526D01*
X35338681Y1477644D01*
X35179393Y1863151D01*
X34884703Y2158356D01*
X34609837Y2272491D01*
X34609837Y13831542D01*
X34489137Y14123660D01*
X34265836Y14347351D01*
X33973929Y14468562D01*
X33657858Y14468837D01*
X33365740Y14348137D01*
X33191499Y14174200D01*
X33116260Y14174200D01*
X33116260Y20634130D01*
X33116260Y22436000D01*
X33116260Y22744000D01*
X33116260Y24545870D01*
X32964260Y24697870D01*
X32149831Y24697870D01*
X31926365Y24605307D01*
X31755332Y24434274D01*
X31662770Y24210808D01*
X31662770Y23968931D01*
X31662770Y22896000D01*
X31814770Y22744000D01*
X33116260Y22744000D01*
X33116260Y22436000D01*
X31814770Y22436000D01*
X31662770Y22284000D01*
X31662770Y21211069D01*
X31662770Y20969192D01*
X31755332Y20745726D01*
X31926365Y20574693D01*
X32149831Y20482130D01*
X32964260Y20482130D01*
X33116260Y20634130D01*
X33116260Y14174200D01*
X29426637Y14174200D01*
X29426637Y18734142D01*
X29305937Y19026260D01*
X29082636Y19249951D01*
X28790729Y19371162D01*
X28544222Y19371377D01*
X28056185Y19859075D01*
X28157151Y19959864D01*
X28278362Y20251771D01*
X28278637Y20567842D01*
X28157937Y20859960D01*
X27934636Y21083651D01*
X27642729Y21204862D01*
X27326658Y21205137D01*
X27034540Y21084437D01*
X26810849Y20861136D01*
X26689638Y20569229D01*
X26689363Y20253158D01*
X26810063Y19961040D01*
X26984000Y19786800D01*
X26984000Y19724000D01*
X26984017Y19723911D01*
X26984001Y19723826D01*
X27002684Y19630066D01*
X27022060Y19532658D01*
X27022109Y19532584D01*
X27022127Y19532497D01*
X27076639Y19450976D01*
X27130447Y19370447D01*
X27130519Y19370399D01*
X27130570Y19370323D01*
X27837575Y18663811D01*
X27837363Y18419458D01*
X27958063Y18127340D01*
X28181364Y17903649D01*
X28473271Y17782438D01*
X28789342Y17782163D01*
X29081460Y17902863D01*
X29305151Y18126164D01*
X29426362Y18418071D01*
X29426637Y18734142D01*
X29426637Y14174200D01*
X24402500Y14174200D01*
X24211158Y14136140D01*
X24119790Y14075090D01*
X24119790Y14214400D01*
X24274000Y14214400D01*
X24503610Y14260072D01*
X24698264Y14390136D01*
X24828328Y14584790D01*
X24874000Y14814400D01*
X24874000Y16224007D01*
X24874000Y16224100D01*
X24850928Y16340091D01*
X24828363Y16453625D01*
X24828337Y16453664D01*
X24828328Y16453710D01*
X24764479Y16549267D01*
X24698330Y16648299D01*
X24377790Y16968938D01*
X24377790Y18920061D01*
X24377790Y19659560D01*
X24377790Y20271560D01*
X24377790Y21011059D01*
X24285227Y21234525D01*
X24114194Y21405558D01*
X23890728Y21498120D01*
X23648851Y21498120D01*
X20676000Y21498120D01*
X20524000Y21346120D01*
X20524000Y20119560D01*
X24225790Y20119560D01*
X24377790Y20271560D01*
X24377790Y19659560D01*
X24225790Y19811560D01*
X20524000Y19811560D01*
X20524000Y18585000D01*
X20676000Y18433000D01*
X23648851Y18433000D01*
X23890728Y18433000D01*
X24114194Y18525562D01*
X24285227Y18696595D01*
X24377790Y18920061D01*
X24377790Y16968938D01*
X24102546Y17244267D01*
X24102637Y17347742D01*
X23981937Y17639860D01*
X23758636Y17863551D01*
X23466729Y17984762D01*
X23150658Y17985037D01*
X22858540Y17864337D01*
X22634849Y17641036D01*
X22513638Y17349129D01*
X22513363Y17033058D01*
X22634063Y16740940D01*
X22857364Y16517249D01*
X23149271Y16396038D01*
X23253810Y16395948D01*
X23560661Y16089000D01*
X20216000Y16089000D01*
X20216000Y18585000D01*
X20216000Y19811560D01*
X20216000Y20119560D01*
X20216000Y21346120D01*
X20064000Y21498120D01*
X17091149Y21498120D01*
X16849272Y21498120D01*
X16625806Y21405558D01*
X16454773Y21234525D01*
X16362210Y21011059D01*
X16362210Y20271560D01*
X16514210Y20119560D01*
X20216000Y20119560D01*
X20216000Y19811560D01*
X16514210Y19811560D01*
X16362210Y19659560D01*
X16362210Y18920061D01*
X16454773Y18696595D01*
X16625806Y18525562D01*
X16849272Y18433000D01*
X17091149Y18433000D01*
X20064000Y18433000D01*
X20216000Y18585000D01*
X20216000Y16089000D01*
X16900591Y16089000D01*
X16771951Y16035716D01*
X16673495Y15937259D01*
X16620210Y15808620D01*
X16620210Y15669381D01*
X16620210Y13981900D01*
X15290130Y13981900D01*
X15290130Y20468530D01*
X15176189Y20744286D01*
X14965395Y20955448D01*
X14689839Y21069869D01*
X14391470Y21070130D01*
X14115714Y20956189D01*
X13904552Y20745395D01*
X13790131Y20469839D01*
X13789870Y20171470D01*
X13903811Y19895714D01*
X14114605Y19684552D01*
X14390161Y19570131D01*
X14688530Y19569870D01*
X14964286Y19683811D01*
X15175448Y19894605D01*
X15289869Y20170161D01*
X15290130Y20468530D01*
X15290130Y13981900D01*
X14523676Y13981900D01*
X14468542Y14018740D01*
X14277200Y14056800D01*
X13209185Y14056800D01*
X13036336Y14229951D01*
X12744429Y14351162D01*
X12428358Y14351437D01*
X12136240Y14230737D01*
X11912549Y14007436D01*
X11791338Y13715529D01*
X11791063Y13399458D01*
X11911763Y13107340D01*
X12135064Y12883649D01*
X12426971Y12762438D01*
X12743042Y12762163D01*
X12894167Y12824607D01*
X12890938Y12816829D01*
X12890663Y12500758D01*
X13011363Y12208640D01*
X13234664Y11984949D01*
X13526571Y11863738D01*
X13842642Y11863463D01*
X14134760Y11984163D01*
X14358451Y12207464D01*
X14409041Y12329300D01*
X29958014Y12329300D01*
X30130864Y12156149D01*
X30422771Y12034938D01*
X30738842Y12034663D01*
X31030960Y12155363D01*
X31254651Y12378664D01*
X31375862Y12670571D01*
X31376137Y12986642D01*
X31298640Y13174200D01*
X33191714Y13174200D01*
X33364564Y13001049D01*
X33656471Y12879838D01*
X33972542Y12879563D01*
X34264660Y13000263D01*
X34488351Y13223564D01*
X34609562Y13515471D01*
X34609837Y13831542D01*
X34609837Y2272491D01*
X34499474Y2318317D01*
X34082356Y2318681D01*
X33696849Y2159393D01*
X33401644Y1864703D01*
X33241683Y1479474D01*
X33241319Y1062356D01*
X33400607Y676849D01*
X33695297Y381644D01*
X33771504Y350000D01*
X32269076Y350000D01*
X32343151Y380607D01*
X32638356Y675297D01*
X32798317Y1060526D01*
X32798681Y1477644D01*
X32639393Y1863151D01*
X32344703Y2158356D01*
X31959474Y2318317D01*
X31542356Y2318681D01*
X31156849Y2159393D01*
X30861644Y1864703D01*
X30701683Y1479474D01*
X30701319Y1062356D01*
X30860607Y676849D01*
X31155297Y381644D01*
X31231504Y350000D01*
X29729076Y350000D01*
X29803151Y380607D01*
X30098356Y675297D01*
X30258317Y1060526D01*
X30258681Y1477644D01*
X30099393Y1863151D01*
X29804703Y2158356D01*
X29419474Y2318317D01*
X29002356Y2318681D01*
X28616849Y2159393D01*
X28321644Y1864703D01*
X28161683Y1479474D01*
X28161319Y1062356D01*
X28320607Y676849D01*
X28615297Y381644D01*
X28691504Y350000D01*
X27189076Y350000D01*
X27263151Y380607D01*
X27558356Y675297D01*
X27718317Y1060526D01*
X27718681Y1477644D01*
X27559393Y1863151D01*
X27264703Y2158356D01*
X26879474Y2318317D01*
X26462356Y2318681D01*
X26076849Y2159393D01*
X25781644Y1864703D01*
X25621683Y1479474D01*
X25621319Y1062356D01*
X25780607Y676849D01*
X26075297Y381644D01*
X26151504Y350000D01*
X24649076Y350000D01*
X24723151Y380607D01*
X25018356Y675297D01*
X25178317Y1060526D01*
X25178681Y1477644D01*
X25019393Y1863151D01*
X24724703Y2158356D01*
X24339474Y2318317D01*
X23922356Y2318681D01*
X23536849Y2159393D01*
X23241644Y1864703D01*
X23081683Y1479474D01*
X23081319Y1062356D01*
X23240607Y676849D01*
X23535297Y381644D01*
X23611504Y350000D01*
X22109076Y350000D01*
X22183151Y380607D01*
X22478356Y675297D01*
X22638317Y1060526D01*
X22638681Y1477644D01*
X22479393Y1863151D01*
X22184703Y2158356D01*
X21799474Y2318317D01*
X21382356Y2318681D01*
X20996849Y2159393D01*
X20701644Y1864703D01*
X20541683Y1479474D01*
X20541319Y1062356D01*
X20700607Y676849D01*
X20995297Y381644D01*
X21071504Y350000D01*
X19569076Y350000D01*
X19643151Y380607D01*
X19938356Y675297D01*
X20098317Y1060526D01*
X20098681Y1477644D01*
X19939393Y1863151D01*
X19644703Y2158356D01*
X19259474Y2318317D01*
X18842356Y2318681D01*
X18456849Y2159393D01*
X18161644Y1864703D01*
X18001683Y1479474D01*
X18001319Y1062356D01*
X18160607Y676849D01*
X18455297Y381644D01*
X18531504Y350000D01*
X17029076Y350000D01*
X17103151Y380607D01*
X17398356Y675297D01*
X17558317Y1060526D01*
X17558681Y1477644D01*
X17399393Y1863151D01*
X17104703Y2158356D01*
X16719474Y2318317D01*
X16302356Y2318681D01*
X15916849Y2159393D01*
X15621644Y1864703D01*
X15461683Y1479474D01*
X15461319Y1062356D01*
X15620607Y676849D01*
X15915297Y381644D01*
X15991504Y350000D01*
X15290130Y350000D01*
X15290130Y7968530D01*
X15176189Y8244286D01*
X14965395Y8455448D01*
X14689839Y8569869D01*
X14391470Y8570130D01*
X14115714Y8456189D01*
X13904552Y8245395D01*
X13790131Y7969839D01*
X13789870Y7671470D01*
X13903811Y7395714D01*
X14114605Y7184552D01*
X14390161Y7070131D01*
X14688530Y7069870D01*
X14964286Y7183811D01*
X15175448Y7394605D01*
X15289869Y7670161D01*
X15290130Y7968530D01*
X15290130Y350000D01*
X14489076Y350000D01*
X14563151Y380607D01*
X14858356Y675297D01*
X15018317Y1060526D01*
X15018681Y1477644D01*
X14859393Y1863151D01*
X14564703Y2158356D01*
X14179474Y2318317D01*
X13762356Y2318681D01*
X13376849Y2159393D01*
X13081644Y1864703D01*
X12921683Y1479474D01*
X12921319Y1062356D01*
X13080607Y676849D01*
X13375297Y381644D01*
X13451504Y350000D01*
X12482500Y350000D01*
X12482500Y9467562D01*
X12482500Y9709439D01*
X12482500Y9854000D01*
X12482500Y10466000D01*
X12482500Y10610561D01*
X12482500Y10852438D01*
X12389938Y11075904D01*
X12218905Y11246937D01*
X11995439Y11339500D01*
X11863000Y11339500D01*
X11711000Y11187500D01*
X11711000Y10314000D01*
X12330500Y10314000D01*
X12482500Y10466000D01*
X12482500Y9854000D01*
X12330500Y10006000D01*
X11711000Y10006000D01*
X11711000Y9132500D01*
X11863000Y8980500D01*
X11995439Y8980500D01*
X12218905Y9073063D01*
X12389938Y9244096D01*
X12482500Y9467562D01*
X12482500Y350000D01*
X11949076Y350000D01*
X12023151Y380607D01*
X12318356Y675297D01*
X12478317Y1060526D01*
X12478681Y1477644D01*
X12319393Y1863151D01*
X12024703Y2158356D01*
X11639474Y2318317D01*
X11403000Y2318524D01*
X11403000Y9132500D01*
X11403000Y10006000D01*
X11383000Y10006000D01*
X11383000Y10314000D01*
X11403000Y10314000D01*
X11403000Y11187500D01*
X11251000Y11339500D01*
X11118561Y11339500D01*
X10895095Y11246937D01*
X10724062Y11075904D01*
X10655371Y10910070D01*
X10647216Y10929759D01*
X10548759Y11028215D01*
X10420120Y11081500D01*
X10280881Y11081500D01*
X9645881Y11081500D01*
X9517241Y11028216D01*
X9418785Y10929759D01*
X9365500Y10801120D01*
X9365500Y10661881D01*
X9365500Y10637000D01*
X9338000Y10637000D01*
X9337791Y10636959D01*
X9337582Y10637000D01*
X9246806Y10618861D01*
X9155460Y10600691D01*
X9155281Y10600572D01*
X9155073Y10600530D01*
X9124334Y10579953D01*
X9047729Y10611762D01*
X8731658Y10612037D01*
X8439540Y10491337D01*
X8215849Y10268036D01*
X8094638Y9976129D01*
X8094363Y9660058D01*
X8215063Y9367940D01*
X8438364Y9144249D01*
X8730271Y9023038D01*
X9046342Y9022763D01*
X9338460Y9143463D01*
X9502154Y9306872D01*
X9517241Y9291785D01*
X9645880Y9238500D01*
X9785119Y9238500D01*
X10420119Y9238500D01*
X10548759Y9291784D01*
X10647215Y9390241D01*
X10655371Y9409932D01*
X10724062Y9244096D01*
X10895095Y9073063D01*
X11118561Y8980500D01*
X11251000Y8980500D01*
X11403000Y9132500D01*
X11403000Y2318524D01*
X11222356Y2318681D01*
X10836849Y2159393D01*
X10541644Y1864703D01*
X10381683Y1479474D01*
X10381319Y1062356D01*
X10540607Y676849D01*
X10835297Y381644D01*
X10911504Y350000D01*
X9409076Y350000D01*
X9483151Y380607D01*
X9778356Y675297D01*
X9938317Y1060526D01*
X9938681Y1477644D01*
X9779393Y1863151D01*
X9484703Y2158356D01*
X9099474Y2318317D01*
X8682356Y2318681D01*
X8296849Y2159393D01*
X8001644Y1864703D01*
X7841683Y1479474D01*
X7841319Y1062356D01*
X8000607Y676849D01*
X8295297Y381644D01*
X8371504Y350000D01*
X6869076Y350000D01*
X6943151Y380607D01*
X7238356Y675297D01*
X7398317Y1060526D01*
X7398681Y1477644D01*
X7239393Y1863151D01*
X6944703Y2158356D01*
X6559474Y2318317D01*
X6142356Y2318681D01*
X5756849Y2159393D01*
X5461644Y1864703D01*
X5301683Y1479474D01*
X5301319Y1062356D01*
X5460607Y676849D01*
X5755297Y381644D01*
X5831504Y350000D01*
X4329076Y350000D01*
X4403151Y380607D01*
X4698356Y675297D01*
X4858317Y1060526D01*
X4858681Y1477644D01*
X4699393Y1863151D01*
X4404703Y2158356D01*
X4019474Y2318317D01*
X3602356Y2318681D01*
X3216849Y2159393D01*
X2921644Y1864703D01*
X2761683Y1479474D01*
X2761319Y1062356D01*
X2920607Y676849D01*
X3215297Y381644D01*
X3291504Y350000D01*
X1789076Y350000D01*
X1863151Y380607D01*
X2158356Y675297D01*
X2318317Y1060526D01*
X2318681Y1477644D01*
X2159393Y1863151D01*
X1864703Y2158356D01*
X1479474Y2318317D01*
X1062356Y2318681D01*
X676849Y2159393D01*
X381644Y1864703D01*
X221683Y1479474D01*
X221319Y1062356D01*
X380607Y676849D01*
X675297Y381644D01*
X751504Y350000D01*
X100000Y350000D01*
X100000Y27590000D01*
X750923Y27590000D01*
X676849Y27559393D01*
X381644Y27264703D01*
X221683Y26879474D01*
X221319Y26462356D01*
X380607Y26076849D01*
X675297Y25781644D01*
X1060526Y25621683D01*
X1477644Y25621319D01*
X1863151Y25780607D01*
X2158356Y26075297D01*
X2318317Y26460526D01*
X2318681Y26877644D01*
X2159393Y27263151D01*
X1864703Y27558356D01*
X1788495Y27590000D01*
X3290923Y27590000D01*
X3216849Y27559393D01*
X2921644Y27264703D01*
X2761683Y26879474D01*
X2761319Y26462356D01*
X2920607Y26076849D01*
X3215297Y25781644D01*
X3600526Y25621683D01*
X4017644Y25621319D01*
X4403151Y25780607D01*
X4698356Y26075297D01*
X4858317Y26460526D01*
X4858681Y26877644D01*
X4699393Y27263151D01*
X4404703Y27558356D01*
X4328495Y27590000D01*
X5830923Y27590000D01*
X5756849Y27559393D01*
X5461644Y27264703D01*
X5301683Y26879474D01*
X5301319Y26462356D01*
X5460607Y26076849D01*
X5755297Y25781644D01*
X6140526Y25621683D01*
X6557644Y25621319D01*
X6943151Y25780607D01*
X7238356Y26075297D01*
X7398317Y26460526D01*
X7398681Y26877644D01*
X7239393Y27263151D01*
X6944703Y27558356D01*
X6868495Y27590000D01*
X8370923Y27590000D01*
X8296849Y27559393D01*
X8001644Y27264703D01*
X7841683Y26879474D01*
X7841319Y26462356D01*
X8000607Y26076849D01*
X8295297Y25781644D01*
X8680526Y25621683D01*
X9097644Y25621319D01*
X9483151Y25780607D01*
X9778356Y26075297D01*
X9938317Y26460526D01*
X9938681Y26877644D01*
X9779393Y27263151D01*
X9484703Y27558356D01*
X9408495Y27590000D01*
X10910923Y27590000D01*
X10836849Y27559393D01*
X10541644Y27264703D01*
X10381683Y26879474D01*
X10381319Y26462356D01*
X10540607Y26076849D01*
X10835297Y25781644D01*
X11220526Y25621683D01*
X11637644Y25621319D01*
X12023151Y25780607D01*
X12318356Y26075297D01*
X12478317Y26460526D01*
X12478681Y26877644D01*
X12319393Y27263151D01*
X12024703Y27558356D01*
X11948495Y27590000D01*
X13450923Y27590000D01*
X13376849Y27559393D01*
X13081644Y27264703D01*
X12921683Y26879474D01*
X12921319Y26462356D01*
X13080607Y26076849D01*
X13375297Y25781644D01*
X13760526Y25621683D01*
X14177644Y25621319D01*
X14563151Y25780607D01*
X14858356Y26075297D01*
X15018317Y26460526D01*
X15018681Y26877644D01*
X14859393Y27263151D01*
X14564703Y27558356D01*
X14488495Y27590000D01*
X15990923Y27590000D01*
X15916849Y27559393D01*
X15621644Y27264703D01*
X15461683Y26879474D01*
X15461319Y26462356D01*
X15620607Y26076849D01*
X15915297Y25781644D01*
X16300526Y25621683D01*
X16717644Y25621319D01*
X17103151Y25780607D01*
X17398356Y26075297D01*
X17558317Y26460526D01*
X17558681Y26877644D01*
X17399393Y27263151D01*
X17104703Y27558356D01*
X17028495Y27590000D01*
X18530923Y27590000D01*
X18456849Y27559393D01*
X18161644Y27264703D01*
X18001683Y26879474D01*
X18001319Y26462356D01*
X18160607Y26076849D01*
X18455297Y25781644D01*
X18840526Y25621683D01*
X19257644Y25621319D01*
X19643151Y25780607D01*
X19938356Y26075297D01*
X20098317Y26460526D01*
X20098681Y26877644D01*
X19939393Y27263151D01*
X19644703Y27558356D01*
X19568495Y27590000D01*
X21070923Y27590000D01*
X20996849Y27559393D01*
X20701644Y27264703D01*
X20541683Y26879474D01*
X20541319Y26462356D01*
X20700607Y26076849D01*
X20995297Y25781644D01*
X21380526Y25621683D01*
X21797644Y25621319D01*
X22183151Y25780607D01*
X22478356Y26075297D01*
X22638317Y26460526D01*
X22638681Y26877644D01*
X22479393Y27263151D01*
X22184703Y27558356D01*
X22108495Y27590000D01*
X23610923Y27590000D01*
X23536849Y27559393D01*
X23241644Y27264703D01*
X23081683Y26879474D01*
X23081319Y26462356D01*
X23240607Y26076849D01*
X23535297Y25781644D01*
X23920526Y25621683D01*
X24337644Y25621319D01*
X24723151Y25780607D01*
X25018356Y26075297D01*
X25178317Y26460526D01*
X25178681Y26877644D01*
X25019393Y27263151D01*
X24724703Y27558356D01*
X24648495Y27590000D01*
X26150923Y27590000D01*
X26076849Y27559393D01*
X25781644Y27264703D01*
X25621683Y26879474D01*
X25621319Y26462356D01*
X25780607Y26076849D01*
X26075297Y25781644D01*
X26460526Y25621683D01*
X26877644Y25621319D01*
X27263151Y25780607D01*
X27558356Y26075297D01*
X27718317Y26460526D01*
X27718681Y26877644D01*
X27559393Y27263151D01*
X27264703Y27558356D01*
X27188495Y27590000D01*
X28690923Y27590000D01*
X28616849Y27559393D01*
X28321644Y27264703D01*
X28161683Y26879474D01*
X28161319Y26462356D01*
X28320607Y26076849D01*
X28615297Y25781644D01*
X29000526Y25621683D01*
X29417644Y25621319D01*
X29803151Y25780607D01*
X30098356Y26075297D01*
X30258317Y26460526D01*
X30258681Y26877644D01*
X30099393Y27263151D01*
X29804703Y27558356D01*
X29728495Y27590000D01*
X31230923Y27590000D01*
X31156849Y27559393D01*
X30861644Y27264703D01*
X30701683Y26879474D01*
X30701319Y26462356D01*
X30860607Y26076849D01*
X31155297Y25781644D01*
X31540526Y25621683D01*
X31957644Y25621319D01*
X32343151Y25780607D01*
X32638356Y26075297D01*
X32798317Y26460526D01*
X32798681Y26877644D01*
X32639393Y27263151D01*
X32344703Y27558356D01*
X32268495Y27590000D01*
X33770923Y27590000D01*
X33696849Y27559393D01*
X33401644Y27264703D01*
X33241683Y26879474D01*
X33241319Y26462356D01*
X33400607Y26076849D01*
X33695297Y25781644D01*
X34080526Y25621683D01*
X34497644Y25621319D01*
X34883151Y25780607D01*
X35178356Y26075297D01*
X35338317Y26460526D01*
X35338681Y26877644D01*
X35179393Y27263151D01*
X34884703Y27558356D01*
X34808495Y27590000D01*
X36310923Y27590000D01*
X36236849Y27559393D01*
X35941644Y27264703D01*
X35781683Y26879474D01*
X35781319Y26462356D01*
X35940607Y26076849D01*
X36235297Y25781644D01*
X36620526Y25621683D01*
X37037644Y25621319D01*
X37423151Y25780607D01*
X37718356Y26075297D01*
X37878317Y26460526D01*
X37878681Y26877644D01*
X37719393Y27263151D01*
X37424703Y27558356D01*
X37348495Y27590000D01*
X38850923Y27590000D01*
X38776849Y27559393D01*
X38481644Y27264703D01*
X38321683Y26879474D01*
X38321319Y26462356D01*
X38480607Y26076849D01*
X38670000Y25887126D01*
X38670000Y24439870D01*
X38200631Y24439870D01*
X38071991Y24386586D01*
X37973535Y24288129D01*
X37920250Y24159490D01*
X37920250Y24020251D01*
X37920250Y22089049D01*
X37845821Y22014649D01*
X37845786Y22014599D01*
X37845736Y22014564D01*
X37780727Y21917272D01*
X37715718Y21820021D01*
X37715706Y21819961D01*
X37715672Y21819910D01*
X37692834Y21705097D01*
X37670000Y21590420D01*
X37670011Y21590360D01*
X37670000Y21590300D01*
X37670000Y21338528D01*
X36845736Y20514264D01*
X36715672Y20319610D01*
X36679647Y20138500D01*
X36501881Y20138500D01*
X36373241Y20085216D01*
X36274785Y19986759D01*
X36221500Y19858120D01*
X36221500Y19718881D01*
X36221500Y18321881D01*
X36274784Y18193241D01*
X36373241Y18094785D01*
X36426672Y18072653D01*
X36415906Y18056541D01*
X36350745Y17959086D01*
X36350726Y17958991D01*
X36350672Y17958910D01*
X36327812Y17843988D01*
X36318984Y17799679D01*
X36238538Y17833000D01*
X36076500Y17833000D01*
X35996661Y17833000D01*
X35941000Y17833000D01*
X35789002Y17681002D01*
X35789002Y17833000D01*
X35708942Y17833000D01*
X35812905Y17876063D01*
X35983938Y18047096D01*
X36076500Y18270562D01*
X36076500Y18512439D01*
X36076500Y18784000D01*
X36076500Y19396000D01*
X36076500Y19667561D01*
X36076500Y19909438D01*
X35983938Y20132904D01*
X35812905Y20303937D01*
X35589439Y20396500D01*
X35076000Y20396500D01*
X34924000Y20244500D01*
X34924000Y19244000D01*
X35924500Y19244000D01*
X36076500Y19396000D01*
X36076500Y18784000D01*
X35924500Y18936000D01*
X34924000Y18936000D01*
X34924000Y17935500D01*
X35027953Y17831547D01*
X34877750Y17769331D01*
X34877750Y20969192D01*
X34877750Y21211069D01*
X34877750Y22284000D01*
X34877750Y22896000D01*
X34877750Y23968931D01*
X34877750Y24210808D01*
X34785188Y24434274D01*
X34614155Y24605307D01*
X34390689Y24697870D01*
X33576260Y24697870D01*
X33424260Y24545870D01*
X33424260Y22744000D01*
X34725750Y22744000D01*
X34877750Y22896000D01*
X34877750Y22284000D01*
X34725750Y22436000D01*
X33424260Y22436000D01*
X33424260Y20634130D01*
X33576260Y20482130D01*
X34390689Y20482130D01*
X34614155Y20574693D01*
X34785188Y20745726D01*
X34877750Y20969192D01*
X34877750Y17769331D01*
X34807996Y17740438D01*
X34636963Y17569405D01*
X34616000Y17518797D01*
X34616000Y17935500D01*
X34616000Y18936000D01*
X34616000Y19244000D01*
X34616000Y20244500D01*
X34464000Y20396500D01*
X33950561Y20396500D01*
X33727095Y20303937D01*
X33556062Y20132904D01*
X33463500Y19909438D01*
X33463500Y19667561D01*
X33463500Y19396000D01*
X33615500Y19244000D01*
X34616000Y19244000D01*
X34616000Y18936000D01*
X33615500Y18936000D01*
X33463500Y18784000D01*
X33463500Y18512439D01*
X33463500Y18270562D01*
X33556062Y18047096D01*
X33727095Y17876063D01*
X33950561Y17783500D01*
X34464000Y17783500D01*
X34616000Y17935500D01*
X34616000Y17518797D01*
X34544400Y17345939D01*
X34544400Y16896000D01*
X34696400Y16744000D01*
X35481000Y16744000D01*
X35481000Y16764000D01*
X35789000Y16764000D01*
X35789000Y16744000D01*
X35809000Y16744000D01*
X35809000Y16436000D01*
X35789000Y16436000D01*
X35789000Y15499000D01*
X35941000Y15347000D01*
X35996661Y15347000D01*
X36238538Y15347000D01*
X36462004Y15439562D01*
X36627442Y15605000D01*
X37457219Y15605000D01*
X37585859Y15658284D01*
X37684315Y15756741D01*
X37737600Y15885380D01*
X37737600Y16024619D01*
X37737600Y17294619D01*
X37684316Y17423259D01*
X37664515Y17443059D01*
X37694264Y17462936D01*
X37824328Y17657590D01*
X37870000Y17887200D01*
X37870000Y18041500D01*
X38038119Y18041500D01*
X38166759Y18094784D01*
X38265215Y18193241D01*
X38318500Y18321880D01*
X38318500Y18461119D01*
X38318500Y19858119D01*
X38265216Y19986759D01*
X38166759Y20085215D01*
X38129271Y20100744D01*
X38694264Y20665736D01*
X38743972Y20740130D01*
X40338849Y20740130D01*
X40467489Y20793414D01*
X40565945Y20891871D01*
X40619230Y21020510D01*
X40619230Y21159749D01*
X40619230Y24159489D01*
X40565946Y24288129D01*
X40467489Y24386585D01*
X40338850Y24439870D01*
X40199611Y24439870D01*
X39870000Y24439870D01*
X39870000Y25742118D01*
X39963151Y25780607D01*
X40258356Y26075297D01*
X40418317Y26460526D01*
X40418681Y26877644D01*
X40259393Y27263151D01*
X39964703Y27558356D01*
X39888495Y27590000D01*
X40938025Y27590000D01*
X40914785Y27566759D01*
X40861500Y27438120D01*
X40861500Y27298881D01*
X40861500Y25901881D01*
X40914784Y25773241D01*
X41013241Y25674785D01*
X41141880Y25621500D01*
X41281119Y25621500D01*
X42678119Y25621500D01*
X42806759Y25674784D01*
X42830000Y25698026D01*
X42830000Y2241975D01*
X42830000Y2241975D01*
G37*
X42830000Y2241975D02*
X42806759Y2265215D01*
X42678120Y2318500D01*
X42538881Y2318500D01*
X42092556Y2318500D01*
X42092556Y18740859D01*
X42052783Y19259092D01*
X41930981Y19553148D01*
X41706213Y19618424D01*
X41488424Y19400635D01*
X41488424Y19836213D01*
X41423148Y20060981D01*
X40929141Y20222556D01*
X40410908Y20182783D01*
X40116852Y20060981D01*
X40051576Y19836213D01*
X40770000Y19117789D01*
X41488424Y19836213D01*
X41488424Y19400635D01*
X40987789Y18900000D01*
X41706213Y18181576D01*
X41930981Y18246852D01*
X42092556Y18740859D01*
X42092556Y2318500D01*
X41818681Y2318500D01*
X41818681Y14027644D01*
X41818681Y16567644D01*
X41659393Y16953151D01*
X41488424Y17124419D01*
X41488424Y17963787D01*
X40770000Y18682211D01*
X40552211Y18464422D01*
X40552211Y18900000D01*
X39833787Y19618424D01*
X39609019Y19553148D01*
X39447444Y19059141D01*
X39487217Y18540908D01*
X39609019Y18246852D01*
X39833787Y18181576D01*
X40552211Y18900000D01*
X40552211Y18464422D01*
X40051576Y17963787D01*
X40116852Y17739019D01*
X40610859Y17577444D01*
X41129092Y17617217D01*
X41423148Y17739019D01*
X41488424Y17963787D01*
X41488424Y17124419D01*
X41364703Y17248356D01*
X40979474Y17408317D01*
X40562356Y17408681D01*
X40176849Y17249393D01*
X39881644Y16954703D01*
X39721683Y16569474D01*
X39721319Y16152356D01*
X39880607Y15766849D01*
X40175297Y15471644D01*
X40560526Y15311683D01*
X40977644Y15311319D01*
X41363151Y15470607D01*
X41658356Y15765297D01*
X41818317Y16150526D01*
X41818681Y16567644D01*
X41818681Y14027644D01*
X41659393Y14413151D01*
X41364703Y14708356D01*
X40979474Y14868317D01*
X40562356Y14868681D01*
X40176849Y14709393D01*
X39881644Y14414703D01*
X39746815Y14090000D01*
X39199500Y14090000D01*
X39199500Y14231119D01*
X39146216Y14359759D01*
X39047759Y14458215D01*
X38919120Y14511500D01*
X38779881Y14511500D01*
X38144881Y14511500D01*
X38016241Y14458216D01*
X37917785Y14359759D01*
X37909628Y14340069D01*
X37840938Y14505904D01*
X37669905Y14676937D01*
X37446439Y14769500D01*
X37314000Y14769500D01*
X37162000Y14617500D01*
X37162000Y13744000D01*
X37182000Y13744000D01*
X37182000Y13436000D01*
X37162000Y13436000D01*
X37162000Y12562500D01*
X37314000Y12410500D01*
X37446439Y12410500D01*
X37669905Y12503063D01*
X37840938Y12674096D01*
X37909628Y12839931D01*
X37917784Y12820241D01*
X38016241Y12721785D01*
X38144880Y12668500D01*
X38284119Y12668500D01*
X38919119Y12668500D01*
X39047759Y12721784D01*
X39146215Y12820241D01*
X39199500Y12948880D01*
X39199500Y13088119D01*
X39199500Y13090000D01*
X40017217Y13090000D01*
X40175297Y12931644D01*
X40560526Y12771683D01*
X40977644Y12771319D01*
X41363151Y12930607D01*
X41658356Y13225297D01*
X41818317Y13610526D01*
X41818681Y14027644D01*
X41818681Y2318500D01*
X41818500Y2318500D01*
X41818500Y10511880D01*
X41818500Y10651119D01*
X41818500Y12048119D01*
X41765216Y12176759D01*
X41666759Y12275215D01*
X41538120Y12328500D01*
X41398881Y12328500D01*
X40001881Y12328500D01*
X39873241Y12275216D01*
X39774785Y12176759D01*
X39721500Y12048120D01*
X39721500Y11908881D01*
X39721500Y10511881D01*
X39774784Y10383241D01*
X39873241Y10284785D01*
X40001880Y10231500D01*
X40141119Y10231500D01*
X41538119Y10231500D01*
X41666759Y10284784D01*
X41765215Y10383241D01*
X41818500Y10511880D01*
X41818500Y2318500D01*
X41141881Y2318500D01*
X41013241Y2265216D01*
X40914785Y2166759D01*
X40861500Y2038120D01*
X40861500Y1898881D01*
X40861500Y501881D01*
X40914784Y373241D01*
X40938025Y350000D01*
X39889076Y350000D01*
X39963151Y380607D01*
X40258356Y675297D01*
X40418317Y1060526D01*
X40418681Y1477644D01*
X40259393Y1863151D01*
X39964703Y2158356D01*
X39579474Y2318317D01*
X39162356Y2318681D01*
X38776849Y2159393D01*
X38481644Y1864703D01*
X38321683Y1479474D01*
X38321319Y1062356D01*
X38480607Y676849D01*
X38775297Y381644D01*
X38851504Y350000D01*
X37349076Y350000D01*
X37423151Y380607D01*
X37718356Y675297D01*
X37878317Y1060526D01*
X37878681Y1477644D01*
X37719393Y1863151D01*
X37424703Y2158356D01*
X37039474Y2318317D01*
X36854000Y2318479D01*
X36854000Y12562500D01*
X36854000Y13436000D01*
X36854000Y13744000D01*
X36854000Y14617500D01*
X36702000Y14769500D01*
X36569561Y14769500D01*
X36346095Y14676937D01*
X36175062Y14505904D01*
X36082500Y14282438D01*
X36082500Y14040561D01*
X36082500Y13896000D01*
X36234500Y13744000D01*
X36854000Y13744000D01*
X36854000Y13436000D01*
X36234500Y13436000D01*
X36082500Y13284000D01*
X36082500Y13139439D01*
X36082500Y12897562D01*
X36175062Y12674096D01*
X36346095Y12503063D01*
X36569561Y12410500D01*
X36702000Y12410500D01*
X36854000Y12562500D01*
X36854000Y2318479D01*
X36622356Y2318681D01*
X36236849Y2159393D01*
X35941644Y1864703D01*
X35781683Y1479474D01*
X35781319Y1062356D01*
X35940607Y676849D01*
X36235297Y381644D01*
X36311504Y350000D01*
X35481000Y350000D01*
X35481000Y15499000D01*
X35481000Y16436000D01*
X34696400Y16436000D01*
X34544400Y16284000D01*
X34544400Y15834061D01*
X34636963Y15610595D01*
X34807996Y15439562D01*
X35031462Y15347000D01*
X35273339Y15347000D01*
X35329000Y15347000D01*
X35481000Y15499000D01*
X35481000Y350000D01*
X34809076Y350000D01*
X34883151Y380607D01*
X35178356Y675297D01*
X35338317Y1060526D01*
X35338681Y1477644D01*
X35179393Y1863151D01*
X34884703Y2158356D01*
X34609837Y2272491D01*
X34609837Y13831542D01*
X34489137Y14123660D01*
X34265836Y14347351D01*
X33973929Y14468562D01*
X33657858Y14468837D01*
X33365740Y14348137D01*
X33191499Y14174200D01*
X33116260Y14174200D01*
X33116260Y20634130D01*
X33116260Y22436000D01*
X33116260Y22744000D01*
X33116260Y24545870D01*
X32964260Y24697870D01*
X32149831Y24697870D01*
X31926365Y24605307D01*
X31755332Y24434274D01*
X31662770Y24210808D01*
X31662770Y23968931D01*
X31662770Y22896000D01*
X31814770Y22744000D01*
X33116260Y22744000D01*
X33116260Y22436000D01*
X31814770Y22436000D01*
X31662770Y22284000D01*
X31662770Y21211069D01*
X31662770Y20969192D01*
X31755332Y20745726D01*
X31926365Y20574693D01*
X32149831Y20482130D01*
X32964260Y20482130D01*
X33116260Y20634130D01*
X33116260Y14174200D01*
X29426637Y14174200D01*
X29426637Y18734142D01*
X29305937Y19026260D01*
X29082636Y19249951D01*
X28790729Y19371162D01*
X28544222Y19371377D01*
X28056185Y19859075D01*
X28157151Y19959864D01*
X28278362Y20251771D01*
X28278637Y20567842D01*
X28157937Y20859960D01*
X27934636Y21083651D01*
X27642729Y21204862D01*
X27326658Y21205137D01*
X27034540Y21084437D01*
X26810849Y20861136D01*
X26689638Y20569229D01*
X26689363Y20253158D01*
X26810063Y19961040D01*
X26984000Y19786800D01*
X26984000Y19724000D01*
X26984017Y19723911D01*
X26984001Y19723826D01*
X27002684Y19630066D01*
X27022060Y19532658D01*
X27022109Y19532584D01*
X27022127Y19532497D01*
X27076639Y19450976D01*
X27130447Y19370447D01*
X27130519Y19370399D01*
X27130570Y19370323D01*
X27837575Y18663811D01*
X27837363Y18419458D01*
X27958063Y18127340D01*
X28181364Y17903649D01*
X28473271Y17782438D01*
X28789342Y17782163D01*
X29081460Y17902863D01*
X29305151Y18126164D01*
X29426362Y18418071D01*
X29426637Y18734142D01*
X29426637Y14174200D01*
X24402500Y14174200D01*
X24211158Y14136140D01*
X24119790Y14075090D01*
X24119790Y14214400D01*
X24274000Y14214400D01*
X24503610Y14260072D01*
X24698264Y14390136D01*
X24828328Y14584790D01*
X24874000Y14814400D01*
X24874000Y16224007D01*
X24874000Y16224100D01*
X24850928Y16340091D01*
X24828363Y16453625D01*
X24828337Y16453664D01*
X24828328Y16453710D01*
X24764479Y16549267D01*
X24698330Y16648299D01*
X24377790Y16968938D01*
X24377790Y18920061D01*
X24377790Y19659560D01*
X24377790Y20271560D01*
X24377790Y21011059D01*
X24285227Y21234525D01*
X24114194Y21405558D01*
X23890728Y21498120D01*
X23648851Y21498120D01*
X20676000Y21498120D01*
X20524000Y21346120D01*
X20524000Y20119560D01*
X24225790Y20119560D01*
X24377790Y20271560D01*
X24377790Y19659560D01*
X24225790Y19811560D01*
X20524000Y19811560D01*
X20524000Y18585000D01*
X20676000Y18433000D01*
X23648851Y18433000D01*
X23890728Y18433000D01*
X24114194Y18525562D01*
X24285227Y18696595D01*
X24377790Y18920061D01*
X24377790Y16968938D01*
X24102546Y17244267D01*
X24102637Y17347742D01*
X23981937Y17639860D01*
X23758636Y17863551D01*
X23466729Y17984762D01*
X23150658Y17985037D01*
X22858540Y17864337D01*
X22634849Y17641036D01*
X22513638Y17349129D01*
X22513363Y17033058D01*
X22634063Y16740940D01*
X22857364Y16517249D01*
X23149271Y16396038D01*
X23253810Y16395948D01*
X23560661Y16089000D01*
X20216000Y16089000D01*
X20216000Y18585000D01*
X20216000Y19811560D01*
X20216000Y20119560D01*
X20216000Y21346120D01*
X20064000Y21498120D01*
X17091149Y21498120D01*
X16849272Y21498120D01*
X16625806Y21405558D01*
X16454773Y21234525D01*
X16362210Y21011059D01*
X16362210Y20271560D01*
X16514210Y20119560D01*
X20216000Y20119560D01*
X20216000Y19811560D01*
X16514210Y19811560D01*
X16362210Y19659560D01*
X16362210Y18920061D01*
X16454773Y18696595D01*
X16625806Y18525562D01*
X16849272Y18433000D01*
X17091149Y18433000D01*
X20064000Y18433000D01*
X20216000Y18585000D01*
X20216000Y16089000D01*
X16900591Y16089000D01*
X16771951Y16035716D01*
X16673495Y15937259D01*
X16620210Y15808620D01*
X16620210Y15669381D01*
X16620210Y13981900D01*
X15290130Y13981900D01*
X15290130Y20468530D01*
X15176189Y20744286D01*
X14965395Y20955448D01*
X14689839Y21069869D01*
X14391470Y21070130D01*
X14115714Y20956189D01*
X13904552Y20745395D01*
X13790131Y20469839D01*
X13789870Y20171470D01*
X13903811Y19895714D01*
X14114605Y19684552D01*
X14390161Y19570131D01*
X14688530Y19569870D01*
X14964286Y19683811D01*
X15175448Y19894605D01*
X15289869Y20170161D01*
X15290130Y20468530D01*
X15290130Y13981900D01*
X14523676Y13981900D01*
X14468542Y14018740D01*
X14277200Y14056800D01*
X13209185Y14056800D01*
X13036336Y14229951D01*
X12744429Y14351162D01*
X12428358Y14351437D01*
X12136240Y14230737D01*
X11912549Y14007436D01*
X11791338Y13715529D01*
X11791063Y13399458D01*
X11911763Y13107340D01*
X12135064Y12883649D01*
X12426971Y12762438D01*
X12743042Y12762163D01*
X12894167Y12824607D01*
X12890938Y12816829D01*
X12890663Y12500758D01*
X13011363Y12208640D01*
X13234664Y11984949D01*
X13526571Y11863738D01*
X13842642Y11863463D01*
X14134760Y11984163D01*
X14358451Y12207464D01*
X14409041Y12329300D01*
X29958014Y12329300D01*
X30130864Y12156149D01*
X30422771Y12034938D01*
X30738842Y12034663D01*
X31030960Y12155363D01*
X31254651Y12378664D01*
X31375862Y12670571D01*
X31376137Y12986642D01*
X31298640Y13174200D01*
X33191714Y13174200D01*
X33364564Y13001049D01*
X33656471Y12879838D01*
X33972542Y12879563D01*
X34264660Y13000263D01*
X34488351Y13223564D01*
X34609562Y13515471D01*
X34609837Y13831542D01*
X34609837Y2272491D01*
X34499474Y2318317D01*
X34082356Y2318681D01*
X33696849Y2159393D01*
X33401644Y1864703D01*
X33241683Y1479474D01*
X33241319Y1062356D01*
X33400607Y676849D01*
X33695297Y381644D01*
X33771504Y350000D01*
X32269076Y350000D01*
X32343151Y380607D01*
X32638356Y675297D01*
X32798317Y1060526D01*
X32798681Y1477644D01*
X32639393Y1863151D01*
X32344703Y2158356D01*
X31959474Y2318317D01*
X31542356Y2318681D01*
X31156849Y2159393D01*
X30861644Y1864703D01*
X30701683Y1479474D01*
X30701319Y1062356D01*
X30860607Y676849D01*
X31155297Y381644D01*
X31231504Y350000D01*
X29729076Y350000D01*
X29803151Y380607D01*
X30098356Y675297D01*
X30258317Y1060526D01*
X30258681Y1477644D01*
X30099393Y1863151D01*
X29804703Y2158356D01*
X29419474Y2318317D01*
X29002356Y2318681D01*
X28616849Y2159393D01*
X28321644Y1864703D01*
X28161683Y1479474D01*
X28161319Y1062356D01*
X28320607Y676849D01*
X28615297Y381644D01*
X28691504Y350000D01*
X27189076Y350000D01*
X27263151Y380607D01*
X27558356Y675297D01*
X27718317Y1060526D01*
X27718681Y1477644D01*
X27559393Y1863151D01*
X27264703Y2158356D01*
X26879474Y2318317D01*
X26462356Y2318681D01*
X26076849Y2159393D01*
X25781644Y1864703D01*
X25621683Y1479474D01*
X25621319Y1062356D01*
X25780607Y676849D01*
X26075297Y381644D01*
X26151504Y350000D01*
X24649076Y350000D01*
X24723151Y380607D01*
X25018356Y675297D01*
X25178317Y1060526D01*
X25178681Y1477644D01*
X25019393Y1863151D01*
X24724703Y2158356D01*
X24339474Y2318317D01*
X23922356Y2318681D01*
X23536849Y2159393D01*
X23241644Y1864703D01*
X23081683Y1479474D01*
X23081319Y1062356D01*
X23240607Y676849D01*
X23535297Y381644D01*
X23611504Y350000D01*
X22109076Y350000D01*
X22183151Y380607D01*
X22478356Y675297D01*
X22638317Y1060526D01*
X22638681Y1477644D01*
X22479393Y1863151D01*
X22184703Y2158356D01*
X21799474Y2318317D01*
X21382356Y2318681D01*
X20996849Y2159393D01*
X20701644Y1864703D01*
X20541683Y1479474D01*
X20541319Y1062356D01*
X20700607Y676849D01*
X20995297Y381644D01*
X21071504Y350000D01*
X19569076Y350000D01*
X19643151Y380607D01*
X19938356Y675297D01*
X20098317Y1060526D01*
X20098681Y1477644D01*
X19939393Y1863151D01*
X19644703Y2158356D01*
X19259474Y2318317D01*
X18842356Y2318681D01*
X18456849Y2159393D01*
X18161644Y1864703D01*
X18001683Y1479474D01*
X18001319Y1062356D01*
X18160607Y676849D01*
X18455297Y381644D01*
X18531504Y350000D01*
X17029076Y350000D01*
X17103151Y380607D01*
X17398356Y675297D01*
X17558317Y1060526D01*
X17558681Y1477644D01*
X17399393Y1863151D01*
X17104703Y2158356D01*
X16719474Y2318317D01*
X16302356Y2318681D01*
X15916849Y2159393D01*
X15621644Y1864703D01*
X15461683Y1479474D01*
X15461319Y1062356D01*
X15620607Y676849D01*
X15915297Y381644D01*
X15991504Y350000D01*
X15290130Y350000D01*
X15290130Y7968530D01*
X15176189Y8244286D01*
X14965395Y8455448D01*
X14689839Y8569869D01*
X14391470Y8570130D01*
X14115714Y8456189D01*
X13904552Y8245395D01*
X13790131Y7969839D01*
X13789870Y7671470D01*
X13903811Y7395714D01*
X14114605Y7184552D01*
X14390161Y7070131D01*
X14688530Y7069870D01*
X14964286Y7183811D01*
X15175448Y7394605D01*
X15289869Y7670161D01*
X15290130Y7968530D01*
X15290130Y350000D01*
X14489076Y350000D01*
X14563151Y380607D01*
X14858356Y675297D01*
X15018317Y1060526D01*
X15018681Y1477644D01*
X14859393Y1863151D01*
X14564703Y2158356D01*
X14179474Y2318317D01*
X13762356Y2318681D01*
X13376849Y2159393D01*
X13081644Y1864703D01*
X12921683Y1479474D01*
X12921319Y1062356D01*
X13080607Y676849D01*
X13375297Y381644D01*
X13451504Y350000D01*
X12482500Y350000D01*
X12482500Y9467562D01*
X12482500Y9709439D01*
X12482500Y9854000D01*
X12482500Y10466000D01*
X12482500Y10610561D01*
X12482500Y10852438D01*
X12389938Y11075904D01*
X12218905Y11246937D01*
X11995439Y11339500D01*
X11863000Y11339500D01*
X11711000Y11187500D01*
X11711000Y10314000D01*
X12330500Y10314000D01*
X12482500Y10466000D01*
X12482500Y9854000D01*
X12330500Y10006000D01*
X11711000Y10006000D01*
X11711000Y9132500D01*
X11863000Y8980500D01*
X11995439Y8980500D01*
X12218905Y9073063D01*
X12389938Y9244096D01*
X12482500Y9467562D01*
X12482500Y350000D01*
X11949076Y350000D01*
X12023151Y380607D01*
X12318356Y675297D01*
X12478317Y1060526D01*
X12478681Y1477644D01*
X12319393Y1863151D01*
X12024703Y2158356D01*
X11639474Y2318317D01*
X11403000Y2318524D01*
X11403000Y9132500D01*
X11403000Y10006000D01*
X11383000Y10006000D01*
X11383000Y10314000D01*
X11403000Y10314000D01*
X11403000Y11187500D01*
X11251000Y11339500D01*
X11118561Y11339500D01*
X10895095Y11246937D01*
X10724062Y11075904D01*
X10655371Y10910070D01*
X10647216Y10929759D01*
X10548759Y11028215D01*
X10420120Y11081500D01*
X10280881Y11081500D01*
X9645881Y11081500D01*
X9517241Y11028216D01*
X9418785Y10929759D01*
X9365500Y10801120D01*
X9365500Y10661881D01*
X9365500Y10637000D01*
X9338000Y10637000D01*
X9337791Y10636959D01*
X9337582Y10637000D01*
X9246806Y10618861D01*
X9155460Y10600691D01*
X9155281Y10600572D01*
X9155073Y10600530D01*
X9124334Y10579953D01*
X9047729Y10611762D01*
X8731658Y10612037D01*
X8439540Y10491337D01*
X8215849Y10268036D01*
X8094638Y9976129D01*
X8094363Y9660058D01*
X8215063Y9367940D01*
X8438364Y9144249D01*
X8730271Y9023038D01*
X9046342Y9022763D01*
X9338460Y9143463D01*
X9502154Y9306872D01*
X9517241Y9291785D01*
X9645880Y9238500D01*
X9785119Y9238500D01*
X10420119Y9238500D01*
X10548759Y9291784D01*
X10647215Y9390241D01*
X10655371Y9409932D01*
X10724062Y9244096D01*
X10895095Y9073063D01*
X11118561Y8980500D01*
X11251000Y8980500D01*
X11403000Y9132500D01*
X11403000Y2318524D01*
X11222356Y2318681D01*
X10836849Y2159393D01*
X10541644Y1864703D01*
X10381683Y1479474D01*
X10381319Y1062356D01*
X10540607Y676849D01*
X10835297Y381644D01*
X10911504Y350000D01*
X9409076Y350000D01*
X9483151Y380607D01*
X9778356Y675297D01*
X9938317Y1060526D01*
X9938681Y1477644D01*
X9779393Y1863151D01*
X9484703Y2158356D01*
X9099474Y2318317D01*
X8682356Y2318681D01*
X8296849Y2159393D01*
X8001644Y1864703D01*
X7841683Y1479474D01*
X7841319Y1062356D01*
X8000607Y676849D01*
X8295297Y381644D01*
X8371504Y350000D01*
X6869076Y350000D01*
X6943151Y380607D01*
X7238356Y675297D01*
X7398317Y1060526D01*
X7398681Y1477644D01*
X7239393Y1863151D01*
X6944703Y2158356D01*
X6559474Y2318317D01*
X6142356Y2318681D01*
X5756849Y2159393D01*
X5461644Y1864703D01*
X5301683Y1479474D01*
X5301319Y1062356D01*
X5460607Y676849D01*
X5755297Y381644D01*
X5831504Y350000D01*
X4329076Y350000D01*
X4403151Y380607D01*
X4698356Y675297D01*
X4858317Y1060526D01*
X4858681Y1477644D01*
X4699393Y1863151D01*
X4404703Y2158356D01*
X4019474Y2318317D01*
X3602356Y2318681D01*
X3216849Y2159393D01*
X2921644Y1864703D01*
X2761683Y1479474D01*
X2761319Y1062356D01*
X2920607Y676849D01*
X3215297Y381644D01*
X3291504Y350000D01*
X1789076Y350000D01*
X1863151Y380607D01*
X2158356Y675297D01*
X2318317Y1060526D01*
X2318681Y1477644D01*
X2159393Y1863151D01*
X1864703Y2158356D01*
X1479474Y2318317D01*
X1062356Y2318681D01*
X676849Y2159393D01*
X381644Y1864703D01*
X221683Y1479474D01*
X221319Y1062356D01*
X380607Y676849D01*
X675297Y381644D01*
X751504Y350000D01*
X100000Y350000D01*
X100000Y27590000D01*
X750923Y27590000D01*
X676849Y27559393D01*
X381644Y27264703D01*
X221683Y26879474D01*
X221319Y26462356D01*
X380607Y26076849D01*
X675297Y25781644D01*
X1060526Y25621683D01*
X1477644Y25621319D01*
X1863151Y25780607D01*
X2158356Y26075297D01*
X2318317Y26460526D01*
X2318681Y26877644D01*
X2159393Y27263151D01*
X1864703Y27558356D01*
X1788495Y27590000D01*
X3290923Y27590000D01*
X3216849Y27559393D01*
X2921644Y27264703D01*
X2761683Y26879474D01*
X2761319Y26462356D01*
X2920607Y26076849D01*
X3215297Y25781644D01*
X3600526Y25621683D01*
X4017644Y25621319D01*
X4403151Y25780607D01*
X4698356Y26075297D01*
X4858317Y26460526D01*
X4858681Y26877644D01*
X4699393Y27263151D01*
X4404703Y27558356D01*
X4328495Y27590000D01*
X5830923Y27590000D01*
X5756849Y27559393D01*
X5461644Y27264703D01*
X5301683Y26879474D01*
X5301319Y26462356D01*
X5460607Y26076849D01*
X5755297Y25781644D01*
X6140526Y25621683D01*
X6557644Y25621319D01*
X6943151Y25780607D01*
X7238356Y26075297D01*
X7398317Y26460526D01*
X7398681Y26877644D01*
X7239393Y27263151D01*
X6944703Y27558356D01*
X6868495Y27590000D01*
X8370923Y27590000D01*
X8296849Y27559393D01*
X8001644Y27264703D01*
X7841683Y26879474D01*
X7841319Y26462356D01*
X8000607Y26076849D01*
X8295297Y25781644D01*
X8680526Y25621683D01*
X9097644Y25621319D01*
X9483151Y25780607D01*
X9778356Y26075297D01*
X9938317Y26460526D01*
X9938681Y26877644D01*
X9779393Y27263151D01*
X9484703Y27558356D01*
X9408495Y27590000D01*
X10910923Y27590000D01*
X10836849Y27559393D01*
X10541644Y27264703D01*
X10381683Y26879474D01*
X10381319Y26462356D01*
X10540607Y26076849D01*
X10835297Y25781644D01*
X11220526Y25621683D01*
X11637644Y25621319D01*
X12023151Y25780607D01*
X12318356Y26075297D01*
X12478317Y26460526D01*
X12478681Y26877644D01*
X12319393Y27263151D01*
X12024703Y27558356D01*
X11948495Y27590000D01*
X13450923Y27590000D01*
X13376849Y27559393D01*
X13081644Y27264703D01*
X12921683Y26879474D01*
X12921319Y26462356D01*
X13080607Y26076849D01*
X13375297Y25781644D01*
X13760526Y25621683D01*
X14177644Y25621319D01*
X14563151Y25780607D01*
X14858356Y26075297D01*
X15018317Y26460526D01*
X15018681Y26877644D01*
X14859393Y27263151D01*
X14564703Y27558356D01*
X14488495Y27590000D01*
X15990923Y27590000D01*
X15916849Y27559393D01*
X15621644Y27264703D01*
X15461683Y26879474D01*
X15461319Y26462356D01*
X15620607Y26076849D01*
X15915297Y25781644D01*
X16300526Y25621683D01*
X16717644Y25621319D01*
X17103151Y25780607D01*
X17398356Y26075297D01*
X17558317Y26460526D01*
X17558681Y26877644D01*
X17399393Y27263151D01*
X17104703Y27558356D01*
X17028495Y27590000D01*
X18530923Y27590000D01*
X18456849Y27559393D01*
X18161644Y27264703D01*
X18001683Y26879474D01*
X18001319Y26462356D01*
X18160607Y26076849D01*
X18455297Y25781644D01*
X18840526Y25621683D01*
X19257644Y25621319D01*
X19643151Y25780607D01*
X19938356Y26075297D01*
X20098317Y26460526D01*
X20098681Y26877644D01*
X19939393Y27263151D01*
X19644703Y27558356D01*
X19568495Y27590000D01*
X21070923Y27590000D01*
X20996849Y27559393D01*
X20701644Y27264703D01*
X20541683Y26879474D01*
X20541319Y26462356D01*
X20700607Y26076849D01*
X20995297Y25781644D01*
X21380526Y25621683D01*
X21797644Y25621319D01*
X22183151Y25780607D01*
X22478356Y26075297D01*
X22638317Y26460526D01*
X22638681Y26877644D01*
X22479393Y27263151D01*
X22184703Y27558356D01*
X22108495Y27590000D01*
X23610923Y27590000D01*
X23536849Y27559393D01*
X23241644Y27264703D01*
X23081683Y26879474D01*
X23081319Y26462356D01*
X23240607Y26076849D01*
X23535297Y25781644D01*
X23920526Y25621683D01*
X24337644Y25621319D01*
X24723151Y25780607D01*
X25018356Y26075297D01*
X25178317Y26460526D01*
X25178681Y26877644D01*
X25019393Y27263151D01*
X24724703Y27558356D01*
X24648495Y27590000D01*
X26150923Y27590000D01*
X26076849Y27559393D01*
X25781644Y27264703D01*
X25621683Y26879474D01*
X25621319Y26462356D01*
X25780607Y26076849D01*
X26075297Y25781644D01*
X26460526Y25621683D01*
X26877644Y25621319D01*
X27263151Y25780607D01*
X27558356Y26075297D01*
X27718317Y26460526D01*
X27718681Y26877644D01*
X27559393Y27263151D01*
X27264703Y27558356D01*
X27188495Y27590000D01*
X28690923Y27590000D01*
X28616849Y27559393D01*
X28321644Y27264703D01*
X28161683Y26879474D01*
X28161319Y26462356D01*
X28320607Y26076849D01*
X28615297Y25781644D01*
X29000526Y25621683D01*
X29417644Y25621319D01*
X29803151Y25780607D01*
X30098356Y26075297D01*
X30258317Y26460526D01*
X30258681Y26877644D01*
X30099393Y27263151D01*
X29804703Y27558356D01*
X29728495Y27590000D01*
X31230923Y27590000D01*
X31156849Y27559393D01*
X30861644Y27264703D01*
X30701683Y26879474D01*
X30701319Y26462356D01*
X30860607Y26076849D01*
X31155297Y25781644D01*
X31540526Y25621683D01*
X31957644Y25621319D01*
X32343151Y25780607D01*
X32638356Y26075297D01*
X32798317Y26460526D01*
X32798681Y26877644D01*
X32639393Y27263151D01*
X32344703Y27558356D01*
X32268495Y27590000D01*
X33770923Y27590000D01*
X33696849Y27559393D01*
X33401644Y27264703D01*
X33241683Y26879474D01*
X33241319Y26462356D01*
X33400607Y26076849D01*
X33695297Y25781644D01*
X34080526Y25621683D01*
X34497644Y25621319D01*
X34883151Y25780607D01*
X35178356Y26075297D01*
X35338317Y26460526D01*
X35338681Y26877644D01*
X35179393Y27263151D01*
X34884703Y27558356D01*
X34808495Y27590000D01*
X36310923Y27590000D01*
X36236849Y27559393D01*
X35941644Y27264703D01*
X35781683Y26879474D01*
X35781319Y26462356D01*
X35940607Y26076849D01*
X36235297Y25781644D01*
X36620526Y25621683D01*
X37037644Y25621319D01*
X37423151Y25780607D01*
X37718356Y26075297D01*
X37878317Y26460526D01*
X37878681Y26877644D01*
X37719393Y27263151D01*
X37424703Y27558356D01*
X37348495Y27590000D01*
X38850923Y27590000D01*
X38776849Y27559393D01*
X38481644Y27264703D01*
X38321683Y26879474D01*
X38321319Y26462356D01*
X38480607Y26076849D01*
X38670000Y25887126D01*
X38670000Y24439870D01*
X38200631Y24439870D01*
X38071991Y24386586D01*
X37973535Y24288129D01*
X37920250Y24159490D01*
X37920250Y24020251D01*
X37920250Y22089049D01*
X37845821Y22014649D01*
X37845786Y22014599D01*
X37845736Y22014564D01*
X37780727Y21917272D01*
X37715718Y21820021D01*
X37715706Y21819961D01*
X37715672Y21819910D01*
X37692834Y21705097D01*
X37670000Y21590420D01*
X37670011Y21590360D01*
X37670000Y21590300D01*
X37670000Y21338528D01*
X36845736Y20514264D01*
X36715672Y20319610D01*
X36679647Y20138500D01*
X36501881Y20138500D01*
X36373241Y20085216D01*
X36274785Y19986759D01*
X36221500Y19858120D01*
X36221500Y19718881D01*
X36221500Y18321881D01*
X36274784Y18193241D01*
X36373241Y18094785D01*
X36426672Y18072653D01*
X36415906Y18056541D01*
X36350745Y17959086D01*
X36350726Y17958991D01*
X36350672Y17958910D01*
X36327812Y17843988D01*
X36318984Y17799679D01*
X36238538Y17833000D01*
X36076500Y17833000D01*
X35996661Y17833000D01*
X35941000Y17833000D01*
X35789002Y17681002D01*
X35789002Y17833000D01*
X35708942Y17833000D01*
X35812905Y17876063D01*
X35983938Y18047096D01*
X36076500Y18270562D01*
X36076500Y18512439D01*
X36076500Y18784000D01*
X36076500Y19396000D01*
X36076500Y19667561D01*
X36076500Y19909438D01*
X35983938Y20132904D01*
X35812905Y20303937D01*
X35589439Y20396500D01*
X35076000Y20396500D01*
X34924000Y20244500D01*
X34924000Y19244000D01*
X35924500Y19244000D01*
X36076500Y19396000D01*
X36076500Y18784000D01*
X35924500Y18936000D01*
X34924000Y18936000D01*
X34924000Y17935500D01*
X35027953Y17831547D01*
X34877750Y17769331D01*
X34877750Y20969192D01*
X34877750Y21211069D01*
X34877750Y22284000D01*
X34877750Y22896000D01*
X34877750Y23968931D01*
X34877750Y24210808D01*
X34785188Y24434274D01*
X34614155Y24605307D01*
X34390689Y24697870D01*
X33576260Y24697870D01*
X33424260Y24545870D01*
X33424260Y22744000D01*
X34725750Y22744000D01*
X34877750Y22896000D01*
X34877750Y22284000D01*
X34725750Y22436000D01*
X33424260Y22436000D01*
X33424260Y20634130D01*
X33576260Y20482130D01*
X34390689Y20482130D01*
X34614155Y20574693D01*
X34785188Y20745726D01*
X34877750Y20969192D01*
X34877750Y17769331D01*
X34807996Y17740438D01*
X34636963Y17569405D01*
X34616000Y17518797D01*
X34616000Y17935500D01*
X34616000Y18936000D01*
X34616000Y19244000D01*
X34616000Y20244500D01*
X34464000Y20396500D01*
X33950561Y20396500D01*
X33727095Y20303937D01*
X33556062Y20132904D01*
X33463500Y19909438D01*
X33463500Y19667561D01*
X33463500Y19396000D01*
X33615500Y19244000D01*
X34616000Y19244000D01*
X34616000Y18936000D01*
X33615500Y18936000D01*
X33463500Y18784000D01*
X33463500Y18512439D01*
X33463500Y18270562D01*
X33556062Y18047096D01*
X33727095Y17876063D01*
X33950561Y17783500D01*
X34464000Y17783500D01*
X34616000Y17935500D01*
X34616000Y17518797D01*
X34544400Y17345939D01*
X34544400Y16896000D01*
X34696400Y16744000D01*
X35481000Y16744000D01*
X35481000Y16764000D01*
X35789000Y16764000D01*
X35789000Y16744000D01*
X35809000Y16744000D01*
X35809000Y16436000D01*
X35789000Y16436000D01*
X35789000Y15499000D01*
X35941000Y15347000D01*
X35996661Y15347000D01*
X36238538Y15347000D01*
X36462004Y15439562D01*
X36627442Y15605000D01*
X37457219Y15605000D01*
X37585859Y15658284D01*
X37684315Y15756741D01*
X37737600Y15885380D01*
X37737600Y16024619D01*
X37737600Y17294619D01*
X37684316Y17423259D01*
X37664515Y17443059D01*
X37694264Y17462936D01*
X37824328Y17657590D01*
X37870000Y17887200D01*
X37870000Y18041500D01*
X38038119Y18041500D01*
X38166759Y18094784D01*
X38265215Y18193241D01*
X38318500Y18321880D01*
X38318500Y18461119D01*
X38318500Y19858119D01*
X38265216Y19986759D01*
X38166759Y20085215D01*
X38129271Y20100744D01*
X38694264Y20665736D01*
X38743972Y20740130D01*
X40338849Y20740130D01*
X40467489Y20793414D01*
X40565945Y20891871D01*
X40619230Y21020510D01*
X40619230Y21159749D01*
X40619230Y24159489D01*
X40565946Y24288129D01*
X40467489Y24386585D01*
X40338850Y24439870D01*
X40199611Y24439870D01*
X39870000Y24439870D01*
X39870000Y25742118D01*
X39963151Y25780607D01*
X40258356Y26075297D01*
X40418317Y26460526D01*
X40418681Y26877644D01*
X40259393Y27263151D01*
X39964703Y27558356D01*
X39888495Y27590000D01*
X40938025Y27590000D01*
X40914785Y27566759D01*
X40861500Y27438120D01*
X40861500Y27298881D01*
X40861500Y25901881D01*
X40914784Y25773241D01*
X41013241Y25674785D01*
X41141880Y25621500D01*
X41281119Y25621500D01*
X42678119Y25621500D01*
X42806759Y25674784D01*
X42830000Y25698026D01*
X42830000Y2241975D01*
M02*
