  0
SECTION
  2
HEADER
  9
$ANGBASE
  50
0.0
  9
$ANGDIR
  70
  1
  9
$MEASUREMENT
  70
0
  0
ENDSEC
  0
SECTION
  2
TABLES
  0
TABLE
  2
LTYPE
  70
1
  0
LTYPE
  2
CONTINUOUS
  70
0
  3
Solid line
  72
65
  73
0
  40
0.0
  0
ENDTAB
  0
TABLE
  2
STYLE
  70
4
  0
STYLE
  2
KICAD
  70
0
  40
0
  41
1
  42
1
  50
0
  71
0
  3
isocp.shx
  0
STYLE
  2
KICADB
  70
0
  40
0
  41
1
  42
1
  50
0
  71
0
  3
isocp.shx
  0
STYLE
  2
KICADI
  70
0
  40
0
  41
1
  42
1
  50
15
  71
0
  3
isocp.shx
  0
STYLE
  2
KICADBI
  70
0
  40
0
  41
1
  42
1
  50
15
  71
0
  3
isocp.shx
  0
ENDTAB
  0
TABLE
  2
LAYER
  70
30
  0
LAYER
  2
BLACK
  70
0
  62
7
  6
CONTINUOUS
  0
LAYER
  2
GRAY1
  70
0
  62
251
  6
CONTINUOUS
  0
LAYER
  2
GRAY2
  70
0
  62
8
  6
CONTINUOUS
  0
LAYER
  2
GRAY3
  70
0
  62
9
  6
CONTINUOUS
  0
LAYER
  2
WHITE
  70
0
  62
7
  6
CONTINUOUS
  0
LAYER
  2
LYELLOW
  70
0
  62
51
  6
CONTINUOUS
  0
LAYER
  2
BLUE1
  70
0
  62
178
  6
CONTINUOUS
  0
LAYER
  2
GREEN1
  70
0
  62
98
  6
CONTINUOUS
  0
LAYER
  2
CYAN1
  70
0
  62
138
  6
CONTINUOUS
  0
LAYER
  2
RED1
  70
0
  62
18
  6
CONTINUOUS
  0
LAYER
  2
MAGENTA1
  70
0
  62
228
  6
CONTINUOUS
  0
LAYER
  2
BROWN1
  70
0
  62
58
  6
CONTINUOUS
  0
LAYER
  2
BLUE2
  70
0
  62
5
  6
CONTINUOUS
  0
LAYER
  2
GREEN2
  70
0
  62
3
  6
CONTINUOUS
  0
LAYER
  2
CYAN2
  70
0
  62
4
  6
CONTINUOUS
  0
LAYER
  2
RED2
  70
0
  62
1
  6
CONTINUOUS
  0
LAYER
  2
MAGENTA2
  70
0
  62
6
  6
CONTINUOUS
  0
LAYER
  2
BROWN2
  70
0
  62
54
  6
CONTINUOUS
  0
LAYER
  2
BLUE3
  70
0
  62
171
  6
CONTINUOUS
  0
LAYER
  2
GREEN3
  70
0
  62
91
  6
CONTINUOUS
  0
LAYER
  2
CYAN3
  70
0
  62
131
  6
CONTINUOUS
  0
LAYER
  2
RED3
  70
0
  62
11
  6
CONTINUOUS
  0
LAYER
  2
MAGENTA3
  70
0
  62
221
  6
CONTINUOUS
  0
LAYER
  2
YELLOW3
  70
0
  62
2
  6
CONTINUOUS
  0
LAYER
  2
BLUE4
  70
0
  62
5
  6
CONTINUOUS
  0
LAYER
  2
GREEN4
  70
0
  62
3
  6
CONTINUOUS
  0
LAYER
  2
CYAN4
  70
0
  62
4
  6
CONTINUOUS
  0
LAYER
  2
RED4
  70
0
  62
1
  6
CONTINUOUS
  0
LAYER
  2
MAGENTA4
  70
0
  62
6
  6
CONTINUOUS
  0
LAYER
  2
YELLOW4
  70
0
  62
2
  6
CONTINUOUS
  0
ENDTAB
  0
ENDSEC
  0
SECTION
  2
ENTITIES
0
LINE
8
Black
10
36.1176
20
17.225
11
35.1524
21
17.225
0
LINE
8
Black
10
35.1524
20
17.225
11
35.1524
21
15.955
0
LINE
8
Black
10
35.1524
20
15.955
11
36.1176
21
15.955
0
LINE
8
Black
10
36.1176
20
15.955
11
36.1176
21
17.225
0
LINE
8
Black
10
37.3876
20
17.225
11
36.4224
21
17.225
0
LINE
8
Black
10
36.4224
20
17.225
11
36.4224
21
15.955
0
LINE
8
Black
10
36.4224
20
15.955
11
37.3876
21
15.955
0
LINE
8
Black
10
37.3876
20
15.955
11
37.3876
21
17.225
0
LINE
8
Black
10
9.7155
20
10.7315
11
9.7155
21
9.5885
0
LINE
8
Black
10
9.7155
20
9.5885
11
10.3505
21
9.5885
0
LINE
8
Black
10
10.3505
20
9.5885
11
10.3505
21
10.7315
0
LINE
8
Black
10
10.3505
20
10.7315
11
9.7155
21
10.7315
0
LINE
8
Black
10
11.2395
20
10.7315
11
11.2395
21
9.5885
0
LINE
8
Black
10
11.2395
20
9.5885
11
11.8745
21
9.5885
0
LINE
8
Black
10
11.8745
20
9.5885
11
11.8745
21
10.7315
0
LINE
8
Black
10
11.8745
20
10.7315
11
11.2395
21
10.7315
0
LINE
8
Black
10
38.8495
20
13.0185
11
38.8495
21
14.1615
0
LINE
8
Black
10
38.8495
20
14.1615
11
38.2145
21
14.1615
0
LINE
8
Black
10
38.2145
20
14.1615
11
38.2145
21
13.0185
0
LINE
8
Black
10
38.2145
20
13.0185
11
38.8495
21
13.0185
0
LINE
8
Black
10
37.3255
20
13.0185
11
37.3255
21
14.1615
0
LINE
8
Black
10
37.3255
20
14.1615
11
36.6905
21
14.1615
0
LINE
8
Black
10
36.6905
20
14.1615
11
36.6905
21
13.0185
0
LINE
8
Black
10
36.6905
20
13.0185
11
37.3255
21
13.0185
0
LINE
8
Black
10
32.2708
20
24.0899
11
32.2708
21
21.0901
0
LINE
8
Black
10
32.2708
20
21.0901
11
34.2698
21
21.0901
0
LINE
8
Black
10
34.2698
20
21.0901
11
34.2698
21
24.0899
0
LINE
8
Black
10
34.2698
20
24.0899
11
32.2708
21
24.0899
0
LINE
8
Black
10
38.2703
20
24.0899
11
38.2703
21
21.0901
0
LINE
8
Black
10
38.2703
20
21.0901
11
40.2692
21
21.0901
0
LINE
8
Black
10
40.2692
20
21.0901
11
40.2692
21
24.0899
0
LINE
8
Black
10
40.2692
20
24.0899
11
38.2703
21
24.0899
0
LINE
8
Black
10
23.7698
20
15.739
11
16.9702
21
15.739
0
LINE
8
Black
10
16.9702
20
15.739
11
16.9702
21
13.8899
0
LINE
8
Black
10
16.9702
20
13.8899
11
23.7698
21
13.8899
0
LINE
8
Black
10
23.7698
20
13.8899
11
23.7698
21
15.739
0
LINE
8
Black
10
23.7698
20
20.8901
11
16.9702
21
20.8901
0
LINE
8
Black
10
16.9702
20
20.8901
11
16.9702
21
19.041
0
LINE
8
Black
10
16.9702
20
19.041
11
23.7698
21
19.041
0
LINE
8
Black
10
23.7698
20
19.041
11
23.7698
21
20.8901
  0
ENDSEC
  0
EOF
