  0
SECTION
  2
HEADER
  9
$ANGBASE
  50
0.0
  9
$ANGDIR
  70
  1
  9
$MEASUREMENT
  70
0
  0
ENDSEC
  0
SECTION
  2
TABLES
  0
TABLE
  2
LTYPE
  70
1
  0
LTYPE
  2
CONTINUOUS
  70
0
  3
Solid line
  72
65
  73
0
  40
0.0
  0
ENDTAB
  0
TABLE
  2
STYLE
  70
4
  0
STYLE
  2
KICAD
  70
0
  40
0
  41
1
  42
1
  50
0
  71
0
  3
isocp.shx
  0
STYLE
  2
KICADB
  70
0
  40
0
  41
1
  42
1
  50
0
  71
0
  3
isocp.shx
  0
STYLE
  2
KICADI
  70
0
  40
0
  41
1
  42
1
  50
15
  71
0
  3
isocp.shx
  0
STYLE
  2
KICADBI
  70
0
  40
0
  41
1
  42
1
  50
15
  71
0
  3
isocp.shx
  0
ENDTAB
  0
TABLE
  2
LAYER
  70
30
  0
LAYER
  2
BLACK
  70
0
  62
7
  6
CONTINUOUS
  0
LAYER
  2
GRAY1
  70
0
  62
251
  6
CONTINUOUS
  0
LAYER
  2
GRAY2
  70
0
  62
8
  6
CONTINUOUS
  0
LAYER
  2
GRAY3
  70
0
  62
9
  6
CONTINUOUS
  0
LAYER
  2
WHITE
  70
0
  62
7
  6
CONTINUOUS
  0
LAYER
  2
LYELLOW
  70
0
  62
51
  6
CONTINUOUS
  0
LAYER
  2
BLUE1
  70
0
  62
178
  6
CONTINUOUS
  0
LAYER
  2
GREEN1
  70
0
  62
98
  6
CONTINUOUS
  0
LAYER
  2
CYAN1
  70
0
  62
138
  6
CONTINUOUS
  0
LAYER
  2
RED1
  70
0
  62
18
  6
CONTINUOUS
  0
LAYER
  2
MAGENTA1
  70
0
  62
228
  6
CONTINUOUS
  0
LAYER
  2
BROWN1
  70
0
  62
58
  6
CONTINUOUS
  0
LAYER
  2
BLUE2
  70
0
  62
5
  6
CONTINUOUS
  0
LAYER
  2
GREEN2
  70
0
  62
3
  6
CONTINUOUS
  0
LAYER
  2
CYAN2
  70
0
  62
4
  6
CONTINUOUS
  0
LAYER
  2
RED2
  70
0
  62
1
  6
CONTINUOUS
  0
LAYER
  2
MAGENTA2
  70
0
  62
6
  6
CONTINUOUS
  0
LAYER
  2
BROWN2
  70
0
  62
54
  6
CONTINUOUS
  0
LAYER
  2
BLUE3
  70
0
  62
171
  6
CONTINUOUS
  0
LAYER
  2
GREEN3
  70
0
  62
91
  6
CONTINUOUS
  0
LAYER
  2
CYAN3
  70
0
  62
131
  6
CONTINUOUS
  0
LAYER
  2
RED3
  70
0
  62
11
  6
CONTINUOUS
  0
LAYER
  2
MAGENTA3
  70
0
  62
221
  6
CONTINUOUS
  0
LAYER
  2
YELLOW3
  70
0
  62
2
  6
CONTINUOUS
  0
LAYER
  2
BLUE4
  70
0
  62
5
  6
CONTINUOUS
  0
LAYER
  2
GREEN4
  70
0
  62
3
  6
CONTINUOUS
  0
LAYER
  2
CYAN4
  70
0
  62
4
  6
CONTINUOUS
  0
LAYER
  2
RED4
  70
0
  62
1
  6
CONTINUOUS
  0
LAYER
  2
MAGENTA4
  70
0
  62
6
  6
CONTINUOUS
  0
LAYER
  2
YELLOW4
  70
0
  62
2
  6
CONTINUOUS
  0
ENDTAB
  0
ENDSEC
  0
SECTION
  2
ENTITIES
0
LINE
8
Black
10
126.72
20
-65.62
11
126.22
21
-65.62
0
LINE
8
Black
10
126.22
20
-65.62
11
126.22
21
-63.92
0
LINE
8
Black
10
126.22
20
-63.92
11
126.72
21
-63.92
0
LINE
8
Black
10
126.72
20
-63.92
11
126.72
21
-65.62
0
LINE
8
Black
10
126.72
20
-78.12
11
126.22
21
-78.12
0
LINE
8
Black
10
126.22
20
-78.12
11
126.22
21
-76.42
0
LINE
8
Black
10
126.22
20
-76.42
11
126.72
21
-76.42
0
LINE
8
Black
10
126.72
20
-76.42
11
126.72
21
-78.12
0
LINE
8
Black
10
127.52
20
-65.62
11
127.02
21
-65.62
0
LINE
8
Black
10
127.02
20
-65.62
11
127.02
21
-63.92
0
LINE
8
Black
10
127.02
20
-63.92
11
127.52
21
-63.92
0
LINE
8
Black
10
127.52
20
-63.92
11
127.52
21
-65.62
0
LINE
8
Black
10
127.52
20
-78.12
11
127.02
21
-78.12
0
LINE
8
Black
10
127.02
20
-78.12
11
127.02
21
-76.42
0
LINE
8
Black
10
127.02
20
-76.42
11
127.52
21
-76.42
0
LINE
8
Black
10
127.52
20
-76.42
11
127.52
21
-78.12
0
LINE
8
Black
10
128.32
20
-65.62
11
127.82
21
-65.62
0
LINE
8
Black
10
127.82
20
-65.62
11
127.82
21
-63.92
0
LINE
8
Black
10
127.82
20
-63.92
11
128.32
21
-63.92
0
LINE
8
Black
10
128.32
20
-63.92
11
128.32
21
-65.62
0
LINE
8
Black
10
128.32
20
-78.12
11
127.82
21
-78.12
0
LINE
8
Black
10
127.82
20
-78.12
11
127.82
21
-76.42
0
LINE
8
Black
10
127.82
20
-76.42
11
128.32
21
-76.42
0
LINE
8
Black
10
128.32
20
-76.42
11
128.32
21
-78.12
0
LINE
8
Black
10
129.12
20
-65.62
11
128.62
21
-65.62
0
LINE
8
Black
10
128.62
20
-65.62
11
128.62
21
-63.92
0
LINE
8
Black
10
128.62
20
-63.92
11
129.12
21
-63.92
0
LINE
8
Black
10
129.12
20
-63.92
11
129.12
21
-65.62
0
LINE
8
Black
10
129.12
20
-78.12
11
128.62
21
-78.12
0
LINE
8
Black
10
128.62
20
-78.12
11
128.62
21
-76.42
0
LINE
8
Black
10
128.62
20
-76.42
11
129.12
21
-76.42
0
LINE
8
Black
10
129.12
20
-76.42
11
129.12
21
-78.12
0
LINE
8
Black
10
129.92
20
-65.62
11
129.42
21
-65.62
0
LINE
8
Black
10
129.42
20
-65.62
11
129.42
21
-63.92
0
LINE
8
Black
10
129.42
20
-63.92
11
129.92
21
-63.92
0
LINE
8
Black
10
129.92
20
-63.92
11
129.92
21
-65.62
0
LINE
8
Black
10
129.92
20
-78.12
11
129.42
21
-78.12
0
LINE
8
Black
10
129.42
20
-78.12
11
129.42
21
-76.42
0
LINE
8
Black
10
129.42
20
-76.42
11
129.92
21
-76.42
0
LINE
8
Black
10
129.92
20
-76.42
11
129.92
21
-78.12
0
LINE
8
Black
10
130.72
20
-65.62
11
130.22
21
-65.62
0
LINE
8
Black
10
130.22
20
-65.62
11
130.22
21
-63.92
0
LINE
8
Black
10
130.22
20
-63.92
11
130.72
21
-63.92
0
LINE
8
Black
10
130.72
20
-63.92
11
130.72
21
-65.62
0
LINE
8
Black
10
130.72
20
-78.12
11
130.22
21
-78.12
0
LINE
8
Black
10
130.22
20
-78.12
11
130.22
21
-76.42
0
LINE
8
Black
10
130.22
20
-76.42
11
130.72
21
-76.42
0
LINE
8
Black
10
130.72
20
-76.42
11
130.72
21
-78.12
0
LINE
8
Black
10
131.52
20
-65.62
11
131.02
21
-65.62
0
LINE
8
Black
10
131.02
20
-65.62
11
131.02
21
-63.92
0
LINE
8
Black
10
131.02
20
-63.92
11
131.52
21
-63.92
0
LINE
8
Black
10
131.52
20
-63.92
11
131.52
21
-65.62
0
LINE
8
Black
10
131.52
20
-78.12
11
131.02
21
-78.12
0
LINE
8
Black
10
131.02
20
-78.12
11
131.02
21
-76.42
0
LINE
8
Black
10
131.02
20
-76.42
11
131.52
21
-76.42
0
LINE
8
Black
10
131.52
20
-76.42
11
131.52
21
-78.12
0
LINE
8
Black
10
132.32
20
-65.62
11
131.82
21
-65.62
0
LINE
8
Black
10
131.82
20
-65.62
11
131.82
21
-63.92
0
LINE
8
Black
10
131.82
20
-63.92
11
132.32
21
-63.92
0
LINE
8
Black
10
132.32
20
-63.92
11
132.32
21
-65.62
0
LINE
8
Black
10
132.32
20
-78.12
11
131.82
21
-78.12
0
LINE
8
Black
10
131.82
20
-78.12
11
131.82
21
-76.42
0
LINE
8
Black
10
131.82
20
-76.42
11
132.32
21
-76.42
0
LINE
8
Black
10
132.32
20
-76.42
11
132.32
21
-78.12
0
LINE
8
Black
10
133.12
20
-65.62
11
132.62
21
-65.62
0
LINE
8
Black
10
132.62
20
-65.62
11
132.62
21
-63.92
0
LINE
8
Black
10
132.62
20
-63.92
11
133.12
21
-63.92
0
LINE
8
Black
10
133.12
20
-63.92
11
133.12
21
-65.62
0
LINE
8
Black
10
133.12
20
-78.12
11
132.62
21
-78.12
0
LINE
8
Black
10
132.62
20
-78.12
11
132.62
21
-76.42
0
LINE
8
Black
10
132.62
20
-76.42
11
133.12
21
-76.42
0
LINE
8
Black
10
133.12
20
-76.42
11
133.12
21
-78.12
0
LINE
8
Black
10
133.92
20
-65.62
11
133.42
21
-65.62
0
LINE
8
Black
10
133.42
20
-65.62
11
133.42
21
-63.92
0
LINE
8
Black
10
133.42
20
-63.92
11
133.92
21
-63.92
0
LINE
8
Black
10
133.92
20
-63.92
11
133.92
21
-65.62
0
LINE
8
Black
10
133.92
20
-78.12
11
133.42
21
-78.12
0
LINE
8
Black
10
133.42
20
-78.12
11
133.42
21
-76.42
0
LINE
8
Black
10
133.42
20
-76.42
11
133.92
21
-76.42
0
LINE
8
Black
10
133.92
20
-76.42
11
133.92
21
-78.12
0
LINE
8
Black
10
134.72
20
-65.62
11
134.22
21
-65.62
0
LINE
8
Black
10
134.22
20
-65.62
11
134.22
21
-63.92
0
LINE
8
Black
10
134.22
20
-63.92
11
134.72
21
-63.92
0
LINE
8
Black
10
134.72
20
-63.92
11
134.72
21
-65.62
0
LINE
8
Black
10
134.72
20
-78.12
11
134.22
21
-78.12
0
LINE
8
Black
10
134.22
20
-78.12
11
134.22
21
-76.42
0
LINE
8
Black
10
134.22
20
-76.42
11
134.72
21
-76.42
0
LINE
8
Black
10
134.72
20
-76.42
11
134.72
21
-78.12
0
LINE
8
Black
10
135.52
20
-65.62
11
135.02
21
-65.62
0
LINE
8
Black
10
135.02
20
-65.62
11
135.02
21
-63.92
0
LINE
8
Black
10
135.02
20
-63.92
11
135.52
21
-63.92
0
LINE
8
Black
10
135.52
20
-63.92
11
135.52
21
-65.62
0
LINE
8
Black
10
135.52
20
-78.12
11
135.02
21
-78.12
0
LINE
8
Black
10
135.02
20
-78.12
11
135.02
21
-76.42
0
LINE
8
Black
10
135.02
20
-76.42
11
135.52
21
-76.42
0
LINE
8
Black
10
135.52
20
-76.42
11
135.52
21
-78.12
0
LINE
8
Black
10
136.32
20
-65.62
11
135.82
21
-65.62
0
LINE
8
Black
10
135.82
20
-65.62
11
135.82
21
-63.92
0
LINE
8
Black
10
135.82
20
-63.92
11
136.32
21
-63.92
0
LINE
8
Black
10
136.32
20
-63.92
11
136.32
21
-65.62
0
LINE
8
Black
10
136.32
20
-78.12
11
135.82
21
-78.12
0
LINE
8
Black
10
135.82
20
-78.12
11
135.82
21
-76.42
0
LINE
8
Black
10
135.82
20
-76.42
11
136.32
21
-76.42
0
LINE
8
Black
10
136.32
20
-76.42
11
136.32
21
-78.12
0
LINE
8
Black
10
137.12
20
-65.62
11
136.62
21
-65.62
0
LINE
8
Black
10
136.62
20
-65.62
11
136.62
21
-63.92
0
LINE
8
Black
10
136.62
20
-63.92
11
137.12
21
-63.92
0
LINE
8
Black
10
137.12
20
-63.92
11
137.12
21
-65.62
0
LINE
8
Black
10
137.12
20
-78.12
11
136.62
21
-78.12
0
LINE
8
Black
10
136.62
20
-78.12
11
136.62
21
-76.42
0
LINE
8
Black
10
136.62
20
-76.42
11
137.12
21
-76.42
0
LINE
8
Black
10
137.12
20
-76.42
11
137.12
21
-78.12
0
LINE
8
Black
10
137.92
20
-65.62
11
137.42
21
-65.62
0
LINE
8
Black
10
137.42
20
-65.62
11
137.42
21
-63.92
0
LINE
8
Black
10
137.42
20
-63.92
11
137.92
21
-63.92
0
LINE
8
Black
10
137.92
20
-63.92
11
137.92
21
-65.62
0
LINE
8
Black
10
137.92
20
-78.12
11
137.42
21
-78.12
0
LINE
8
Black
10
137.42
20
-78.12
11
137.42
21
-76.42
0
LINE
8
Black
10
137.42
20
-76.42
11
137.92
21
-76.42
0
LINE
8
Black
10
137.92
20
-76.42
11
137.92
21
-78.12
0
LINE
8
Black
10
138.72
20
-65.62
11
138.22
21
-65.62
0
LINE
8
Black
10
138.22
20
-65.62
11
138.22
21
-63.92
0
LINE
8
Black
10
138.22
20
-63.92
11
138.72
21
-63.92
0
LINE
8
Black
10
138.72
20
-63.92
11
138.72
21
-65.62
0
LINE
8
Black
10
138.72
20
-78.12
11
138.22
21
-78.12
0
LINE
8
Black
10
138.22
20
-78.12
11
138.22
21
-76.42
0
LINE
8
Black
10
138.22
20
-76.42
11
138.72
21
-76.42
0
LINE
8
Black
10
138.72
20
-76.42
11
138.72
21
-78.12
0
LINE
8
Black
10
141.82
20
-66.87
11
140.12
21
-66.87
0
LINE
8
Black
10
140.12
20
-66.87
11
140.12
21
-66.37
0
LINE
8
Black
10
140.12
20
-66.37
11
141.82
21
-66.37
0
LINE
8
Black
10
141.82
20
-66.37
11
141.82
21
-66.87
0
LINE
8
Black
10
141.82
20
-67.67
11
140.12
21
-67.67
0
LINE
8
Black
10
140.12
20
-67.67
11
140.12
21
-67.17
0
LINE
8
Black
10
140.12
20
-67.17
11
141.82
21
-67.17
0
LINE
8
Black
10
141.82
20
-67.17
11
141.82
21
-67.67
0
LINE
8
Black
10
141.82
20
-68.47
11
140.12
21
-68.47
0
LINE
8
Black
10
140.12
20
-68.47
11
140.12
21
-67.97
0
LINE
8
Black
10
140.12
20
-67.97
11
141.82
21
-67.97
0
LINE
8
Black
10
141.82
20
-67.97
11
141.82
21
-68.47
0
LINE
8
Black
10
141.82
20
-69.27
11
140.12
21
-69.27
0
LINE
8
Black
10
140.12
20
-69.27
11
140.12
21
-68.77
0
LINE
8
Black
10
140.12
20
-68.77
11
141.82
21
-68.77
0
LINE
8
Black
10
141.82
20
-68.77
11
141.82
21
-69.27
0
LINE
8
Black
10
141.82
20
-70.07
11
140.12
21
-70.07
0
LINE
8
Black
10
140.12
20
-70.07
11
140.12
21
-69.57
0
LINE
8
Black
10
140.12
20
-69.57
11
141.82
21
-69.57
0
LINE
8
Black
10
141.82
20
-69.57
11
141.82
21
-70.07
0
LINE
8
Black
10
141.82
20
-70.87
11
140.12
21
-70.87
0
LINE
8
Black
10
140.12
20
-70.87
11
140.12
21
-70.37
0
LINE
8
Black
10
140.12
20
-70.37
11
141.82
21
-70.37
0
LINE
8
Black
10
141.82
20
-70.37
11
141.82
21
-70.87
0
LINE
8
Black
10
141.82
20
-71.67
11
140.12
21
-71.67
0
LINE
8
Black
10
140.12
20
-71.67
11
140.12
21
-71.17
0
LINE
8
Black
10
140.12
20
-71.17
11
141.82
21
-71.17
0
LINE
8
Black
10
141.82
20
-71.17
11
141.82
21
-71.67
0
LINE
8
Black
10
141.82
20
-72.47
11
140.12
21
-72.47
0
LINE
8
Black
10
140.12
20
-72.47
11
140.12
21
-71.97
0
LINE
8
Black
10
140.12
20
-71.97
11
141.82
21
-71.97
0
LINE
8
Black
10
141.82
20
-71.97
11
141.82
21
-72.47
0
LINE
8
Black
10
141.82
20
-73.27
11
140.12
21
-73.27
0
LINE
8
Black
10
140.12
20
-73.27
11
140.12
21
-72.77
0
LINE
8
Black
10
140.12
20
-72.77
11
141.82
21
-72.77
0
LINE
8
Black
10
141.82
20
-72.77
11
141.82
21
-73.27
0
LINE
8
Black
10
141.82
20
-74.07
11
140.12
21
-74.07
0
LINE
8
Black
10
140.12
20
-74.07
11
140.12
21
-73.57
0
LINE
8
Black
10
140.12
20
-73.57
11
141.82
21
-73.57
0
LINE
8
Black
10
141.82
20
-73.57
11
141.82
21
-74.07
0
LINE
8
Black
10
141.82
20
-74.87
11
140.12
21
-74.87
0
LINE
8
Black
10
140.12
20
-74.87
11
140.12
21
-74.37
0
LINE
8
Black
10
140.12
20
-74.37
11
141.82
21
-74.37
0
LINE
8
Black
10
141.82
20
-74.37
11
141.82
21
-74.87
0
LINE
8
Black
10
141.82
20
-75.67
11
140.12
21
-75.67
0
LINE
8
Black
10
140.12
20
-75.67
11
140.12
21
-75.17
0
LINE
8
Black
10
140.12
20
-75.17
11
141.82
21
-75.17
0
LINE
8
Black
10
141.82
20
-75.17
11
141.82
21
-75.67
0
LINE
8
Black
10
124.456
20
-85.1392
11
124.451
21
-85.1392
0
LINE
8
Black
10
124.451
20
-85.1392
11
124.447
21
-85.1377
0
LINE
8
Black
10
124.447
20
-85.1377
11
124.443
21
-85.137
0
LINE
8
Black
10
124.443
20
-85.137
11
124.439
21
-85.1348
0
LINE
8
Black
10
124.439
20
-85.1348
11
124.435
21
-85.1333
0
LINE
8
Black
10
124.435
20
-85.1333
11
124.432
21
-85.1305
0
LINE
8
Black
10
124.432
20
-85.1305
11
124.428
21
-85.1283
0
LINE
8
Black
10
124.428
20
-85.1283
11
124.425
21
-85.125
0
LINE
8
Black
10
124.425
20
-85.125
11
124.422
21
-85.1221
0
LINE
8
Black
10
124.422
20
-85.1221
11
124.42
21
-85.1184
0
LINE
8
Black
10
124.42
20
-85.1184
11
124.417
21
-85.115
0
LINE
8
Black
10
124.417
20
-85.115
11
124.415
21
-85.1109
0
LINE
8
Black
10
124.415
20
-85.1109
11
124.413
21
-85.1071
0
LINE
8
Black
10
124.413
20
-85.1071
11
124.412
21
-85.1028
0
LINE
8
Black
10
124.412
20
-85.1028
11
124.411
21
-85.0987
0
LINE
8
Black
10
124.411
20
-85.0987
11
124.411
21
-85.0943
0
LINE
8
Black
10
124.411
20
-85.0943
11
124.41
21
-85.09
0
LINE
8
Black
10
124.41
20
-85.09
11
124.41
21
-57.15
0
LINE
8
Black
10
124.41
20
-57.15
11
124.411
21
-57.1457
0
LINE
8
Black
10
124.411
20
-57.1457
11
124.411
21
-57.1413
0
LINE
8
Black
10
124.411
20
-57.1413
11
124.412
21
-57.1372
0
LINE
8
Black
10
124.412
20
-57.1372
11
124.413
21
-57.1329
0
LINE
8
Black
10
124.413
20
-57.1329
11
124.415
21
-57.1291
0
LINE
8
Black
10
124.415
20
-57.1291
11
124.417
21
-57.125
0
LINE
8
Black
10
124.417
20
-57.125
11
124.42
21
-57.1216
0
LINE
8
Black
10
124.42
20
-57.1216
11
124.422
21
-57.1179
0
LINE
8
Black
10
124.422
20
-57.1179
11
124.425
21
-57.115
0
LINE
8
Black
10
124.425
20
-57.115
11
124.428
21
-57.1117
0
LINE
8
Black
10
124.428
20
-57.1117
11
124.432
21
-57.1095
0
LINE
8
Black
10
124.432
20
-57.1095
11
124.435
21
-57.1067
0
LINE
8
Black
10
124.435
20
-57.1067
11
124.439
21
-57.1052
0
LINE
8
Black
10
124.439
20
-57.1052
11
124.443
21
-57.103
0
LINE
8
Black
10
124.443
20
-57.103
11
124.447
21
-57.1023
0
LINE
8
Black
10
124.447
20
-57.1023
11
124.451
21
-57.1008
0
LINE
8
Black
10
124.451
20
-57.1008
11
124.456
21
-57.1008
0
LINE
8
Black
10
124.456
20
-57.1008
11
124.46
21
-57.1
0
LINE
8
Black
10
124.46
20
-57.1
11
168.91
21
-57.1
0
LINE
8
Black
10
168.91
20
-57.1
11
168.914
21
-57.1008
0
LINE
8
Black
10
168.914
20
-57.1008
11
168.919
21
-57.1008
0
LINE
8
Black
10
168.919
20
-57.1008
11
168.923
21
-57.1023
0
LINE
8
Black
10
168.923
20
-57.1023
11
168.927
21
-57.103
0
LINE
8
Black
10
168.927
20
-57.103
11
168.931
21
-57.1052
0
LINE
8
Black
10
168.931
20
-57.1052
11
168.935
21
-57.1067
0
LINE
8
Black
10
168.935
20
-57.1067
11
168.938
21
-57.1095
0
LINE
8
Black
10
168.938
20
-57.1095
11
168.942
21
-57.1117
0
LINE
8
Black
10
168.942
20
-57.1117
11
168.945
21
-57.115
0
LINE
8
Black
10
168.945
20
-57.115
11
168.948
21
-57.1179
0
LINE
8
Black
10
168.948
20
-57.1179
11
168.95
21
-57.1216
0
LINE
8
Black
10
168.95
20
-57.1216
11
168.953
21
-57.125
0
LINE
8
Black
10
168.953
20
-57.125
11
168.955
21
-57.1291
0
LINE
8
Black
10
168.955
20
-57.1291
11
168.957
21
-57.1329
0
LINE
8
Black
10
168.957
20
-57.1329
11
168.958
21
-57.1372
0
LINE
8
Black
10
168.958
20
-57.1372
11
168.959
21
-57.1413
0
LINE
8
Black
10
168.959
20
-57.1413
11
168.959
21
-57.1457
0
LINE
8
Black
10
168.959
20
-57.1457
11
168.96
21
-57.15
0
LINE
8
Black
10
168.96
20
-57.15
11
168.96
21
-85.09
0
LINE
8
Black
10
168.96
20
-85.09
11
168.959
21
-85.0943
0
LINE
8
Black
10
168.959
20
-85.0943
11
168.959
21
-85.0987
0
LINE
8
Black
10
168.959
20
-85.0987
11
168.958
21
-85.1028
0
LINE
8
Black
10
168.958
20
-85.1028
11
168.957
21
-85.1071
0
LINE
8
Black
10
168.957
20
-85.1071
11
168.955
21
-85.1109
0
LINE
8
Black
10
168.955
20
-85.1109
11
168.953
21
-85.115
0
LINE
8
Black
10
168.953
20
-85.115
11
168.95
21
-85.1184
0
LINE
8
Black
10
168.95
20
-85.1184
11
168.948
21
-85.1221
0
LINE
8
Black
10
168.948
20
-85.1221
11
168.945
21
-85.125
0
LINE
8
Black
10
168.945
20
-85.125
11
168.942
21
-85.1283
0
LINE
8
Black
10
168.942
20
-85.1283
11
168.938
21
-85.1305
0
LINE
8
Black
10
168.938
20
-85.1305
11
168.935
21
-85.1333
0
LINE
8
Black
10
168.935
20
-85.1333
11
168.931
21
-85.1348
0
LINE
8
Black
10
168.931
20
-85.1348
11
168.927
21
-85.137
0
LINE
8
Black
10
168.927
20
-85.137
11
168.923
21
-85.1377
0
LINE
8
Black
10
168.923
20
-85.1377
11
168.919
21
-85.1392
0
LINE
8
Black
10
168.919
20
-85.1392
11
168.914
21
-85.1392
0
LINE
8
Black
10
168.914
20
-85.1392
11
168.91
21
-85.14
0
LINE
8
Black
10
168.91
20
-85.14
11
124.46
21
-85.14
0
LINE
8
Black
10
124.46
20
-85.14
11
124.456
21
-85.1392
0
LINE
8
Black
10
168.86
20
-57.2
11
124.51
21
-57.2
0
LINE
8
Black
10
124.51
20
-57.2
11
124.51
21
-85.04
0
LINE
8
Black
10
124.51
20
-85.04
11
168.86
21
-85.04
0
LINE
8
Black
10
168.86
20
-85.04
11
168.86
21
-57.2
  0
ENDSEC
  0
EOF
