  0
SECTION
  2
HEADER
  9
$ANGBASE
  50
0.0
  9
$ANGDIR
  70
  1
  9
$MEASUREMENT
  70
0
  0
ENDSEC
  0
SECTION
  2
TABLES
  0
TABLE
  2
LTYPE
  70
1
  0
LTYPE
  2
CONTINUOUS
  70
0
  3
Solid line
  72
65
  73
0
  40
0.0
  0
ENDTAB
  0
TABLE
  2
STYLE
  70
4
  0
STYLE
  2
KICAD
  70
0
  40
0
  41
1
  42
1
  50
0
  71
0
  3
isocp.shx
  0
STYLE
  2
KICADB
  70
0
  40
0
  41
1
  42
1
  50
0
  71
0
  3
isocp.shx
  0
STYLE
  2
KICADI
  70
0
  40
0
  41
1
  42
1
  50
15
  71
0
  3
isocp.shx
  0
STYLE
  2
KICADBI
  70
0
  40
0
  41
1
  42
1
  50
15
  71
0
  3
isocp.shx
  0
ENDTAB
  0
TABLE
  2
LAYER
  70
30
  0
LAYER
  2
BLACK
  70
0
  62
7
  6
CONTINUOUS
  0
LAYER
  2
GRAY1
  70
0
  62
251
  6
CONTINUOUS
  0
LAYER
  2
GRAY2
  70
0
  62
8
  6
CONTINUOUS
  0
LAYER
  2
GRAY3
  70
0
  62
9
  6
CONTINUOUS
  0
LAYER
  2
WHITE
  70
0
  62
7
  6
CONTINUOUS
  0
LAYER
  2
LYELLOW
  70
0
  62
51
  6
CONTINUOUS
  0
LAYER
  2
BLUE1
  70
0
  62
178
  6
CONTINUOUS
  0
LAYER
  2
GREEN1
  70
0
  62
98
  6
CONTINUOUS
  0
LAYER
  2
CYAN1
  70
0
  62
138
  6
CONTINUOUS
  0
LAYER
  2
RED1
  70
0
  62
18
  6
CONTINUOUS
  0
LAYER
  2
MAGENTA1
  70
0
  62
228
  6
CONTINUOUS
  0
LAYER
  2
BROWN1
  70
0
  62
58
  6
CONTINUOUS
  0
LAYER
  2
BLUE2
  70
0
  62
5
  6
CONTINUOUS
  0
LAYER
  2
GREEN2
  70
0
  62
3
  6
CONTINUOUS
  0
LAYER
  2
CYAN2
  70
0
  62
4
  6
CONTINUOUS
  0
LAYER
  2
RED2
  70
0
  62
1
  6
CONTINUOUS
  0
LAYER
  2
MAGENTA2
  70
0
  62
6
  6
CONTINUOUS
  0
LAYER
  2
BROWN2
  70
0
  62
54
  6
CONTINUOUS
  0
LAYER
  2
BLUE3
  70
0
  62
171
  6
CONTINUOUS
  0
LAYER
  2
GREEN3
  70
0
  62
91
  6
CONTINUOUS
  0
LAYER
  2
CYAN3
  70
0
  62
131
  6
CONTINUOUS
  0
LAYER
  2
RED3
  70
0
  62
11
  6
CONTINUOUS
  0
LAYER
  2
MAGENTA3
  70
0
  62
221
  6
CONTINUOUS
  0
LAYER
  2
YELLOW3
  70
0
  62
2
  6
CONTINUOUS
  0
LAYER
  2
BLUE4
  70
0
  62
5
  6
CONTINUOUS
  0
LAYER
  2
GREEN4
  70
0
  62
3
  6
CONTINUOUS
  0
LAYER
  2
CYAN4
  70
0
  62
4
  6
CONTINUOUS
  0
LAYER
  2
RED4
  70
0
  62
1
  6
CONTINUOUS
  0
LAYER
  2
MAGENTA4
  70
0
  62
6
  6
CONTINUOUS
  0
LAYER
  2
YELLOW4
  70
0
  62
2
  6
CONTINUOUS
  0
ENDTAB
  0
ENDSEC
  0
SECTION
  2
ENTITIES
0
LINE
8
Black
10
136.081
20
-75.5015
11
135.446
21
-75.5015
0
LINE
8
Black
10
135.446
20
-75.5015
11
135.446
21
-74.3585
0
LINE
8
Black
10
135.446
20
-74.3585
11
136.081
21
-74.3585
0
LINE
8
Black
10
136.081
20
-74.3585
11
136.081
21
-75.5015
0
LINE
8
Black
10
137.605
20
-75.5015
11
136.97
21
-75.5015
0
LINE
8
Black
10
136.97
20
-75.5015
11
136.97
21
-74.3585
0
LINE
8
Black
10
136.97
20
-74.3585
11
137.605
21
-74.3585
0
LINE
8
Black
10
137.605
20
-74.3585
11
137.605
21
-75.5015
0
LINE
8
Black
10
149.5
20
-66.049
11
142.7
21
-66.049
0
LINE
8
Black
10
142.7
20
-66.049
11
142.7
21
-64.1999
0
LINE
8
Black
10
142.7
20
-64.1999
11
149.5
21
-64.1999
0
LINE
8
Black
10
149.5
20
-64.1999
11
149.5
21
-66.049
0
LINE
8
Black
10
149.5
20
-71.2001
11
142.7
21
-71.2001
0
LINE
8
Black
10
142.7
20
-71.2001
11
142.7
21
-69.351
0
LINE
8
Black
10
142.7
20
-69.351
11
149.5
21
-69.351
0
LINE
8
Black
10
149.5
20
-69.351
11
149.5
21
-71.2001
0
LINE
8
Black
10
160
20
-63.9999
11
158.001
21
-63.9999
0
LINE
8
Black
10
158.001
20
-63.9999
11
158.001
21
-61.0001
0
LINE
8
Black
10
158.001
20
-61.0001
11
160
21
-61.0001
0
LINE
8
Black
10
160
20
-61.0001
11
160
21
-63.9999
0
LINE
8
Black
10
161.848
20
-69.135
11
160.882
21
-69.135
0
LINE
8
Black
10
160.882
20
-69.135
11
160.882
21
-67.865
0
LINE
8
Black
10
160.882
20
-67.865
11
161.848
21
-67.865
0
LINE
8
Black
10
161.848
20
-67.865
11
161.848
21
-69.135
0
LINE
8
Black
10
163.056
20
-72.0715
11
162.421
21
-72.0715
0
LINE
8
Black
10
162.421
20
-72.0715
11
162.421
21
-70.9285
0
LINE
8
Black
10
162.421
20
-70.9285
11
163.056
21
-70.9285
0
LINE
8
Black
10
163.056
20
-70.9285
11
163.056
21
-72.0715
0
LINE
8
Black
10
163.118
20
-69.135
11
162.152
21
-69.135
0
LINE
8
Black
10
162.152
20
-69.135
11
162.152
21
-67.865
0
LINE
8
Black
10
162.152
20
-67.865
11
163.118
21
-67.865
0
LINE
8
Black
10
163.118
20
-67.865
11
163.118
21
-69.135
0
LINE
8
Black
10
164.58
20
-72.0715
11
163.945
21
-72.0715
0
LINE
8
Black
10
163.945
20
-72.0715
11
163.945
21
-70.9285
0
LINE
8
Black
10
163.945
20
-70.9285
11
164.58
21
-70.9285
0
LINE
8
Black
10
164.58
20
-70.9285
11
164.58
21
-72.0715
0
LINE
8
Black
10
165.999
20
-63.9999
11
164
21
-63.9999
0
LINE
8
Black
10
164
20
-63.9999
11
164
21
-61.0001
0
LINE
8
Black
10
164
20
-61.0001
11
165.999
21
-61.0001
0
LINE
8
Black
10
165.999
20
-61.0001
11
165.999
21
-63.9999
0
LINE
8
Black
10
124.456
20
-85.1392
11
124.451
21
-85.1392
0
LINE
8
Black
10
124.451
20
-85.1392
11
124.447
21
-85.1377
0
LINE
8
Black
10
124.447
20
-85.1377
11
124.443
21
-85.137
0
LINE
8
Black
10
124.443
20
-85.137
11
124.439
21
-85.1348
0
LINE
8
Black
10
124.439
20
-85.1348
11
124.435
21
-85.1333
0
LINE
8
Black
10
124.435
20
-85.1333
11
124.432
21
-85.1305
0
LINE
8
Black
10
124.432
20
-85.1305
11
124.428
21
-85.1283
0
LINE
8
Black
10
124.428
20
-85.1283
11
124.425
21
-85.125
0
LINE
8
Black
10
124.425
20
-85.125
11
124.422
21
-85.1221
0
LINE
8
Black
10
124.422
20
-85.1221
11
124.42
21
-85.1184
0
LINE
8
Black
10
124.42
20
-85.1184
11
124.417
21
-85.115
0
LINE
8
Black
10
124.417
20
-85.115
11
124.415
21
-85.1109
0
LINE
8
Black
10
124.415
20
-85.1109
11
124.413
21
-85.1071
0
LINE
8
Black
10
124.413
20
-85.1071
11
124.412
21
-85.1028
0
LINE
8
Black
10
124.412
20
-85.1028
11
124.411
21
-85.0987
0
LINE
8
Black
10
124.411
20
-85.0987
11
124.411
21
-85.0943
0
LINE
8
Black
10
124.411
20
-85.0943
11
124.41
21
-85.09
0
LINE
8
Black
10
124.41
20
-85.09
11
124.41
21
-57.15
0
LINE
8
Black
10
124.41
20
-57.15
11
124.411
21
-57.1457
0
LINE
8
Black
10
124.411
20
-57.1457
11
124.411
21
-57.1413
0
LINE
8
Black
10
124.411
20
-57.1413
11
124.412
21
-57.1372
0
LINE
8
Black
10
124.412
20
-57.1372
11
124.413
21
-57.1329
0
LINE
8
Black
10
124.413
20
-57.1329
11
124.415
21
-57.1291
0
LINE
8
Black
10
124.415
20
-57.1291
11
124.417
21
-57.125
0
LINE
8
Black
10
124.417
20
-57.125
11
124.42
21
-57.1216
0
LINE
8
Black
10
124.42
20
-57.1216
11
124.422
21
-57.1179
0
LINE
8
Black
10
124.422
20
-57.1179
11
124.425
21
-57.115
0
LINE
8
Black
10
124.425
20
-57.115
11
124.428
21
-57.1117
0
LINE
8
Black
10
124.428
20
-57.1117
11
124.432
21
-57.1095
0
LINE
8
Black
10
124.432
20
-57.1095
11
124.435
21
-57.1067
0
LINE
8
Black
10
124.435
20
-57.1067
11
124.439
21
-57.1052
0
LINE
8
Black
10
124.439
20
-57.1052
11
124.443
21
-57.103
0
LINE
8
Black
10
124.443
20
-57.103
11
124.447
21
-57.1023
0
LINE
8
Black
10
124.447
20
-57.1023
11
124.451
21
-57.1008
0
LINE
8
Black
10
124.451
20
-57.1008
11
124.456
21
-57.1008
0
LINE
8
Black
10
124.456
20
-57.1008
11
124.46
21
-57.1
0
LINE
8
Black
10
124.46
20
-57.1
11
168.91
21
-57.1
0
LINE
8
Black
10
168.91
20
-57.1
11
168.914
21
-57.1008
0
LINE
8
Black
10
168.914
20
-57.1008
11
168.919
21
-57.1008
0
LINE
8
Black
10
168.919
20
-57.1008
11
168.923
21
-57.1023
0
LINE
8
Black
10
168.923
20
-57.1023
11
168.927
21
-57.103
0
LINE
8
Black
10
168.927
20
-57.103
11
168.931
21
-57.1052
0
LINE
8
Black
10
168.931
20
-57.1052
11
168.935
21
-57.1067
0
LINE
8
Black
10
168.935
20
-57.1067
11
168.938
21
-57.1095
0
LINE
8
Black
10
168.938
20
-57.1095
11
168.942
21
-57.1117
0
LINE
8
Black
10
168.942
20
-57.1117
11
168.945
21
-57.115
0
LINE
8
Black
10
168.945
20
-57.115
11
168.948
21
-57.1179
0
LINE
8
Black
10
168.948
20
-57.1179
11
168.95
21
-57.1216
0
LINE
8
Black
10
168.95
20
-57.1216
11
168.953
21
-57.125
0
LINE
8
Black
10
168.953
20
-57.125
11
168.955
21
-57.1291
0
LINE
8
Black
10
168.955
20
-57.1291
11
168.957
21
-57.1329
0
LINE
8
Black
10
168.957
20
-57.1329
11
168.958
21
-57.1372
0
LINE
8
Black
10
168.958
20
-57.1372
11
168.959
21
-57.1413
0
LINE
8
Black
10
168.959
20
-57.1413
11
168.959
21
-57.1457
0
LINE
8
Black
10
168.959
20
-57.1457
11
168.96
21
-57.15
0
LINE
8
Black
10
168.96
20
-57.15
11
168.96
21
-85.09
0
LINE
8
Black
10
168.96
20
-85.09
11
168.959
21
-85.0943
0
LINE
8
Black
10
168.959
20
-85.0943
11
168.959
21
-85.0987
0
LINE
8
Black
10
168.959
20
-85.0987
11
168.958
21
-85.1028
0
LINE
8
Black
10
168.958
20
-85.1028
11
168.957
21
-85.1071
0
LINE
8
Black
10
168.957
20
-85.1071
11
168.955
21
-85.1109
0
LINE
8
Black
10
168.955
20
-85.1109
11
168.953
21
-85.115
0
LINE
8
Black
10
168.953
20
-85.115
11
168.95
21
-85.1184
0
LINE
8
Black
10
168.95
20
-85.1184
11
168.948
21
-85.1221
0
LINE
8
Black
10
168.948
20
-85.1221
11
168.945
21
-85.125
0
LINE
8
Black
10
168.945
20
-85.125
11
168.942
21
-85.1283
0
LINE
8
Black
10
168.942
20
-85.1283
11
168.938
21
-85.1305
0
LINE
8
Black
10
168.938
20
-85.1305
11
168.935
21
-85.1333
0
LINE
8
Black
10
168.935
20
-85.1333
11
168.931
21
-85.1348
0
LINE
8
Black
10
168.931
20
-85.1348
11
168.927
21
-85.137
0
LINE
8
Black
10
168.927
20
-85.137
11
168.923
21
-85.1377
0
LINE
8
Black
10
168.923
20
-85.1377
11
168.919
21
-85.1392
0
LINE
8
Black
10
168.919
20
-85.1392
11
168.914
21
-85.1392
0
LINE
8
Black
10
168.914
20
-85.1392
11
168.91
21
-85.14
0
LINE
8
Black
10
168.91
20
-85.14
11
124.46
21
-85.14
0
LINE
8
Black
10
124.46
20
-85.14
11
124.456
21
-85.1392
0
LINE
8
Black
10
168.86
20
-57.2
11
124.51
21
-57.2
0
LINE
8
Black
10
124.51
20
-57.2
11
124.51
21
-85.04
0
LINE
8
Black
10
124.51
20
-85.04
11
168.86
21
-85.04
0
LINE
8
Black
10
168.86
20
-85.04
11
168.86
21
-57.2
  0
ENDSEC
  0
EOF
