  0
SECTION
  2
HEADER
  9
$ANGBASE
  50
0.0
  9
$ANGDIR
  70
  1
  9
$MEASUREMENT
  70
0
  0
ENDSEC
  0
SECTION
  2
TABLES
  0
TABLE
  2
LTYPE
  70
1
  0
LTYPE
  2
CONTINUOUS
  70
0
  3
Solid line
  72
65
  73
0
  40
0.0
  0
ENDTAB
  0
TABLE
  2
STYLE
  70
4
  0
STYLE
  2
KICAD
  70
0
  40
0
  41
1
  42
1
  50
0
  71
0
  3
isocp.shx
  0
STYLE
  2
KICADB
  70
0
  40
0
  41
1
  42
1
  50
0
  71
0
  3
isocp.shx
  0
STYLE
  2
KICADI
  70
0
  40
0
  41
1
  42
1
  50
15
  71
0
  3
isocp.shx
  0
STYLE
  2
KICADBI
  70
0
  40
0
  41
1
  42
1
  50
15
  71
0
  3
isocp.shx
  0
ENDTAB
  0
TABLE
  2
LAYER
  70
30
  0
LAYER
  2
BLACK
  70
0
  62
7
  6
CONTINUOUS
  0
LAYER
  2
GRAY1
  70
0
  62
251
  6
CONTINUOUS
  0
LAYER
  2
GRAY2
  70
0
  62
8
  6
CONTINUOUS
  0
LAYER
  2
GRAY3
  70
0
  62
9
  6
CONTINUOUS
  0
LAYER
  2
WHITE
  70
0
  62
7
  6
CONTINUOUS
  0
LAYER
  2
LYELLOW
  70
0
  62
51
  6
CONTINUOUS
  0
LAYER
  2
BLUE1
  70
0
  62
178
  6
CONTINUOUS
  0
LAYER
  2
GREEN1
  70
0
  62
98
  6
CONTINUOUS
  0
LAYER
  2
CYAN1
  70
0
  62
138
  6
CONTINUOUS
  0
LAYER
  2
RED1
  70
0
  62
18
  6
CONTINUOUS
  0
LAYER
  2
MAGENTA1
  70
0
  62
228
  6
CONTINUOUS
  0
LAYER
  2
BROWN1
  70
0
  62
58
  6
CONTINUOUS
  0
LAYER
  2
BLUE2
  70
0
  62
5
  6
CONTINUOUS
  0
LAYER
  2
GREEN2
  70
0
  62
3
  6
CONTINUOUS
  0
LAYER
  2
CYAN2
  70
0
  62
4
  6
CONTINUOUS
  0
LAYER
  2
RED2
  70
0
  62
1
  6
CONTINUOUS
  0
LAYER
  2
MAGENTA2
  70
0
  62
6
  6
CONTINUOUS
  0
LAYER
  2
BROWN2
  70
0
  62
54
  6
CONTINUOUS
  0
LAYER
  2
BLUE3
  70
0
  62
171
  6
CONTINUOUS
  0
LAYER
  2
GREEN3
  70
0
  62
91
  6
CONTINUOUS
  0
LAYER
  2
CYAN3
  70
0
  62
131
  6
CONTINUOUS
  0
LAYER
  2
RED3
  70
0
  62
11
  6
CONTINUOUS
  0
LAYER
  2
MAGENTA3
  70
0
  62
221
  6
CONTINUOUS
  0
LAYER
  2
YELLOW3
  70
0
  62
2
  6
CONTINUOUS
  0
LAYER
  2
BLUE4
  70
0
  62
5
  6
CONTINUOUS
  0
LAYER
  2
GREEN4
  70
0
  62
3
  6
CONTINUOUS
  0
LAYER
  2
CYAN4
  70
0
  62
4
  6
CONTINUOUS
  0
LAYER
  2
RED4
  70
0
  62
1
  6
CONTINUOUS
  0
LAYER
  2
MAGENTA4
  70
0
  62
6
  6
CONTINUOUS
  0
LAYER
  2
YELLOW4
  70
0
  62
2
  6
CONTINUOUS
  0
ENDTAB
  0
ENDSEC
  0
SECTION
  2
ENTITIES
0
LINE
8
Black
10
12.99
20
19.47
11
12.99
21
21.17
0
LINE
8
Black
10
12.99
20
21.17
11
12.49
21
21.17
0
LINE
8
Black
10
12.49
20
21.17
11
12.49
21
19.47
0
LINE
8
Black
10
12.49
20
19.47
11
12.99
21
19.47
0
LINE
8
Black
10
12.19
20
19.47
11
12.19
21
21.17
0
LINE
8
Black
10
12.19
20
21.17
11
11.69
21
21.17
0
LINE
8
Black
10
11.69
20
21.17
11
11.69
21
19.47
0
LINE
8
Black
10
11.69
20
19.47
11
12.19
21
19.47
0
LINE
8
Black
10
11.39
20
19.47
11
11.39
21
21.17
0
LINE
8
Black
10
11.39
20
21.17
11
10.89
21
21.17
0
LINE
8
Black
10
10.89
20
21.17
11
10.89
21
19.47
0
LINE
8
Black
10
10.89
20
19.47
11
11.39
21
19.47
0
LINE
8
Black
10
10.59
20
19.47
11
10.59
21
21.17
0
LINE
8
Black
10
10.59
20
21.17
11
10.09
21
21.17
0
LINE
8
Black
10
10.09
20
21.17
11
10.09
21
19.47
0
LINE
8
Black
10
10.09
20
19.47
11
10.59
21
19.47
0
LINE
8
Black
10
9.79
20
19.47
11
9.79
21
21.17
0
LINE
8
Black
10
9.79
20
21.17
11
9.29
21
21.17
0
LINE
8
Black
10
9.29
20
21.17
11
9.29
21
19.47
0
LINE
8
Black
10
9.29
20
19.47
11
9.79
21
19.47
0
LINE
8
Black
10
8.99
20
19.47
11
8.99
21
21.17
0
LINE
8
Black
10
8.99
20
21.17
11
8.49
21
21.17
0
LINE
8
Black
10
8.49
20
21.17
11
8.49
21
19.47
0
LINE
8
Black
10
8.49
20
19.47
11
8.99
21
19.47
0
LINE
8
Black
10
8.19
20
19.47
11
8.19
21
21.17
0
LINE
8
Black
10
8.19
20
21.17
11
7.69
21
21.17
0
LINE
8
Black
10
7.69
20
21.17
11
7.69
21
19.47
0
LINE
8
Black
10
7.69
20
19.47
11
8.19
21
19.47
0
LINE
8
Black
10
7.39
20
19.47
11
7.39
21
21.17
0
LINE
8
Black
10
7.39
20
21.17
11
6.89
21
21.17
0
LINE
8
Black
10
6.89
20
21.17
11
6.89
21
19.47
0
LINE
8
Black
10
6.89
20
19.47
11
7.39
21
19.47
0
LINE
8
Black
10
6.59
20
19.47
11
6.59
21
21.17
0
LINE
8
Black
10
6.59
20
21.17
11
6.09
21
21.17
0
LINE
8
Black
10
6.09
20
21.17
11
6.09
21
19.47
0
LINE
8
Black
10
6.09
20
19.47
11
6.59
21
19.47
0
LINE
8
Black
10
5.79
20
19.47
11
5.79
21
21.17
0
LINE
8
Black
10
5.79
20
21.17
11
5.29
21
21.17
0
LINE
8
Black
10
5.29
20
21.17
11
5.29
21
19.47
0
LINE
8
Black
10
5.29
20
19.47
11
5.79
21
19.47
0
LINE
8
Black
10
4.99
20
19.47
11
4.99
21
21.17
0
LINE
8
Black
10
4.99
20
21.17
11
4.49
21
21.17
0
LINE
8
Black
10
4.49
20
21.17
11
4.49
21
19.47
0
LINE
8
Black
10
4.49
20
19.47
11
4.99
21
19.47
0
LINE
8
Black
10
4.19
20
19.47
11
4.19
21
21.17
0
LINE
8
Black
10
4.19
20
21.17
11
3.69
21
21.17
0
LINE
8
Black
10
3.69
20
21.17
11
3.69
21
19.47
0
LINE
8
Black
10
3.69
20
19.47
11
4.19
21
19.47
0
LINE
8
Black
10
3.39
20
19.47
11
3.39
21
21.17
0
LINE
8
Black
10
3.39
20
21.17
11
2.89
21
21.17
0
LINE
8
Black
10
2.89
20
21.17
11
2.89
21
19.47
0
LINE
8
Black
10
2.89
20
19.47
11
3.39
21
19.47
0
LINE
8
Black
10
2.59
20
19.47
11
2.59
21
21.17
0
LINE
8
Black
10
2.59
20
21.17
11
2.09
21
21.17
0
LINE
8
Black
10
2.09
20
21.17
11
2.09
21
19.47
0
LINE
8
Black
10
2.09
20
19.47
11
2.59
21
19.47
0
LINE
8
Black
10
1.79
20
19.47
11
1.79
21
21.17
0
LINE
8
Black
10
1.79
20
21.17
11
1.29
21
21.17
0
LINE
8
Black
10
1.29
20
21.17
11
1.29
21
19.47
0
LINE
8
Black
10
1.29
20
19.47
11
1.79
21
19.47
0
LINE
8
Black
10
0.99
20
19.47
11
0.99
21
21.17
0
LINE
8
Black
10
0.99
20
21.17
11
0.49
21
21.17
0
LINE
8
Black
10
0.49
20
21.17
11
0.49
21
19.47
0
LINE
8
Black
10
0.49
20
19.47
11
0.99
21
19.47
0
LINE
8
Black
10
16.09
20
18.22
11
16.09
21
18.72
0
LINE
8
Black
10
16.09
20
18.72
11
14.39
21
18.72
0
LINE
8
Black
10
14.39
20
18.72
11
14.39
21
18.22
0
LINE
8
Black
10
14.39
20
18.22
11
16.09
21
18.22
0
LINE
8
Black
10
16.09
20
9.42
11
16.09
21
9.92
0
LINE
8
Black
10
16.09
20
9.92
11
14.39
21
9.92
0
LINE
8
Black
10
14.39
20
9.92
11
14.39
21
9.42
0
LINE
8
Black
10
14.39
20
9.42
11
16.09
21
9.42
0
LINE
8
Black
10
16.09
20
10.22
11
16.09
21
10.72
0
LINE
8
Black
10
16.09
20
10.72
11
14.39
21
10.72
0
LINE
8
Black
10
14.39
20
10.72
11
14.39
21
10.22
0
LINE
8
Black
10
14.39
20
10.22
11
16.09
21
10.22
0
LINE
8
Black
10
16.09
20
11.02
11
16.09
21
11.52
0
LINE
8
Black
10
16.09
20
11.52
11
14.39
21
11.52
0
LINE
8
Black
10
14.39
20
11.52
11
14.39
21
11.02
0
LINE
8
Black
10
14.39
20
11.02
11
16.09
21
11.02
0
LINE
8
Black
10
16.09
20
11.82
11
16.09
21
12.32
0
LINE
8
Black
10
16.09
20
12.32
11
14.39
21
12.32
0
LINE
8
Black
10
14.39
20
12.32
11
14.39
21
11.82
0
LINE
8
Black
10
14.39
20
11.82
11
16.09
21
11.82
0
LINE
8
Black
10
16.09
20
12.62
11
16.09
21
13.12
0
LINE
8
Black
10
16.09
20
13.12
11
14.39
21
13.12
0
LINE
8
Black
10
14.39
20
13.12
11
14.39
21
12.62
0
LINE
8
Black
10
14.39
20
12.62
11
16.09
21
12.62
0
LINE
8
Black
10
16.09
20
13.42
11
16.09
21
13.92
0
LINE
8
Black
10
16.09
20
13.92
11
14.39
21
13.92
0
LINE
8
Black
10
14.39
20
13.92
11
14.39
21
13.42
0
LINE
8
Black
10
14.39
20
13.42
11
16.09
21
13.42
0
LINE
8
Black
10
16.09
20
14.22
11
16.09
21
14.72
0
LINE
8
Black
10
16.09
20
14.72
11
14.39
21
14.72
0
LINE
8
Black
10
14.39
20
14.72
11
14.39
21
14.22
0
LINE
8
Black
10
14.39
20
14.22
11
16.09
21
14.22
0
LINE
8
Black
10
16.09
20
15.02
11
16.09
21
15.52
0
LINE
8
Black
10
16.09
20
15.52
11
14.39
21
15.52
0
LINE
8
Black
10
14.39
20
15.52
11
14.39
21
15.02
0
LINE
8
Black
10
14.39
20
15.02
11
16.09
21
15.02
0
LINE
8
Black
10
16.09
20
15.82
11
16.09
21
16.32
0
LINE
8
Black
10
16.09
20
16.32
11
14.39
21
16.32
0
LINE
8
Black
10
14.39
20
16.32
11
14.39
21
15.82
0
LINE
8
Black
10
14.39
20
15.82
11
16.09
21
15.82
0
LINE
8
Black
10
16.09
20
16.62
11
16.09
21
17.12
0
LINE
8
Black
10
16.09
20
17.12
11
14.39
21
17.12
0
LINE
8
Black
10
14.39
20
17.12
11
14.39
21
16.62
0
LINE
8
Black
10
14.39
20
16.62
11
16.09
21
16.62
0
LINE
8
Black
10
16.09
20
17.42
11
16.09
21
17.92
0
LINE
8
Black
10
16.09
20
17.92
11
14.39
21
17.92
0
LINE
8
Black
10
14.39
20
17.92
11
14.39
21
17.42
0
LINE
8
Black
10
14.39
20
17.42
11
16.09
21
17.42
0
LINE
8
Black
10
0.99
20
6.97
11
0.99
21
8.67
0
LINE
8
Black
10
0.99
20
8.67
11
0.49
21
8.67
0
LINE
8
Black
10
0.49
20
8.67
11
0.49
21
6.97
0
LINE
8
Black
10
0.49
20
6.97
11
0.99
21
6.97
0
LINE
8
Black
10
1.79
20
6.97
11
1.79
21
8.67
0
LINE
8
Black
10
1.79
20
8.67
11
1.29
21
8.67
0
LINE
8
Black
10
1.29
20
8.67
11
1.29
21
6.97
0
LINE
8
Black
10
1.29
20
6.97
11
1.79
21
6.97
0
LINE
8
Black
10
2.59
20
6.97
11
2.59
21
8.67
0
LINE
8
Black
10
2.59
20
8.67
11
2.09
21
8.67
0
LINE
8
Black
10
2.09
20
8.67
11
2.09
21
6.97
0
LINE
8
Black
10
2.09
20
6.97
11
2.59
21
6.97
0
LINE
8
Black
10
3.39
20
6.97
11
3.39
21
8.67
0
LINE
8
Black
10
3.39
20
8.67
11
2.89
21
8.67
0
LINE
8
Black
10
2.89
20
8.67
11
2.89
21
6.97
0
LINE
8
Black
10
2.89
20
6.97
11
3.39
21
6.97
0
LINE
8
Black
10
4.19
20
6.97
11
4.19
21
8.67
0
LINE
8
Black
10
4.19
20
8.67
11
3.69
21
8.67
0
LINE
8
Black
10
3.69
20
8.67
11
3.69
21
6.97
0
LINE
8
Black
10
3.69
20
6.97
11
4.19
21
6.97
0
LINE
8
Black
10
4.99
20
6.97
11
4.99
21
8.67
0
LINE
8
Black
10
4.99
20
8.67
11
4.49
21
8.67
0
LINE
8
Black
10
4.49
20
8.67
11
4.49
21
6.97
0
LINE
8
Black
10
4.49
20
6.97
11
4.99
21
6.97
0
LINE
8
Black
10
5.79
20
6.97
11
5.79
21
8.67
0
LINE
8
Black
10
5.79
20
8.67
11
5.29
21
8.67
0
LINE
8
Black
10
5.29
20
8.67
11
5.29
21
6.97
0
LINE
8
Black
10
5.29
20
6.97
11
5.79
21
6.97
0
LINE
8
Black
10
6.59
20
6.97
11
6.59
21
8.67
0
LINE
8
Black
10
6.59
20
8.67
11
6.09
21
8.67
0
LINE
8
Black
10
6.09
20
8.67
11
6.09
21
6.97
0
LINE
8
Black
10
6.09
20
6.97
11
6.59
21
6.97
0
LINE
8
Black
10
7.39
20
6.97
11
7.39
21
8.67
0
LINE
8
Black
10
7.39
20
8.67
11
6.89
21
8.67
0
LINE
8
Black
10
6.89
20
8.67
11
6.89
21
6.97
0
LINE
8
Black
10
6.89
20
6.97
11
7.39
21
6.97
0
LINE
8
Black
10
8.19
20
6.97
11
8.19
21
8.67
0
LINE
8
Black
10
8.19
20
8.67
11
7.69
21
8.67
0
LINE
8
Black
10
7.69
20
8.67
11
7.69
21
6.97
0
LINE
8
Black
10
7.69
20
6.97
11
8.19
21
6.97
0
LINE
8
Black
10
8.99
20
6.97
11
8.99
21
8.67
0
LINE
8
Black
10
8.99
20
8.67
11
8.49
21
8.67
0
LINE
8
Black
10
8.49
20
8.67
11
8.49
21
6.97
0
LINE
8
Black
10
8.49
20
6.97
11
8.99
21
6.97
0
LINE
8
Black
10
9.79
20
6.97
11
9.79
21
8.67
0
LINE
8
Black
10
9.79
20
8.67
11
9.29
21
8.67
0
LINE
8
Black
10
9.29
20
8.67
11
9.29
21
6.97
0
LINE
8
Black
10
9.29
20
6.97
11
9.79
21
6.97
0
LINE
8
Black
10
10.59
20
6.97
11
10.59
21
8.67
0
LINE
8
Black
10
10.59
20
8.67
11
10.09
21
8.67
0
LINE
8
Black
10
10.09
20
8.67
11
10.09
21
6.97
0
LINE
8
Black
10
10.09
20
6.97
11
10.59
21
6.97
0
LINE
8
Black
10
11.39
20
6.97
11
11.39
21
8.67
0
LINE
8
Black
10
11.39
20
8.67
11
10.89
21
8.67
0
LINE
8
Black
10
10.89
20
8.67
11
10.89
21
6.97
0
LINE
8
Black
10
10.89
20
6.97
11
11.39
21
6.97
0
LINE
8
Black
10
12.19
20
6.97
11
12.19
21
8.67
0
LINE
8
Black
10
12.19
20
8.67
11
11.69
21
8.67
0
LINE
8
Black
10
11.69
20
8.67
11
11.69
21
6.97
0
LINE
8
Black
10
11.69
20
6.97
11
12.19
21
6.97
0
LINE
8
Black
10
12.99
20
6.97
11
12.99
21
8.67
0
LINE
8
Black
10
12.99
20
8.67
11
12.49
21
8.67
0
LINE
8
Black
10
12.49
20
8.67
11
12.49
21
6.97
0
LINE
8
Black
10
12.49
20
6.97
11
12.99
21
6.97
  0
ENDSEC
  0
EOF
